<svg width="32" height="32" viewBox="0 0 32 32" version="1.1" xmlns="http://www.w3.org/2000/svg" xmlns:xlink="http://www.w3.org/1999/xlink">
<title>mesicon-train</title>
<desc>Created using Figma</desc>
<g id="Canvas" transform="translate(2632 2968)">
<clipPath id="clip-0" clip-rule="evenodd">
<path d="M -2632 -2968L -2600 -2968L -2600 -2936L -2632 -2936L -2632 -2968Z" fill="#FFFFFF"/>
</clipPath>
<g id="mesicon-train" clip-path="url(#clip-0)">
<g id="mesicon-train">
<use xlink:href="#path0_fill" transform="translate(-2627 -2965.55)"/>
</g>
</g>
</g>
<defs>
<path id="path0_fill" fill-rule="evenodd" fill="white" d="M 22 5.6513C 22 0.66595 17.0481 -6.55651e-05 11.001 -6.55651e-05L 10.999 -6.55651e-05C 5.53247 -6.55651e-05 0 0.663753 0 5.6513L 0 19.1501C 0 21.8779 2.18774 24.0717 4.82446 24.0717L 2.76611 26.1994L 2.76611 26.9313L 5.85352 26.9313L 8.55591 24.0717L 13.7651 24.0717L 16.4675 26.9313L 19.2339 26.9313L 19.2339 26.1994L 17.1755 24.0717C 19.8123 24.0717 22 21.8757 22 19.1501L 22 5.6513ZM 9.65088 5.6513L 9.65088 11.3029L 2.76831 11.3029L 2.76831 5.6513L 9.65088 5.6513ZM 12.3513 11.3029L 19.2339 11.3029L 19.2339 5.6513L 12.3513 5.6513L 12.3513 11.3029ZM 17.1755 21.2778C 18.3345 21.2778 19.2339 20.3459 19.2339 19.1501C 19.2339 17.9543 18.3323 17.0224 17.1755 17.0224C 16.0188 17.0224 15.1174 17.9543 15.1174 19.1501C 15.1174 20.3459 16.0188 21.2778 17.1755 21.2778ZM 4.82642 21.2778C 5.98511 21.2778 6.88477 20.3459 6.88477 19.1501C 6.88477 17.9543 5.98315 17.0224 4.82642 17.0224C 3.66968 17.0224 2.76831 17.9543 2.76831 19.1501C 2.76831 20.3459 3.66968 21.2778 4.82642 21.2778Z"/>
</defs>
</svg>
