<svg width="32" height="32" viewBox="0 0 32 32" version="1.1" xmlns="http://www.w3.org/2000/svg" xmlns:xlink="http://www.w3.org/1999/xlink">
<title>mesicon-grid</title>
<desc>Created using Figma</desc>
<g id="Canvas" transform="translate(2422 2968)">
<clipPath id="clip-0" clip-rule="evenodd">
<path d="M -2422 -2968L -2390 -2968L -2390 -2936L -2422 -2936L -2422 -2968Z" fill="#FFFFFF"/>
</clipPath>
<g id="mesicon-grid" clip-path="url(#clip-0)">
<g id="mesicon-grid">
<use xlink:href="#path0_fill" transform="translate(-2418 -2964)"/>
</g>
</g>
</g>
<defs>
<path id="path0_fill" fill-rule="evenodd" d="M 0 6L 6 6L 6 0L 0 0L 0 6ZM 9 6L 15 6L 15 0L 9 0L 9 6ZM 18 6L 18 0L 24 0L 24 6L 18 6ZM 0 15L 6 15L 6 9L 0 9L 0 15ZM 15 15L 9 15L 9 9L 15 9L 15 15ZM 18 15L 24 15L 24 9L 18 9L 18 15ZM 6 24L 0 24L 0 18L 6 18L 6 24ZM 9 24L 15 24L 15 18L 9 18L 9 24ZM 24 24L 18 24L 18 18L 24 18L 24 24Z"/>
</defs>
</svg>
