<svg width="32" height="32" viewBox="0 0 32 32" version="1.1" xmlns="http://www.w3.org/2000/svg" xmlns:xlink="http://www.w3.org/1999/xlink">
<title>mesicon-equip-shuttle</title>
<desc>Created using Figma</desc>
<g id="Canvas" transform="translate(2590 3010)">
<clipPath id="clip-0" clip-rule="evenodd">
<path d="M -2590 -3010L -2558 -3010L -2558 -2978L -2590 -2978L -2590 -3010Z" fill="#FFFFFF"/>
</clipPath>
<g id="mesicon-equip-shuttle" clip-path="url(#clip-0)">
<g id="mesicon-equip-shuttle">
<use xlink:href="#path0_fill" transform="translate(-2590 -3004.24)"/>
</g>
</g>
</g>
<defs>
<path id="path0_fill" fill-rule="evenodd" d="M 22.4419 9.53674e-05L 21.1341 9.53674e-05L 21.135 0.00400162L 21.0733 0.00961685C 21.0313 0.0137672 20.9893 0.0179176 20.947 0.0191383C 20.8706 0.0232887 20.794 0.0267067 20.7173 0.0301247C 20.5503 0.037693 20.3826 0.0455055 20.2139 0.0591774C 20.116 0.0711403 20.0269 0.106052 19.9939 0.131199L 17.0459 1.65683L 13.115 3.69101L 6.96609 6.87607C 6.7615 6.98203 6.55691 7.08725 6.35232 7.19248L 6.33645 7.20053L 6.32058 7.20859C 5.85232 7.44956 5.3843 7.69053 4.91897 7.94004C 4.80837 7.99912 4.70095 7.99424 4.59036 7.98911C 4.55886 7.98764 4.52712 7.98618 4.4949 7.98618C 4.36672 7.98325 4.23879 7.97812 4.11062 7.97275C 3.92239 7.96494 3.73415 7.95713 3.54592 7.95713C 3.45388 7.9581 3.36794 7.9791 3.29495 8.01499L 2.92556 8.19614C 2.19192 8.55576 1.45803 8.91562 0.725121 9.27597C 0.684594 9.29453 0.644311 9.31455 0.604027 9.33481C 0.543236 9.36533 0.482445 9.39585 0.419945 9.42099C 0.201928 9.50498 0.0569082 9.64316 2.34375e-05 9.88315L 2.34375e-05 10.232L 0.00515039 10.2921C 0.00856836 10.3292 0.0119863 10.3658 0.0119863 10.4032L 0.0119863 10.4161C 0.0119863 10.599 0.103051 10.7601 0.24392 10.858C 0.475121 11.0272 0.705102 11.201 0.931908 11.378C 0.967064 11.4061 0.989037 11.4481 0.99099 11.4891L 0.99099 13.9471C 0.99099 13.9598 0.990014 13.9725 0.989037 13.9854C 0.988061 13.9991 0.987084 14.0128 0.987084 14.0272C 0.966576 14.0313 0.946557 14.0348 0.926049 14.0382C 0.897484 14.0431 0.868676 14.0479 0.838891 14.055C 0.61599 14.109 0.450951 14.3102 0.450951 14.5492L 0.450951 14.5621C 0.462914 14.9801 0.476098 15.398 0.49099 15.816C 0.496117 16.0931 0.721947 16.316 1.00002 16.316L 1.0259 16.315C 1.03298 16.3131 1.04006 16.3121 1.0469 16.3121C 1.09206 16.3121 1.12991 16.348 1.13503 16.4051C 1.2239 16.7372 1.41091 17.0291 1.501 17.086L 1.51394 17.1031L 1.53909 17.1361L 1.44753 17.1292L 1.41677 17.127L 1.3699 17.1236L 1.33059 17.1207L 1.21511 17.1112L 1.02029 17.0934L 1.0137 17.0926L 1.00735 17.0921C 0.882836 17.0804 0.759057 17.0689 0.63601 17.0602C 0.617943 17.0582 0.600121 17.057 0.582055 17.057C 0.296898 17.057 0.066918 17.2872 0.066918 17.5721C 0.066918 17.8451 0.280053 18.068 0.550072 18.086C 0.930687 18.1205 1.3113 18.1541 1.69216 18.1878L 1.91653 18.2076L 2.77102 18.2831L 5.19094 18.5011C 5.46487 18.526 5.73928 18.5504 6.0137 18.5748L 6.22805 18.5938L 6.41409 18.6102L 7.23806 18.6832L 13.9451 19.286L 15.802 19.45L 16.7923 19.5399C 17.1414 19.5719 17.4905 19.6039 17.8401 19.6351C 18.1736 19.6651 18.5069 19.6944 18.8404 19.7237L 19.8789 19.816L 26.8631 20.44L 27.0276 20.4542L 27.0547 20.4564L 27.0572 20.4566L 27.0821 20.4588C 27.1651 20.4659 27.2481 20.473 27.3311 20.482C 27.73 20.526 28.0081 20.2042 27.907 19.816C 27.9038 19.8031 27.9016 19.7892 27.8989 19.7701L 27.897 19.7572L 28.0279 19.7643C 28.1201 19.7691 28.2105 19.774 28.301 19.7801L 31.2549 19.982C 31.2659 19.983 31.2759 19.983 31.2859 19.983C 31.5501 19.983 31.7691 19.785 31.802 19.5291C 31.805 19.5072 31.8059 19.484 31.8059 19.4601C 31.8059 19.202 31.6111 18.9881 31.3579 18.9591C 31.1311 18.9356 30.9026 18.9215 30.6741 18.9073L 30.6106 18.9034L 30.4199 18.891L 28.8379 18.784L 28.9031 18.7372L 28.9778 18.6859L 28.9849 18.681C 29.0376 18.6451 29.0904 18.6092 29.1389 18.5711C 29.272 18.4691 29.357 18.3092 29.357 18.129C 29.357 18.119 29.357 18.1102 29.356 18.1021C 29.3589 17.5821 29.3621 17.0621 29.366 16.5421C 29.3672 16.3604 29.3694 16.1791 29.3716 15.9974C 29.3748 15.7291 29.378 15.461 29.378 15.193C 29.3789 15.1842 29.3789 15.1761 29.3789 15.1671C 29.3789 14.8932 29.158 14.671 28.885 14.669C 28.7801 14.6651 28.6699 14.6651 28.562 14.6651C 28.5489 14.6646 28.5359 14.6632 28.5227 14.6617L 28.5149 14.661C 28.4956 14.6585 28.4759 14.6561 28.4539 14.6561L 28.4539 12.931L 28.574 12.931L 28.6099 12.932C 28.887 12.932 29.1111 12.7091 29.114 12.4332C 29.114 11.9554 29.1099 11.4776 29.1057 10.9996L 29.105 10.9234L 29.0989 10.1852L 29.0989 9.41806C 29.095 8.73716 29.0911 8.06015 29.084 7.38315C 29.0811 7.08408 28.8889 6.88413 28.5889 6.85801L 28.1199 6.81601L 28.1287 6.76548C 28.1341 6.73349 28.1394 6.702 28.146 6.67099C 28.1922 6.45761 28.2388 6.24448 28.2854 6.03135L 28.3194 5.87632L 28.335 5.80478C 28.4651 5.20981 28.5947 4.61606 28.718 4.02402C 28.7261 3.96006 28.73 3.89511 28.73 3.8292C 28.73 3.74302 28.7229 3.65903 28.711 3.58506C 28.7031 3.47959 28.6917 3.37314 28.68 3.26596L 28.677 3.23838L 28.6756 3.22544C 28.6653 3.12851 28.6551 3.0311 28.648 2.9332C 28.6399 2.78501 28.5779 2.65097 28.4949 2.56504C 27.9019 1.88901 27.2481 1.28012 26.595 0.67197C 26.5264 0.609959 26.4453 0.562107 26.4199 0.547703C 25.3626 0.248875 24.2508 0.0821266 23.96 0.107029C 23.6582 0.0801735 23.3555 0.0625954 23.052 0.0450172L 23.033 0.0437965L 23.0152 0.04282L 22.9976 0.0418434L 22.98 0.0408669L 22.9636 0.0398903L 22.9463 0.0389137C 22.7945 0.0303688 22.6424 0.0215797 22.49 0.0120583C 22.461 0.00717545 22.4341 -0.000881195 22.4419 9.53674e-05ZM 18.1204 6.98569L 18.1211 6.98813L 18.1231 6.9852L 18.1204 6.98569ZM 18.0811 6.7081C 18.086 6.8248 18.1052 6.93979 18.1204 6.98569C 17.9043 7.01596 17.8169 7.12217 17.8211 7.36118C 17.8179 8.82602 17.8179 10.2901 17.8211 11.755C 17.8211 11.847 17.803 11.8812 17.7029 11.8961C 17.3184 11.9537 16.9361 12.0174 16.5537 12.0812L 16.512 12.088L 16.5044 12.0892L 16.4971 12.0904L 16.4495 12.0985L 16.032 12.1681L 15.3955 12.274C 15.094 12.3246 14.7927 12.3749 14.491 12.4242C 13.9619 12.5111 13.4309 12.597 12.898 12.6832L 12.8914 12.682C 12.8826 12.6803 12.8745 12.6786 12.8721 12.6771L 12.8721 11.9151L 12.857 9.754C 12.855 9.50718 12.678 9.37705 12.4351 9.44614L 2.1199 12.3822L 2.08938 12.3897C 2.07156 12.3939 2.05276 12.3985 2.03201 12.4041L 2.03201 11.4701L 2.10574 11.5172C 2.15212 11.5465 2.19656 11.5746 2.23806 11.6041C 2.29397 11.6422 2.36208 11.6642 2.43508 11.6642C 2.48904 11.6642 2.54006 11.6522 2.58401 11.6312C 2.88479 11.523 3.18655 11.4166 3.48855 11.3102L 3.54495 11.2904C 3.8323 11.1893 4.1199 11.088 4.40701 10.9852C 4.67092 10.891 4.72903 10.649 4.54104 10.4442C 4.37795 10.2672 4.21511 10.0902 4.053 9.91098C 3.92996 9.775 3.81912 9.74912 3.64895 9.82212C 3.03689 10.0831 2.42605 10.347 1.81594 10.6131C 1.79495 10.6251 1.77004 10.6322 1.74392 10.6322C 1.7051 10.6322 1.66995 10.6161 1.64407 10.5921C 1.55422 10.5196 1.46096 10.4498 1.36746 10.3802C 1.31423 10.3404 1.26077 10.3004 1.20803 10.2601L 1.18948 10.2437L 1.18166 10.2367C 1.16897 10.2247 1.15408 10.2113 1.13503 10.1952L 1.55496 9.98618L 2.05398 9.74179C 2.5303 9.50888 3.00613 9.27622 3.4761 9.03916C 3.57595 8.98813 3.68996 8.95908 3.81106 8.95908C 3.82888 8.95908 3.84695 8.96006 3.86306 8.96103C 4.05056 8.96958 4.23806 8.97641 4.42507 8.98301C 4.54519 8.98716 4.66506 8.99131 4.78494 8.99619L 4.87795 8.99619L 4.87698 9.1146L 4.87673 9.12998L 4.87673 9.14585C 4.87624 9.21177 4.87576 9.27597 4.87795 9.34018C 4.88088 9.47715 4.97805 9.59116 5.10598 9.61997C 5.12991 9.62705 5.15505 9.62998 5.18093 9.62998C 5.2991 9.62998 5.4009 9.56308 5.45095 9.46616C 5.46999 9.41806 5.48196 9.36606 5.48196 9.31211C 5.48611 9.16416 5.48708 9.01303 5.48196 8.86802L 5.48098 8.85117C 5.48098 8.79819 5.51492 8.75205 5.56301 8.73301C 6.11404 8.44907 6.66506 8.16416 7.21609 7.879L 15.6851 3.49814C 17.232 2.69907 18.7781 1.89804 20.323 1.09409C 20.4334 1.03672 20.5474 1.03794 20.6602 1.03891L 20.7051 1.03916C 21.305 1.02915 21.906 1.02304 22.5071 1.02915C 22.8589 1.03305 23.21 1.0521 23.5591 1.0831C 23.94 1.11606 24.3211 1.15805 24.698 1.21811C 24.9365 1.25644 25.1746 1.30503 25.4134 1.3541L 25.4524 1.36216C 25.5882 1.38974 25.7239 1.41733 25.8599 1.44297C 25.9544 1.45835 26.0154 1.51743 26.0772 1.57676L 26.1079 1.60605L 26.3208 1.80771C 26.7495 2.21274 27.1765 2.61631 27.565 3.05918C 27.6079 3.10117 27.635 3.16001 27.635 3.22519C 27.635 3.23911 27.6341 3.254 27.6309 3.26719L 27.292 3.22617C 27.1736 3.21201 27.0552 3.19736 26.9363 3.18247L 26.8867 3.17636C 26.697 3.15293 26.5071 3.12949 26.3179 3.10801C 25.9519 3.06601 25.586 3.02719 25.22 2.99106C 24.9993 2.97104 24.7771 2.95249 24.5554 2.93418L 24.3621 2.91806C 24.031 2.88901 23.699 2.86118 23.366 2.83506C 23.094 2.81406 22.822 2.79502 22.5501 2.77817L 22.263 2.75986C 21.9929 2.74228 21.7251 2.72519 21.4561 2.71103C 21.1031 2.69199 20.75 2.6771 20.396 2.66611L 20.356 2.66489L 20.3147 2.66367L 20.2725 2.66245C 19.8604 2.64975 19.4488 2.6373 19.0381 2.63218C 18.8379 2.62925 18.6375 2.63193 18.437 2.63462L 18.4124 2.63486C 18.2666 2.63706 18.1211 2.63901 17.9761 2.63901L 17.968 2.63901C 17.801 2.63901 17.666 2.77402 17.666 2.94101L 17.666 2.95005C 17.666 3.11509 17.8001 3.24814 17.9639 3.24814L 17.979 3.24717C 18.0379 3.24643 18.0969 3.24497 18.1558 3.2435L 18.2012 3.24253C 18.304 3.23984 18.407 3.23716 18.51 3.23716L 18.7632 3.24106C 19.2625 3.24839 19.763 3.25595 20.26 3.27304C 20.825 3.29306 21.3909 3.32016 21.9551 3.3541C 22.4461 3.38364 22.9319 3.42099 23.4197 3.45859L 23.595 3.47202L 23.8765 3.49399C 24.2915 3.52622 24.7061 3.55844 25.1211 3.59897C 25.7339 3.65903 26.3531 3.73105 26.969 3.80405C 27.1392 3.82334 27.3091 3.84555 27.4827 3.8685L 27.6951 3.89609L 27.5701 4.47715L 27.4678 4.46787C 27.3382 4.45615 27.2122 4.44468 27.0869 4.43198C 26.9561 4.41904 26.8247 4.40561 26.6934 4.39194L 26.3001 4.35215C 26.0889 4.33115 25.8799 4.31211 25.6709 4.29404C 25.6489 4.29209 25.626 4.29111 25.604 4.29111C 25.449 4.29111 25.3059 4.34311 25.1919 4.42905C 25.0769 4.51108 24.999 4.64414 24.9929 4.78012C 24.958 5.14609 24.9219 5.51401 24.885 5.87803C 24.8653 6.07309 24.8445 6.26719 24.8238 6.46054L 24.7849 6.82309L 24.771 6.95932L 24.7591 7.0792L 23.8301 7.04306C 23.9326 6.87339 23.9453 6.69443 23.9578 6.51767C 23.9622 6.45469 23.9666 6.39194 23.9751 6.33017C 24.0015 6.13437 24.022 5.93662 24.0425 5.73886C 24.0528 5.6395 24.063 5.54013 24.074 5.44101L 24.105 5.17148C 24.1277 4.97959 24.1504 4.78769 24.166 4.59507C 24.1809 4.42099 24.0811 4.29917 23.9409 4.20908C 23.5979 3.98911 23.0349 4.05503 22.7439 4.34018C 22.6209 4.46128 22.6048 4.61264 22.5882 4.76645L 22.585 4.79599L 22.5318 5.27939L 22.4671 5.86704L 22.4387 6.12558C 22.4126 6.36191 22.3865 6.59824 22.3631 6.83506C 22.3631 6.88706 22.3689 6.93711 22.3809 6.98008L 21.3059 6.98105C 21.2991 6.96909 21.294 6.95517 21.2949 6.95102C 21.3662 6.83969 21.3777 6.7125 21.3892 6.58701L 21.395 6.525C 21.4275 6.2042 21.4573 5.88413 21.4871 5.56333L 21.492 5.51181L 21.4964 5.46518L 21.5171 5.24399C 21.543 4.99106 21.5679 4.73618 21.5889 4.48398C 21.5911 4.46811 21.5921 4.45298 21.5921 4.43711C 21.5921 4.19297 21.4099 3.99106 21.18 3.96006C 21.107 3.94712 21.032 3.94101 20.9551 3.94101L 18.897 3.94101C 18.627 3.94101 18.3721 4.11802 18.3111 4.34507C 18.2781 4.49497 18.26 4.65097 18.262 4.71299C 18.221 5.13999 18.18 5.56699 18.1399 5.99399L 18.1277 6.12485C 18.1092 6.31821 18.0908 6.51157 18.0811 6.7081ZM 19.916 13.1551L 19.916 12.1251C 19.916 11.971 20.031 11.8451 20.18 11.826L 20.1873 11.8255C 20.357 11.8116 20.5254 11.7982 20.6941 11.7911L 21.0462 11.7765C 21.4331 11.7596 21.8206 11.743 22.208 11.7401C 23.0591 11.733 23.9109 11.7362 24.762 11.7481C 25.3714 11.7564 25.98 11.773 26.5889 11.7899L 27.1909 11.806C 27.3697 11.8102 27.5489 11.816 27.7246 11.8219L 27.7559 11.8228L 27.8333 11.8253L 28.0691 11.8331L 28.0691 7.85215L 27.0655 7.80625L 26.7986 7.7938C 25.6087 7.73838 24.426 7.68344 23.2429 7.64219C 21.6399 7.58603 20.0369 7.5311 18.4329 7.58799L 18.4329 13.328L 19.916 13.1551ZM 27.426 15.1012L 20.533 15.14L 20.5291 15.141L 20.5291 12.4161C 20.6009 12.4124 20.6724 12.4083 20.7437 12.4039L 20.7478 12.4037C 20.9075 12.3941 21.0662 12.3849 21.2251 12.3822L 21.3731 12.3795L 21.4243 12.3785L 21.4771 12.3775C 22.249 12.3641 23.022 12.3509 23.794 12.347C 24.252 12.3448 24.7095 12.3539 25.1665 12.3631L 25.1946 12.3636L 25.5711 12.3712C 25.8948 12.377 26.2185 12.3863 26.542 12.3956L 26.8789 12.4051L 26.9573 12.4076C 27.085 12.412 27.2122 12.4161 27.3401 12.4161C 27.3831 12.4161 27.4209 12.4171 27.4209 12.4771L 27.4209 13.4061C 27.0469 13.2911 26.729 13.3641 26.5269 13.7152C 26.468 13.8131 26.4329 13.9281 26.4329 14.0521C 26.4329 14.2052 26.4861 14.346 26.574 14.4552C 26.7549 14.7101 26.9829 14.7701 27.426 14.6871L 27.426 15.1012ZM 20.5249 17.8451L 20.5249 15.7511L 23.209 15.7511L 23.209 16.5392C 23.2119 16.7071 23.3501 16.8431 23.5191 16.8431L 23.5249 16.8431L 25.3611 16.7911L 25.6616 16.7826L 25.9619 16.774C 26.199 16.7682 26.3179 16.648 26.3179 16.41L 26.3179 15.7911C 26.3179 15.744 26.3279 15.7181 26.385 15.7181C 27.0281 15.7142 27.6699 15.712 28.313 15.712C 28.3369 15.7152 28.3599 15.7201 28.3521 15.7191L 28.3521 15.817L 28.3433 16.575L 28.3408 16.7813L 28.3408 16.7872L 28.3408 16.7931L 28.3408 16.7989L 28.3408 16.8048L 28.3408 16.8106L 28.3408 16.8165L 28.3408 16.8224L 28.3408 16.8282L 28.3408 16.8341L 28.3408 16.8399L 28.3408 16.8458L 28.3408 16.8517L 28.3408 16.8575L 28.3408 16.8634C 28.3369 17.1771 28.333 17.4903 28.3301 17.8031L 28.3311 17.816C 28.3311 17.8602 28.2991 17.8961 28.2571 17.9041C 28.1607 17.9293 28.0645 17.9569 27.971 17.9837L 27.9397 17.9925C 27.7573 18.0448 27.5852 18.0941 27.439 18.1222C 26.761 18.245 26.063 18.3102 25.3489 18.3102L 25.334 18.3102C 24.69 18.3131 24.0459 18.307 23.4019 18.2921C 23.0359 18.2801 22.6719 18.253 22.2739 18.2171C 21.4551 18.1551 20.6619 17.9962 20.5969 17.9461C 20.555 17.941 20.523 17.9051 20.523 17.8622C 20.523 17.8561 20.5239 17.8502 20.5249 17.8451ZM 10.1851 15.0826L 10.249 15.076L 10.2539 15.0721L 10.2539 17.3971L 9.78201 17.3971C 9.62722 17.3944 9.47341 17.3897 9.3196 17.3851C 9.19802 17.3814 9.07644 17.3778 8.9551 17.3751L 5.41311 17.2882L 5.28152 17.2853C 5.13357 17.2816 4.98635 17.2782 4.83889 17.2782C 4.83205 17.2801 4.82497 17.2811 4.81692 17.2811C 4.77688 17.2811 4.74392 17.2481 4.74392 17.2081C 4.74392 17.2 4.7449 17.193 4.74709 17.1871C 4.75002 16.6781 4.75002 16.17 4.74709 15.6622C 4.74612 15.6571 4.7449 15.651 4.7449 15.6451C 4.7449 15.6031 4.77908 15.568 4.82204 15.568C 4.82693 15.568 4.83108 15.568 4.83498 15.5692C 5.05251 15.5504 5.27004 15.5306 5.48708 15.5108L 5.57449 15.5028L 5.66799 15.4942L 5.76028 15.4857L 5.90334 15.4725L 6.33303 15.4332L 6.74148 15.3976C 7.01711 15.3736 7.29372 15.3495 7.56789 15.3241C 7.76589 15.3058 7.9634 15.2867 8.16091 15.2677C 8.37283 15.2472 8.58474 15.2267 8.7969 15.2071C 8.9678 15.1915 9.13894 15.1766 9.31008 15.1617L 9.4197 15.1522L 9.84499 15.1151C 9.94436 15.1068 10.0447 15.0968 10.1485 15.0863L 10.1851 15.0826ZM 1.50198 15.265L 1.68801 15.2457C 1.77883 15.2364 1.86746 15.2271 1.95608 15.2171L 2.42263 15.162C 2.64358 15.1356 2.86453 15.1092 3.08596 15.0841C 3.28787 15.0611 3.49148 15.0387 3.69558 15.0162C 3.87258 14.9967 4.04958 14.9771 4.2261 14.9571C 4.41555 14.9356 4.60476 14.9129 4.79397 14.8902L 4.87283 14.8807C 5.03664 14.8612 5.20071 14.8416 5.36501 14.8231L 5.93508 14.7596L 6.50491 14.6961C 6.65774 14.6788 6.81057 14.6607 6.96316 14.6427L 7.06423 14.6307L 7.16042 14.6192C 7.37087 14.5941 7.58108 14.5692 7.79104 14.545C 8.0342 14.5172 8.27786 14.4903 8.52151 14.4635C 8.75857 14.4374 8.99563 14.4112 9.23293 14.3841C 9.4761 14.3563 9.71926 14.3272 9.96194 14.2982L 10.074 14.2848C 10.2742 14.2608 10.4741 14.2372 10.6741 14.2142C 10.8672 14.1922 11.0608 14.1707 11.2544 14.1495C 11.4929 14.1231 11.7312 14.0968 11.969 14.0692L 12.3584 14.0233L 12.5132 14.005C 12.763 13.9752 13.0127 13.9454 13.263 13.9171C 13.503 13.8895 13.7434 13.8631 13.9839 13.8368C 14.2246 13.8102 14.4651 13.7835 14.7051 13.7562C 14.939 13.7293 15.1734 13.7013 15.4075 13.6732L 15.4219 13.6715C 15.6636 13.6424 15.9048 13.6136 16.146 13.586C 16.6751 13.525 17.2051 13.4662 17.7349 13.409L 17.741 13.409C 17.783 13.409 17.8169 13.3751 17.8169 13.3331C 17.8169 13.327 17.8159 13.3202 17.814 13.3141L 17.814 12.5741C 17.814 12.5592 17.8123 12.5443 17.8101 12.5272L 17.8098 12.525L 17.8069 12.5011L 1.501 15.0191L 1.501 15.2672L 1.50198 15.265ZM 11.301 16.576L 11.301 15.4442L 17.062 15.067L 17.062 16.5841L 14.178 16.6021C 13.5459 16.607 12.9131 16.6122 12.2801 16.619C 12.076 16.6212 11.8719 16.6251 11.6677 16.629L 11.3831 16.6341L 11.3726 16.6341C 11.336 16.6349 11.301 16.6353 11.301 16.576ZM 9.37991 13.264L 12.2471 12.7931L 12.2471 10.1432L 12.22 10.148C 12.1988 10.152 12.1831 10.1549 12.168 10.159L 11.7017 10.2813C 10.9544 10.4776 10.2075 10.6737 9.45998 10.869C 9.41311 10.8722 9.37698 10.911 9.37698 10.9581L 9.37795 10.9752L 9.37795 13.265L 9.37991 13.264ZM 7.10696 13.6351L 6.71706 13.7L 6.71804 11.5931L 8.772 11.0521L 8.772 11.159L 8.772 13.2591C 8.77297 13.3341 8.76101 13.368 8.6741 13.3812C 8.25832 13.4447 7.84329 13.5133 7.42849 13.5819L 7.10696 13.6351ZM 4.25808 14.1041L 4.78689 14.0182L 5.09011 13.9674L 5.15139 13.9571L 5.18044 13.9522L 5.21731 13.9461C 5.48489 13.9015 5.75271 13.8568 6.022 13.816L 6.0259 13.816C 6.07302 13.816 6.10989 13.7782 6.10989 13.732C 6.10989 13.724 6.10891 13.7171 6.10696 13.7101L 6.10696 11.8551L 6.10696 11.7601L 6.07229 11.7665L 6.06692 11.7674C 6.04983 11.7704 6.03518 11.773 6.02102 11.7772C 5.75613 11.8458 5.49123 11.9159 5.22659 11.9859L 5.14285 12.0082C 4.87698 12.0785 4.61135 12.1485 4.34499 12.2171C 4.29592 12.221 4.2571 12.2611 4.2571 12.3111L 4.25759 12.3197L 4.25808 12.327L 4.25808 14.1041ZM 3.63992 14.201L 2.0259 14.4671L 2.02517 14.4557L 2.02468 14.4481C 2.02322 14.4259 2.02175 14.4054 2.01809 14.3861L 2.01809 12.9151C 2.01711 12.91 2.01589 12.9041 2.01589 12.898C 2.01589 12.8502 2.05398 12.8111 2.10207 12.8102C 2.42605 12.7276 2.75027 12.6417 3.07424 12.5555L 3.57497 12.4232C 3.5884 12.4195 3.60232 12.4176 3.61843 12.4154L 3.62112 12.4149L 3.63992 12.4122L 3.63992 14.201ZM 14.3401 17.2062C 14.3401 17.5702 14.554 18.0411 14.906 18.2271C 15.2581 18.4132 15.6961 18.3841 15.9719 18.1541C 16.273 17.9051 16.376 17.566 16.408 17.2042L 14.3401 17.2062ZM 19.9131 15.159L 18.437 15.212L 18.437 14.328L 19.9131 14.193L 19.9131 15.159ZM 18.437 15.8241L 18.437 16.6312L 19.9099 16.6312L 19.9099 15.7711L 18.437 15.8241ZM 11.8989 17.2401L 13.624 17.2401C 13.5989 17.7362 13.2481 18.1461 12.844 18.1451C 12.313 18.1471 11.9209 17.7772 11.8989 17.2401ZM 2.61306 15.9662L 2.61306 16.7601L 3.74294 16.796L 3.74294 15.9L 2.61306 15.9662ZM 13.0711 6.55112L 13.0711 7.03012L 13.0669 7.0311L 13.075 7.0311L 13.075 7.19712L 13.0784 7.39975C 13.0811 7.57016 13.0838 7.74057 13.093 7.91098C 13.1011 8.05112 13.2129 8.16098 13.3521 8.16709L 13.3711 8.16709C 13.49 8.16709 13.6021 8.13999 13.697 8.09409L 14.468 7.83213L 14.5552 7.80259L 14.5948 7.78916L 14.6365 7.775C 15.0999 7.61777 15.5635 7.46054 16.0291 7.30014C 16.189 7.2501 16.3321 7.16001 16.313 7.15708C 16.5659 6.95615 16.7281 6.69614 16.7339 6.36313C 16.7366 6.23301 16.732 6.10288 16.7273 5.97275C 16.7249 5.90586 16.7224 5.83896 16.721 5.77207L 16.7163 5.48374C 16.7122 5.22104 16.708 4.95884 16.7029 4.69297C 16.7039 4.68906 16.7039 4.6832 16.7039 4.67905C 16.7039 4.525 16.5789 4.40097 16.426 4.40097L 16.4192 4.40146L 16.4109 4.40219C 16.2991 4.40708 16.1919 4.43515 16.1221 4.47007C 15.292 4.85898 14.461 5.25107 13.6389 5.65805C 13.281 5.83506 13.0611 6.12607 13.0711 6.55112ZM 23.054 2.02109C 23.055 1.629 23.3721 1.31211 23.7639 1.31211L 23.7759 1.31211C 24.1641 1.31211 24.4781 1.62607 24.4781 2.01401L 24.4781 2.02719C 24.4771 2.41806 24.159 2.7352 23.7659 2.7352C 23.3731 2.7352 23.054 2.41611 23.054 2.02109ZM 22.272 14.7311L 22.2781 14.7311L 22.2901 14.7301C 22.6651 14.7301 22.97 14.4261 22.97 14.0501L 22.97 14.045L 22.971 13.9981C 22.971 13.6161 22.6609 13.306 22.2791 13.306C 21.897 13.306 21.5869 13.6161 21.5869 13.9981C 21.5869 14.014 21.5869 14.0301 21.5879 14.0431L 21.5879 14.047C 21.5879 14.4251 21.8941 14.7311 22.272 14.7311Z"/>
</defs>
</svg>
