<svg width="32" height="32" viewBox="0 0 32 32" version="1.1" xmlns="http://www.w3.org/2000/svg" xmlns:xlink="http://www.w3.org/1999/xlink">
<title>mesicon-truck</title>
<desc>Created using Figma</desc>
<g id="Canvas" transform="translate(2464 2968)">
<clipPath id="clip-0" clip-rule="evenodd">
<path d="M -2464 -2968L -2432 -2968L -2432 -2936L -2464 -2936L -2464 -2968Z" fill="#FFFFFF"/>
</clipPath>
<g id="mesicon-truck" clip-path="url(#clip-0)">
<g id="mesicon-truck">
<use xlink:href="#path0_fill" transform="translate(-2464 -2963.41)"/>
</g>
</g>
</g>
<defs>
<path id="path0_fill" fill-rule="evenodd" fill="white" d="M 31.9337 10.126L 31.9337 15.6931L 31.1368 16.4719L 29.8477 16.457C 29.8477 16.457 29.0389 14.647 28.4957 14.137C 25.7777 11.5811 19.8778 12.5181 19.3048 17.0701C 18.9625 17.0681 18.5743 17.0713 18.1676 17.075C 16.5741 17.0886 14.6952 17.1047 14.1717 16.8101C 13.2401 16.3347 12.8546 15.3142 12.4691 14.2927C 12.401 14.1126 12.3328 13.9324 12.2618 13.7551C 10.9649 13.2356 9.60555 12.7783 8.24545 12.321L 8.23763 12.3184C 5.83602 11.511 3.43417 10.7034 1.37582 9.55298L 1.37582 5.54297C 1.28353 5.24341 0.99325 5.1416 0.702966 5.04004C 0.285974 4.89405 -0.131018 4.74781 0.038904 4.0149C 0.852136 3.26783 2.04305 3.3357 3.22836 3.40308C 3.56893 3.42261 3.90927 3.4419 4.23983 3.4419L 18.3719 3.4419C 18.8294 3.05176 19.0589 2.4336 19.2884 1.81568C 19.5587 1.08716 19.8289 0.35889 20.4727 0.00390943L 26.2017 0.00390943C 26.5565 0.00390943 26.8905 0.00293287 27.2047 0.00171217L 27.2076 0.00171217C 29.9571 -0.0070769 31.1668 -0.0109831 31.1668 0.76807C 31.1668 1.75342 30.4549 1.74732 28.2569 1.72876L 28.1986 1.72827L 28.1278 1.72779C 27.8307 1.72535 27.5077 1.7229 27.1568 1.7229L 22.4459 1.7229C 20.9891 4.80054 20.0667 6.90186 18.4459 10.5945L 18.4339 10.6218L 18.3558 10.8001L 18.1505 11.2678L 18.0697 11.4519L 17.8814 11.8806L 17.2259 13.3721C 18.5528 14.1184 19.18 12.5483 19.5599 11.5974L 19.5675 11.5784L 19.5719 11.5674L 19.5745 11.5608L 19.5833 11.5391L 19.589 11.5251C 19.6317 11.4192 19.671 11.322 19.7078 11.239C 20.1385 10.2732 20.5623 9.27783 20.9832 8.28931L 20.9886 8.27661C 21.7103 6.58106 22.4229 4.90699 23.1458 3.44092L 28.6837 3.44092C 29.2572 4.04688 29.6766 5.01685 30.1095 6.01807C 30.2059 6.24097 30.3031 6.46558 30.4027 6.68799C 30.8978 7.79297 31.9307 10.125 31.9307 10.125L 31.9337 10.126ZM 22.5758 10.3169L 29.2599 10.3169C 28.942 9.40332 28.5518 8.54492 28.1632 7.68994C 27.9491 7.21875 27.7354 6.74854 27.5348 6.271C 26.3829 6.2771 24.2437 6.25806 24.2437 6.25806C 24.2437 6.25806 23.1607 8.92896 22.5758 10.3169ZM 14.9369 6.88013L 16.0828 6.88013C 16.0252 7.5398 15.628 8.21118 15.2291 8.88501L 15.2225 8.89624L 15.2176 8.9043L 15.2127 8.91236L 15.2078 8.92041L 15.203 8.92847L 15.1981 8.93653C 15.0394 9.20606 14.8805 9.47559 14.7457 9.74512C 14.6612 9.91309 14.5868 10.1274 14.5081 10.3535L 14.5074 10.3555L 14.5067 10.3574L 14.5059 10.3594L 14.5052 10.3613L 14.5045 10.3633L 14.5037 10.3652C 14.2171 11.1902 13.8778 12.167 12.8358 11.655C 13.1478 10.3804 13.6903 9.33692 14.2328 8.29346C 14.4742 7.8291 14.7157 7.36475 14.9369 6.88013ZM 11.6898 6.88013C 10.1651 6.69361 9.86825 7.73413 9.57162 8.77442L 9.57113 8.77661C 9.42977 9.27075 9.28866 9.76465 9.01571 10.127C 9.24081 10.221 9.44979 10.3311 9.58871 10.509C 10.4224 9.98511 10.8065 9.01197 11.1905 8.03882C 11.3468 7.64283 11.5033 7.24683 11.6898 6.88013ZM 5.55209 8.06275C 5.85189 7.32251 6.1517 6.58228 7.48886 6.88013C 7.31234 7.17408 7.14437 7.47681 6.97665 7.7793C 6.71298 8.25513 6.4493 8.73072 6.1517 9.17212C 6.0267 9.07447 5.85043 9.02783 5.67416 8.9812C 5.49813 8.93433 5.32186 8.88745 5.19686 8.79004C 5.34408 8.57642 5.44808 8.31958 5.55209 8.06275ZM 3.33383 18.3149C 3.33383 20.7981 5.34677 22.812 7.8309 22.812C 10.3148 22.812 12.3277 20.7991 12.3277 18.3149C 12.3277 15.8311 10.3138 13.8181 7.8309 13.8181C 5.34677 13.8181 3.33383 15.8311 3.33383 18.3149ZM 7.83187 20.0291C 8.74374 20.0291 9.48275 19.259 9.48275 18.3101C 9.48275 17.3611 8.74374 16.592 7.83187 16.592C 6.91976 16.592 6.18075 17.3611 6.18075 18.3101C 6.18075 19.259 6.91976 20.0291 7.83187 20.0291ZM 20.2728 18.3149C 20.2728 20.7981 22.2857 22.812 24.7699 22.812C 27.2537 22.812 29.2667 20.7991 29.2667 18.3149C 29.2667 15.8311 27.2537 13.8181 24.7699 13.8181C 22.2857 13.8181 20.2728 15.8311 20.2728 18.3149ZM 24.7708 20.0291C 25.6827 20.0291 26.4217 19.259 26.4217 18.3101C 26.4217 17.3611 25.6827 16.592 24.7708 16.592C 23.8587 16.592 23.1197 17.3611 23.1197 18.3101C 23.1197 19.259 23.8587 20.0291 24.7708 20.0291Z"/>
</defs>
</svg>
