<svg width="32" height="32" viewBox="0 0 32 32" version="1.1" xmlns="http://www.w3.org/2000/svg" xmlns:xlink="http://www.w3.org/1999/xlink">
<title>mesicon-outflow</title>
<desc>Created using Figma</desc>
<g id="Canvas" transform="translate(2254 2968)">
<clipPath id="clip-0" clip-rule="evenodd">
<path d="M -2254 -2968L -2222 -2968L -2222 -2936L -2254 -2936L -2254 -2968Z" fill="#FFFFFF"/>
</clipPath>
<g id="mesicon-outflow" clip-path="url(#clip-0)">
<g id="Group">
<g id="Group">
<g id="Path">
<use xlink:href="#path0_fill" transform="translate(-2237.73 -2958.91)"/>
</g>
<g id="Subtract">
<use xlink:href="#path1_fill" transform="translate(-2252.85 -2964.5)"/>
</g>
</g>
</g>
</g>
</g>
<defs>
<path id="path0_fill" fill-rule="evenodd" fill="white" d="M 14.2994 6.57574L 9.41718 11.4689C 9.2284 11.6581 8.99589 11.7529 8.71964 11.7533C 8.44338 11.7537 8.21087 11.6589 8.02209 11.4689C 7.83331 11.2788 7.73872 11.0458 7.73831 10.7698L 7.73831 7.6247L 0.501648 7.6247C 0.355995 7.6247 0.235974 7.5774 0.141584 7.4828C 0.0471948 7.3882 -1.7475e-09 7.26791 5.22698e-13 7.12193L 2.38982e-07 4.63134C 2.4073e-07 4.48536 0.0471951 4.36507 0.141585 4.27047C 0.235974 4.17587 0.355995 4.12857 0.501648 4.12857L 7.73831 4.12857L 7.73831 0.983517C 7.73831 0.707056 7.8329 0.474021 8.02209 0.284413C 8.21128 0.0948042 8.44379 3.3179e-09 8.71964 0C 8.99548 -3.3179e-09 9.228 0.0948043 9.41718 0.284413L 14.2994 5.17753C 14.4882 5.36673 14.5828 5.59977 14.5832 5.87664C 14.5836 6.1535 14.489 6.38654 14.2994 6.57574Z"/>
<path id="path1_fill" fill-rule="evenodd" fill="white" d="M 14.1394 0C 14.7558 0 15.3254 0.329346 15.6333 0.863525L 19.4074 7.41528L 15.6174 7.41528C 15.5556 7.41528 15.4936 7.41724 15.4316 7.42114L 14.1394 5.17822L 8.18332 15.5173L 20.0954 15.5173L 20.0905 15.509L 20.5551 15.509L 20.5551 16.3552L 20.5551 16.3586C 20.5564 17.22 20.8767 18.0403 21.507 18.6746C 22.143 19.3147 22.9707 19.6389 23.8388 19.6377C 24.6257 19.6365 25.3796 19.3687 25.988 18.8389L 28.0483 22.4153C 28.3557 22.9487 28.3552 23.6057 28.0471 24.1387C 27.739 24.6716 27.1701 25 26.5544 25L 1.72409 25C 1.10837 25 0.539521 24.6716 0.231415 24.1387C -0.0766902 23.6057 -0.0771785 22.9487 0.230195 22.4153L 12.6452 0.863525C 12.9531 0.329346 13.5227 0 14.1394 0Z"/>
</defs>
</svg>
