<svg width="32" height="32" viewBox="0 0 32 32" version="1.1" xmlns="http://www.w3.org/2000/svg" xmlns:xlink="http://www.w3.org/1999/xlink">
<title>mesicon-equip-cd</title>
<desc>Created using Figma</desc>
<g id="Canvas" transform="translate(2380 3010)">
<clipPath id="clip-0" clip-rule="evenodd">
<path d="M -2380 -3010L -2348 -3010L -2348 -2978L -2380 -2978L -2380 -3010Z" fill="#FFFFFF"/>
</clipPath>
<g id="mesicon-equip-cd" clip-path="url(#clip-0)">
<g id="mesicon-equip-cd">
<use xlink:href="#path0_fill" transform="translate(-2376.44 -3010)"/>
</g>
</g>
</g>
<defs>
<path id="path0_fill" fill-rule="evenodd" fill="white" d="M 24.687 12.344C 24.687 11.9661 24.6702 11.5911 24.6372 11.2209L 15.594 20.2639C 15.0051 20.853 14.051 20.853 13.4622 20.2649L 4.5332 11.3359C 3.94409 10.7471 3.94409 9.79395 4.53418 9.2041L 13.6682 0.0700684C 13.2332 0.0239258 12.791 0 12.344 0C 5.5271 0 0 5.52588 0 12.344C 0 19.1621 5.52612 24.688 12.344 24.688C 19.1611 24.688 24.688 19.1621 24.687 12.344ZM 6.74609 10.322L 7.18921 10.7639L 8.1521 9.83398C 8.6792 9.32495 9.51904 9.34106 10.0271 9.86694C 10.5352 10.3931 10.521 11.2329 9.99414 11.7419L 9.06421 12.6399L 12.1392 15.7151L 13.1021 14.7849C 13.6292 14.2759 14.469 14.292 14.9771 14.8181C 15.4851 15.344 15.4712 16.1841 14.9441 16.6931L 14.0142 17.5911L 14.4221 17.999C 14.7002 18.2771 15.147 18.2749 15.4241 17.999L 23.6821 9.74097C 23.959 9.46411 23.959 9.01489 23.6821 8.73901L 23.2651 8.32202L 17.1172 14.47C 16.7031 14.884 16.031 14.885 15.6172 14.4709L 10.354 9.20801C 9.94019 8.79395 9.94116 8.12207 10.355 7.70801L 16.5032 1.56006L 16.0061 1.06299C 15.728 0.784912 15.281 0.785889 15.0042 1.06299L 6.74609 9.32007C 6.46899 9.59692 6.46899 10.0459 6.74609 10.322ZM 11.947 16.512L 13.436 15.074C 13.7361 14.7849 14.2131 14.792 14.5032 15.092C 14.7932 15.3921 14.7852 15.8689 14.4841 16.1589L 12.9951 17.5969C 12.6951 17.886 12.218 17.8789 11.928 17.5791C 11.6382 17.2791 11.646 16.802 11.947 16.512ZM 16.6211 12.572C 16.8042 12.7549 17.0981 12.7549 17.28 12.573L 22.6492 7.19995L 17.5022 2.2041L 12.1392 7.42798C 11.9551 7.60693 11.9541 7.8999 12.136 8.08203L 16.6211 12.572ZM 5.76001 28.0791L 4.802 29.3979L 20.0701 29.3979L 19.1121 28.0791L 5.76001 28.0791ZM 20.1421 26.4839C 19.865 26.103 19.3362 26.021 18.957 26.2959L 18.8062 26.406C 18.511 26.6211 18.394 26.9929 18.489 27.3259L 6.38403 27.3259C 6.479 26.9929 6.36304 26.6221 6.06714 26.406L 5.91504 26.2959C 5.53711 26.021 5.00513 26.105 4.72998 26.4839L 1.85205 30.447C 1.57617 30.8279 1.66113 31.3569 2.04004 31.6321L 2.19116 31.7419C 2.56909 32.0171 3.10107 31.9331 3.37598 31.554L 3.98315 30.718L 20.8892 30.718L 21.4961 31.554C 21.7732 31.9351 22.302 32.0171 22.6812 31.7419L 22.833 31.6321C 23.2112 31.3569 23.2961 30.8259 23.02 30.447L 20.1421 26.4839ZM 7.00415 11.8069L 8.52417 10.3391C 8.8252 10.05 9.30298 10.0569 9.59204 10.3569C 9.8811 10.657 9.87207 11.134 9.57202 11.4241L 8.052 12.8921C 7.7522 13.1809 7.27515 13.1741 6.98511 12.874C 6.69507 12.574 6.7041 12.0969 7.00415 11.8069Z"/>
</defs>
</svg>
