<?xml version="1.0" encoding="UTF-8"?>
<svg width="96px" height="96px" viewBox="0 0 96 96" version="1.1" xmlns="http://www.w3.org/2000/svg" xmlns:xlink="http://www.w3.org/1999/xlink">
    <!-- Generator: Sketch 47.1 (45422) - http://www.bohemiancoding.com/sketch -->
    <title>icn_browser_firefox</title>
    <desc>Created with Sketch.</desc>
    <defs></defs>
    <g id="Page-1" stroke="none" stroke-width="1" fill="none" fill-rule="evenodd">
        <g id="icn_browser_firefox" fill-rule="nonzero">
            <g id="icons8-firefox" transform="translate(2.000000, 4.000000)">
                <path d="M89.5466667,43.5466667 C89.5466667,67.5940253 70.0473586,87.0933333 46,87.0933333 C21.9526437,87.0933333 2.45333333,67.5940253 2.45333333,43.5466667 C2.45333333,19.4993104 21.9526437,0 46,0 C70.0473586,0 89.5466667,19.4993104 89.5466667,43.5466667 Z" id="Shape" fill="#01579B"></path>
                <path d="M69.92,36.3417963 C69.92,34.9582037 69.92,29.6664074 66.4444444,25.5335949 C66.2091215,25.3 65.9828466,24.8417963 65.9828466,24.6082037 C65.7475237,24.3835949 65.7475237,24.15 65.5212512,23.6917963 L65.050603,23 L64.5890052,22.3082037 C64.1274074,21.6164074 63.8920845,21.1582037 63.8920845,21.1582037 C62.9688889,19.7835949 62.733566,17.9417963 63.6658096,16.3335949 C63.8920845,15.8664074 64.3627326,15.4082037 64.5890052,14.95 C64.3627326,14.7164074 64.1274074,14.4917963 63.8920845,14.4917963 C63.8920845,14.4917963 63.8920845,14.4917963 63.6658096,14.4917963 C62.9688889,14.0335949 62.2719682,13.5664074 61.8103704,13.1082037 L60.1902541,11.9582037 C59.0317355,11.2664074 58.3348148,11.0417963 58.3348148,10.8082037 C56.7146985,9.8917963 55.7824549,8.2835949 56.0177778,6.4417963 C56.253103,4.6 57.4116215,2.9917963 59.2580104,2.5335949 C59.4933333,2.5335949 59.9549311,2.3 60.4165289,2.3 C60.4165289,2.3 60.4165289,2.3 60.1902541,2.0664074 C56.0177778,0.6917963 51.3837037,0 46.7496296,0 C29.6071771,0 14.5464363,9.8917963 7.36,24.15 C7.36,24.6082037 7.36,24.8417963 7.36,25.3 C7.36,41.8582037 21.9591429,55.2 39.7985185,55.2 C53.4654178,55.2 65.050603,47.3835949 69.92,36.3417963 Z" id="Shape" fill="#0277BD"></path>
                <path d="M60.1066667,6.36303489 C60.1066667,6.36303489 60.7922935,6.13333333 62.1546457,6.13333333 C62.8402726,6.13333333 63.5258994,6.13333333 64.4341342,6.13333333 C65.3512704,6.13333333 66.2595053,6.36303489 67.3992495,6.59273871 C68.5389937,6.81360611 69.678738,7.26417733 70.8184822,7.7235827 C71.9582264,8.17415165 73.3294801,8.85442669 74.4692243,9.75556686 C75.6089685,10.4358396 76.7487128,11.5666836 77.888457,12.4678261 C79.0282013,13.3778027 79.9364361,14.7295141 80.8535746,15.860358 C81.5302977,17.2209036 82.447434,18.3517476 83.1330631,19.7034612 C83.8097862,21.0640068 84.2728073,22.4245546 84.7269224,23.776266 C85.1810398,25.1368115 85.4125515,26.4885252 85.6351573,27.6193692 C85.8666667,28.9799147 85.8666667,30.1107587 85.8666667,31.0119012 C85.8666667,31.4713065 85.8666667,32.1427452 85.8666667,32.6021505 C85.8666667,33.0527195 85.8666667,33.5032907 85.6351573,33.9538619 C85.6351573,34.8638385 85.4125515,35.5352771 85.4125515,36.2155499 C85.4125515,37.3463939 85.1810398,38.0266667 85.1810398,38.0266667 C85.1810398,38.0266667 84.7269224,37.3463939 84.2728073,36.2155499 C84.0412956,35.7649787 83.5871782,35.0847059 83.3556688,34.1835635 C83.1330631,33.5032907 82.670042,32.6021505 82.2159246,31.6921739 C81.7618071,30.7910315 81.3076897,29.8810572 80.8535746,28.7502132 C80.3905535,27.8490707 79.7138304,26.7182267 79.2508093,25.5873828 C78.7966918,24.4565388 78.111065,23.5553986 77.4343419,22.4245546 C76.7487128,21.2937106 76.063086,20.383734 75.3774591,19.4825916 C74.6918323,18.5726172 74.0151092,17.4417733 73.0979707,16.7703346 C72.1897358,15.860358 71.504109,14.9592156 70.5958765,14.2789428 C69.9102474,13.3778027 68.9931111,12.6975276 68.0848763,12.0172548 C67.1766438,11.3369821 66.4910147,10.6567093 65.5738784,10.2061381 C64.8971553,9.52586531 63.9800168,9.07529409 63.29439,8.62472287 C62.6176668,8.17415165 61.9320377,7.7235827 61.4779226,7.49387888 C60.7922935,6.81360611 60.1066667,6.36303489 60.1066667,6.36303489 Z" id="Shape" fill="#FFF176"></path>
                <path d="M89.2284666,28.592158 C88.5439668,23.5050992 86.4904745,18.88706 84.2147409,15.6580392 C83.0768741,14.0435288 81.9390073,12.889019 81.2633989,12.1945098 C80.3477711,11.5000006 79.8944017,11.04 79.8944017,11.04 C79.8944017,11.04 79.8944017,11.7345092 80.1255321,12.889019 C80.3477711,14.0435288 80.3477711,15.4235306 80.5788992,17.2725496 C80.8011405,18.2015698 80.8011405,19.1215686 81.0322685,20.0415698 C80.1255321,18.6615681 78.9876653,17.2725496 77.8497984,16.3525484 C76.7119316,15.1980386 75.3429345,14.5035294 74.6584371,14.0435288 C73.5205702,13.5835306 73.0672009,13.3490196 73.0672009,13.3490196 C73.0672009,13.3490196 73.2983312,13.8090202 73.5205702,14.7380404 C73.7516983,15.6580392 74.2050677,16.812549 74.6584371,18.4270594 C75.1118064,20.0415698 75.7963039,22.1250975 76.4808013,24.1996084 C75.1118064,22.585098 73.7516983,21.1960796 72.3827034,20.2760784 C70.7914672,19.3560796 69.4224724,18.6615681 68.2846056,18.4270594 C66.9244974,17.9670588 66.24,17.9670588 66.24,17.9670588 C66.24,17.9670588 66.6933694,18.4270594 67.1467388,19.3560796 C67.3778668,19.8160779 67.8312362,20.2760784 68.0623642,20.9705877 C68.5157336,21.6650992 68.746864,22.3505894 69.2002311,23.0450986 C69.8847308,24.4341171 70.7914672,26.0486275 71.4759647,27.8976465 C71.9293341,28.8176476 72.1604644,29.7466678 72.6138315,30.6666667 C72.8360728,31.5866678 73.5205702,32.5156857 73.7516983,33.6701955 C74.2050677,34.5901967 74.436198,35.5192168 74.8895651,36.6737266 C75.1118064,37.5937255 75.5740648,38.5137266 75.7963039,39.6682364 C76.0274319,40.5972543 76.4808013,41.5172555 76.7119316,42.4462757 C76.9341707,43.3662745 77.1652987,44.2862757 77.6186681,44.9807849 C78.3031655,46.5952953 78.7565349,47.9843137 79.2099043,48.9043149 C79.6632737,49.8333328 79.8944017,50.2933333 79.8944017,50.2933333 C79.8944017,50.2933333 80.1255321,49.8333328 80.5788992,48.678823 C80.8011405,48.2188247 81.0322685,47.5243131 81.0322685,46.8298039 C81.2633989,46.1352947 81.4856379,45.2152935 81.4856379,44.2862757 C81.4856379,43.6007855 81.716766,42.9062739 81.716766,42.2117647 C81.9390073,42.9062739 82.1701354,43.3662745 82.1701354,43.3662745 C82.1701354,43.3662745 82.4012657,42.9062739 82.8546328,41.9772561 C83.0768741,41.5172555 83.3080022,41.0572549 83.5391325,40.3627457 C83.5391325,40.3627457 83.5391325,40.1372561 83.5391325,40.1372561 C83.5391325,40.5972543 83.5391325,41.2917659 83.7613715,41.7517641 C83.7613715,42.6717653 83.9924996,43.3662745 83.9924996,44.0607837 C83.9924996,44.7552953 83.9924996,45.4407855 83.9924996,46.1352947 C83.9924996,47.2898045 84.2147409,47.9843137 84.2147409,47.9843137 C84.2147409,47.9843137 84.6769993,47.5243131 85.3526077,46.5952953 C85.5837358,46.1352947 86.0371052,45.6752941 86.4904745,44.9807849 C86.9527329,44.2862757 87.174972,43.6007855 87.6283414,42.6717653 C88.0905997,41.7517641 88.3128388,40.8227463 88.5439668,39.6682364 C88.7662082,38.5137266 88.9973362,37.3592168 89.2284666,36.204707 C89.4507056,35.0501972 89.4507056,33.6701955 89.4507056,32.5156857 C89.6818337,31.1266672 89.4507056,29.7466678 89.2284666,28.592158 Z" id="Shape" fill="#FDD835"></path>
                <path d="M91.7768421,34.385239 C91.7768421,33.2505723 91.5447562,32.568 91.5447562,32.568 C91.5447562,32.568 91.0895125,33.2505723 90.4021851,34.154761 C89.7148577,35.2894277 89.0275303,36.6545723 88.1170428,38.4718136 C87.4297154,40.0585723 86.5192279,41.8758136 85.5998169,43.6841886 C85.5998169,41.8758136 85.5998169,40.2801886 85.3766567,38.6934277 C85.1445731,37.337147 84.9214153,36.2024803 84.6893294,35.0678136 C84.2340856,33.933147 84.002002,32.7984803 83.5467582,31.8854277 C82.8594308,29.8465723 81.9489433,28.4814277 81.2616159,27.346761 C80.5742885,26.2120943 80.1190448,25.76 80.1190448,25.76 C80.1190448,25.76 79.8869612,28.4814277 79.8869612,32.568 C79.8869612,34.6068553 79.663801,36.6545723 79.4317174,39.145522 C79.4317174,40.2801886 79.2085595,41.4148553 79.2085595,42.78 C79.2085595,43.9146667 78.9764736,45.2798136 78.74439,46.4144803 C78.74439,46.6360943 78.74439,47.0881886 78.74439,47.3186667 C78.5212299,45.2798136 77.8339025,43.2320943 76.9234173,41.8758136 C76.2360876,40.2801886 75.3166766,39.145522 74.638275,38.4718136 C73.7188617,37.337147 73.2636179,37.1066667 73.2636179,37.1066667 C73.2636179,37.1066667 73.2636179,37.789239 73.2636179,38.6934277 C73.2636179,39.6064803 73.2636179,40.962761 73.0315343,42.549522 C72.8083742,45.5014277 72.3531327,49.357522 71.8889631,52.992 C71.665803,53.8961886 71.4337194,54.809239 71.4337194,55.7134277 C71.2105615,56.6264803 70.9784756,57.5306667 70.9784756,58.4348553 C70.746392,59.3479057 70.5232319,60.2520943 70.2911482,60.9346667 C70.0679904,61.8388553 69.8359045,62.5214277 69.8359045,63.204 C69.6038209,63.8865723 69.6038209,64.790761 69.3806607,65.2428553 C69.1485771,65.9254277 69.1485771,66.377522 68.9254192,67.0600943 C68.6933333,68.194761 68.6933333,68.8773333 68.6933333,68.8773333 C68.6933333,68.8773333 69.1485771,68.6468553 70.0679904,67.973147 C70.9784756,67.2905723 72.1210468,66.608 73.2636179,65.2428553 C73.7188617,64.569147 74.4061891,63.8865723 75.0935164,62.973522 C75.5487602,62.0693333 76.2360876,61.386761 76.6913313,60.4825723 C76.6913313,61.165147 76.4592477,61.8388553 76.4592477,62.5214277 C76.2360876,63.204 76.2360876,64.1081886 76.004004,64.569147 C75.5487602,65.9254277 75.5487602,66.608 75.5487602,66.608 C75.7808461,66.377522 76.4592477,66.608 77.1465751,66.8384803 C77.1465751,67.0600943 76.9234173,67.2905723 76.9234173,67.2905723 C76.6913313,67.973147 76.4592477,68.6468553 76.2360876,69.3294277 C75.7808461,70.4640943 75.5487602,71.1466667 75.5487602,71.1466667 C75.5487602,71.1466667 76.2360876,70.9161886 77.1465751,70.2424803 C77.6018189,69.781522 78.2891463,69.5599057 78.9764736,68.8773333 C79.663801,68.425239 80.3511307,67.7426667 81.0295323,66.8384803 C81.7168597,66.1559057 82.4041871,65.2428553 83.3146746,64.3386667 C84.002002,63.4344803 84.6893294,62.2998136 85.3766567,61.165147 C86.742388,58.8958136 87.8849592,56.396 88.8043702,53.8961886 C89.7148577,51.405239 90.634271,48.6838136 91.0895125,46.184 C91.5447562,43.6841886 91.7768421,41.4148553 92,39.376 C92,37.337147 92,35.741522 91.7768421,34.385239 Z" id="Shape" fill="#FFB300"></path>
                <path d="M85.7145954,58.0232225 C84.8014035,58.4918046 83.8882139,59.4109453 82.5094737,60.3300882 C80.6741398,61.7178109 78.614983,63.5651051 76.5468761,65.6376809 C76.7796491,64.9438196 77.2362451,64.2589688 77.4690181,63.5651051 C78.1583893,61.4835211 78.38221,59.6452375 78.614983,58.0232225 C78.614983,56.4102182 78.614983,55.0315061 78.38221,54.1033526 C78.1583893,52.9499197 77.925614,52.4903483 77.925614,52.4903483 C77.925614,52.4903483 77.4690181,52.9499197 77.0124244,53.6437811 C76.5468761,54.3376425 75.6336842,55.4910753 74.7204946,56.6445081 C73.7983504,57.797941 72.8851584,59.4109453 71.9630165,60.7986703 C71.7391935,61.0239496 71.7391935,61.2582395 71.5064205,61.4835211 C71.9630165,60.1048066 71.9630165,58.4918046 71.9630165,57.1040796 C71.9630165,55.2567854 71.5064205,53.4094912 71.0498246,52.0307768 C70.5932286,50.6430541 69.9038596,49.4896212 69.4472637,48.7957599 C69.2144907,48.3361884 68.7578947,47.8766169 68.7578947,47.8766169 C68.7578947,47.8766169 68.5251218,48.3361884 68.3012988,49.2643419 C68.0685258,49.9491927 67.6119298,51.1026255 67.1553339,52.4903483 C66.6987402,53.6437811 66.4659649,55.0315061 66.0093689,56.6445081 C65.776596,57.3383718 65.5527753,58.0232225 65.32,58.9513738 C65.087227,59.6452375 64.863404,60.3300882 64.6306311,60.7986703 C60.2795444,65.1781095 55.0063158,66.3315423 49.9658602,66.5658345 C47.2173367,66.5658345 44.6926316,66.0972524 42.4007018,65.4124017 C38.962807,64.2589688 35.7576875,62.1773824 32.7763865,59.4109453 C37.1274732,59.8705167 41.2547368,58.9513738 44.6926316,57.3383718 L50.4224561,53.6437811 C51.1118251,53.4094912 51.8011963,53.4094912 52.481613,53.6437811 C53.8603509,53.4094912 54.3169468,52.7246405 53.8603509,51.3369154 C53.1709819,50.4177748 52.025017,49.4896212 50.8790521,48.7957599 C47.8977533,47.1827556 44.9254068,47.4170454 41.7113328,49.4896212 C38.730034,51.1026255 35.9815082,50.877344 33.0002095,49.2643419 C25.900597,45.5697512 28.6491228,36.1079987 36.2142812,40.9560199 C36.6708772,38.6491542 35.9815082,36.1079987 34.6117226,33.5758514 C27.9597539,21.3476617 35.5249123,11.4263376 38.0496174,9.81333333 C33.4657577,10.2729048 29.3384918,12.3544912 25.667824,15.8147897 C2.05915685,13.0393419 0,36.1079987 0,36.3422886 L2.74852579,33.801133 C1.83533386,36.3422886 1.14596491,38.8834464 0.913191935,41.6498813 C0,50.6430541 2.52470509,59.4109453 8.47835035,68.1788365 C17.6460697,79.9384464 32.0870175,87.0933333 45.8385965,87.0933333 C61.4255093,87.0933333 71.5064205,81.3261692 78.1583893,73.9460007 C78.614983,73.4864315 79.0715789,73.0178494 79.5281749,72.5582779 C80.9069128,70.9452736 82.2767007,69.3322693 83.4226656,67.4849751 C84.5686305,65.8719708 85.2579995,64.0246766 85.9473684,62.4116723 C86.4039644,60.7986703 86.8605604,59.4109453 87.0933333,58.4918046 C87.0933333,57.797941 87.0933333,57.1040796 87.0933333,57.1040796 C87.0933333,57.1040796 86.6367374,57.3383718 85.7145954,58.0232225 Z" id="Shape" fill="#FF9800"></path>
                <path d="M17.9338074,53.3243797 C17.4786126,37.2368468 27.7606464,38.6193703 33.017695,40.4507636 C29.3582894,39.7684798 27.7606464,43.2158083 29.3582894,46.4297227 C28.671036,46.4297227 21.5932129,45.7384621 17.9338074,53.3243797 Z M32.3304392,59.9856249 C36.6681734,60.4524507 40.7827714,59.527776 44.210116,57.9208177 L49.922357,54.2400775 C50.3775518,54.0156403 51.0648052,54.0156403 51.52,54.2400775 C44.8973694,50.3349001 37.8106216,58.6120783 22.2715416,56.0804476 C26.1630057,59.0699272 32.3304392,59.9856249 32.3304392,59.9856249 Z M31.8752467,22.2984234 C31.4111272,25.7457519 32.0983806,29.884341 34.383277,34.2473672 C37.5874878,32.4069971 40.7827714,30.3421898 40.7827714,30.3421898 C40.7827714,30.3421898 45.3525642,25.7457519 40.7827714,25.7457519 C36.4450396,25.7457519 33.4728874,23.9053818 31.8752467,22.2984234 Z M14.051268,17.4685737 C11.9895078,15.6371805 8.79422181,11.956438 8.79422181,7.36 C8.79422181,7.36 3.31404174,16.3194642 5.36687721,23.4475329 C7.41971496,20.9159022 10.3918648,18.8510949 14.051268,17.4685737 Z" id="Shape" fill="#EF6C00"></path>
                <path d="M35.4569425,33.12 C38.7341398,31.3004156 42.0022066,29.2589289 42.0022066,29.2589289 C42.0022066,29.2589289 42.46777,28.8062511 42.9333333,28.3535755 L42.0022066,26.9866667 L33.12,26.9866667 C33.5855633,29.0281534 34.2884712,31.0785133 35.4569425,33.12 Z" id="Shape" fill="#FFCC80"></path>
                <path d="M41.8509804,24.7704574 C41.0696575,24.7704574 40.2883346,24.7704574 39.5171582,24.5333333 L39.2533333,24.7704574 C39.2533333,24.7704574 41.3334797,27.8074835 41.8509804,29.44 C41.8509804,29.44 47.0462745,24.7704574 41.8509804,24.7704574 Z" id="Shape" fill="#5D4037"></path>
            </g>
        </g>
    </g>
</svg>