<?xml version="1.0" encoding="UTF-8"?>
<svg width="96px" height="96px" viewBox="0 0 96 96" version="1.1" xmlns="http://www.w3.org/2000/svg" xmlns:xlink="http://www.w3.org/1999/xlink">
    <!-- Generator: Sketch 47.1 (45422) - http://www.bohemiancoding.com/sketch -->
    <title>icn_browser_safari</title>
    <desc>Created with Sketch.</desc>
    <defs>
        <radialGradient cx="50%" cy="50%" fx="50%" fy="50%" r="56.7814039%" gradientTransform="translate(0.500000,0.500000),scale(0.983333,1.000000),rotate(90.000000),translate(-0.500000,-0.500000)" id="radialGradient-1">
            <stop stop-color="#02B9DA" offset="0%"></stop>
            <stop stop-color="#0470D1" offset="100%"></stop>
        </radialGradient>
    </defs>
    <g id="Page-1" stroke="none" stroke-width="1" fill="none" fill-rule="evenodd">
        <g id="icn_browser_safari">
            <g id="safari" transform="translate(2.000000, 3.000000)">
                <g id="img">
                    <ellipse id="Oval-1" fill="url(#radialGradient-1)" cx="45.5098145" cy="44.8571314" rx="45.5098145" ry="44.8571314"></ellipse>
                    <path d="M29.1880674,37.0854089 C28.4469294,38.5767917 27.9124467,40.1889932 27.6220858,41.8845467 L12.1646458,44.8571314 L27.6220858,47.829716 C28.8680258,55.1053459 34.6089168,60.846237 41.8845467,62.0921769 L44.8571314,77.5496169 L47.829716,62.0921769 C55.1053459,60.846237 60.846237,55.1053459 62.0921769,47.829716 L77.5496169,44.8571314 L62.0921769,41.8845467 C60.846237,34.6089168 55.1053459,28.8680258 47.829716,27.6220858 L44.8571314,12.1646458 L41.8845467,27.6220858 C40.2276318,27.9058299 38.6503133,28.4226964 37.1875545,29.1377222 L41.7661638,32.3041268 C42.7565531,32.0610869 43.7917901,31.9321952 44.8571314,31.9321952 C51.9953765,31.9321952 57.7820675,37.7188862 57.7820675,44.8571314 C57.7820675,51.9953765 51.9953765,57.7820675 44.8571314,57.7820675 C37.7188862,57.7820675 31.9321952,51.9953765 31.9321952,44.8571314 C31.9321952,43.7639806 32.0679039,42.7025263 32.3233927,41.6886968 L29.1880674,37.0854089 Z" id="Oval-2" fill="#FFFFFF"></path>
                    <polygon id="Triangle-5" fill="#F54747" transform="translate(30.407902, 30.373006) rotate(-45.000000) translate(-30.407902, -30.373006) " points="30.4079021 9.84516621 37.2505154 50.9008458 23.5652889 50.9008458"></polygon>
                    <polygon id="Triangle-6" fill="#F8D8D8" transform="translate(59.298936, 59.264040) scale(-1, -1) rotate(-45.000000) translate(-59.298936, -59.264040) " points="59.2989359 38.7362 66.1415492 79.7918795 52.4563226 79.7918795"></polygon>
                    <circle id="Oval-4" fill="#FFFFFF" cx="44.8571314" cy="44.8571314" r="6.84261326"></circle>
                </g>
            </g>
        </g>
    </g>
</svg>