<svg width="32" height="32" viewBox="0 0 32 32" version="1.1" xmlns="http://www.w3.org/2000/svg" xmlns:xlink="http://www.w3.org/1999/xlink">
<title>mesicon-equip-mainline</title>
<desc>Created using Figma</desc>
<g id="Canvas" transform="translate(2296 3010)">
<clipPath id="clip-0" clip-rule="evenodd">
<path d="M -2296 -3010L -2264 -3010L -2264 -2978L -2296 -2978L -2296 -3010Z" fill="#FFFFFF"/>
</clipPath>
<g id="mesicon-equip-mainline" clip-path="url(#clip-0)">
<g id="mesicon-equip-mainline">
<use xlink:href="#path0_fill" transform="translate(-2296 -3006.13)"/>
</g>
</g>
</g>
<defs>
<path id="path0_fill" fill-rule="evenodd" d="M 10.043 1.8485C 10.2839 1.10729 9.87697 0.310418 9.136 0.0694513C 8.39503 -0.171515 7.59791 0.235467 7.35695 0.976434L 0.0691054 23.4274C -0.170885 24.1683 0.235121 24.9654 0.976088 25.2064C 1.71705 25.4474 2.51491 25.0404 2.7549 24.2994L 4.40114 19.2284L 27.5178 19.2284L 29.1641 24.2994C 29.4041 25.0404 30.2019 25.4474 30.9431 25.2064C 31.6841 24.9654 32.0901 24.1683 31.8501 23.4274L 24.562 0.976434C 24.3211 0.235467 23.5239 -0.171515 22.783 0.0694513C 22.042 0.310418 21.635 1.10729 21.876 1.8485L 22.8582 4.87438L 9.0608 4.87438L 10.043 1.8485ZM 23.2922 6.2113L 8.62672 6.2113L 6.94801 11.3824L 24.971 11.3824L 23.2922 6.2113ZM 25.4053 12.7203L 6.51369 12.7203L 4.83497 17.8915L 27.084 17.8915L 25.4053 12.7203Z"/>
</defs>
</svg>
