<svg width="32" height="32" viewBox="0 0 32 32" version="1.1" xmlns="http://www.w3.org/2000/svg" xmlns:xlink="http://www.w3.org/1999/xlink">
<title>mesicon-equip-reloc-crusher</title>
<desc>Created using Figma</desc>
<g id="Canvas" transform="translate(2632 3010)">
<clipPath id="clip-0" clip-rule="evenodd">
<path d="M -2632 -3010L -2600 -3010L -2600 -2978L -2632 -2978L -2632 -3010Z" fill="#FFFFFF"/>
</clipPath>
<g id="mesicon-equip-reloc-crusher" clip-path="url(#clip-0)">
<g id="mesicon-equip-reloc-crusher">
<use xlink:href="#path0_fill" transform="translate(-2632 -3005)"/>
</g>
</g>
</g>
<defs>
<path id="path0_fill" fill-rule="evenodd" d="M 7.97803 15.9609L 7.97803 14.353L 6.49292 14.353L 6.49292 3.21606L 7.23608 3.21606L 7.23608 1.29907L 8.34912 1.29907L 8.34912 0L 10.7759 0L 10.7759 1.29907L 11.875 1.29907L 11.8621 4.37402L 25.2981 10.6011L 32 11.7871L 32 13.7949L 27.6641 16.21L 29.3989 17.6931L 30.4509 17.6931L 30.4509 19.9819L 30.467 19.9929C 30.5049 20.103 30.5271 20.219 30.5181 20.199C 30.5181 20.7019 30.106 21.158 29.603 21.158L 21.356 21.158C 20.842 21.158 20.427 20.7429 20.427 20.23C 20.427 19.717 20.843 19.301 21.356 19.301L 27.896 19.301L 26.387 18.8679L 7.97803 18.8679L 7.97803 18.8181L 1.11304 16.7041L 1.11304 15.8999L 0 15.1609L 0 11.5339L 3.979 12.9131L 6.06104 15.9609L 7.97803 15.9609ZM 8.12305 19.303C 7.83398 19.499 7.64404 19.8301 7.64404 20.207L 7.64404 20.217C 7.64404 20.614 7.85596 20.9109 8.16895 21.158L 3.16699 21.158C 2.65308 21.158 2.23804 20.7429 2.23804 20.23C 2.23804 19.717 2.65405 19.301 3.16699 19.301L 8.12305 19.303ZM 19.5659 20.228C 19.5659 19.7151 19.1509 19.3 18.637 19.3L 9.26489 19.3C 8.75293 19.3 8.33691 19.7141 8.33691 20.228C 8.33691 20.7419 8.75098 21.157 9.26489 21.157L 18.637 21.157C 19.1499 21.157 19.5659 20.741 19.5659 20.228ZM 25.4939 17.3279L 10.7871 11.3679L 10.7871 12.9629L 21.894 17.3279L 25.4939 17.3279ZM 10.7871 14.4961L 18.9431 17.3269L 10.7871 17.3269L 10.7871 14.4961Z"/>
</defs>
</svg>
