<svg width="32" height="32" viewBox="0 0 32 32" version="1.1" xmlns="http://www.w3.org/2000/svg" xmlns:xlink="http://www.w3.org/1999/xlink">
<title>mesicon-equip-tlo-1</title>
<desc>Created using Figma</desc>
<g id="Canvas" transform="translate(2464 3010)">
<clipPath id="clip-0" clip-rule="evenodd">
<path d="M -2464 -3010L -2432 -3010L -2432 -2978L -2464 -2978L -2464 -3010Z" fill="#FFFFFF"/>
</clipPath>
<g id="mesicon-equip-tlo-1" clip-path="url(#clip-0)">
<g id="mesicon-equip-tlo-1">
<use xlink:href="#path0_fill" transform="translate(-2457.72 -3008.13)"/>
</g>
</g>
</g>
<defs>
<path id="path0_fill" fill-rule="evenodd" d="M 17.906 0.0168457C 18.4419 0.0168457 18.6079 0.60498 18.6079 0.801025C 18.7173 4.78101 18.8262 8.64307 18.9351 12.4966L 18.9368 12.5583L 18.9478 12.9514L 18.9602 13.3882L 18.9609 13.4143C 19.0647 17.0884 19.1685 20.7625 19.272 24.531L 17.092 24.531L 15.5149 22.5378C 15.5149 22.5378 15.3889 19.0388 15.2759 17.7109C 15.1279 15.9658 14.53 15.4338 12.803 15.4338L 6.07983 15.4338C 4.81494 15.437 4.12598 16.0349 4 17.304C 3.85986 18.658 3.69385 22.45 3.69385 22.45L 2.1499 24.501L 0 24.48C 0 24.48 0.375 8.27881 0.557861 0.953857C 0.570068 0.462891 0.793945 0 1.44507 0C 7.06201 0.0168457 12.2878 0.0168457 17.906 0.0168457ZM 2.13696 2.20288L 1.93506 2.2688L 1.67505 11.085L 5.54297 7.48486L 2.13696 2.20288ZM 5.04541 9.71606L 5.0498 9.71216C 5.45532 9.35596 5.85571 9.00415 6.25684 8.64185C 6.49585 9.01733 6.75024 9.40967 7.01904 9.82373L 7.03052 9.84155L 7.03589 9.84985C 7.4751 10.5269 7.9519 11.2625 8.46191 12.0798L 2.44897 12.0798C 3.36108 11.197 4.20337 10.4563 5.02417 9.73462L 5.03442 9.72559L 5.04541 9.71606ZM 12.2996 9.64844C 11.8191 10.3792 11.2969 11.1736 10.751 12.0798L 16.769 12.0798C 15.8521 11.1904 15.0095 10.4629 14.1758 9.74292C 13.7646 9.38794 13.3557 9.03467 12.9409 8.66479C 12.7463 8.96826 12.5417 9.27979 12.3289 9.60376L 12.3137 9.62671L 12.2996 9.64844ZM 15.9561 9.82397L 15.6765 9.54004L 15.6655 9.52881L 15.6599 9.52319L 15.6489 9.51196C 15.1125 8.96704 14.5757 8.42188 14.0779 7.84399C 13.9329 7.67798 13.8479 7.26196 13.95 7.09399C 14.7283 5.83472 15.5337 4.59595 16.3416 3.35376C 16.5564 3.02344 16.7712 2.69312 16.9858 2.36182C 16.926 2.3938 17.084 2.26685 17.2659 2.18481L 17.5469 11.395C 17.2778 11.1265 17.0374 10.8909 16.8147 10.6731L 16.7771 10.6362L 16.7688 10.6282C 16.4771 10.3428 16.2153 10.0867 15.958 9.82397L 15.9561 9.82397ZM 12.822 21.218C 13.0649 21.218 13.28 21.3379 13.4119 21.5229L 17.3079 27.1279C 17.396 27.2449 17.447 27.3899 17.447 27.5469C 17.447 27.7849 17.3279 27.9958 17.144 28.125L 17.147 28.124C 17.031 28.2 16.8931 28.2429 16.7449 28.2429C 16.491 28.2429 16.2681 28.115 16.1331 27.918L 15.416 26.855L 3.82007 26.855L 3.11304 27.9189C 2.98193 28.1169 2.75806 28.2478 2.50195 28.2478C 2.35889 28.2478 2.22705 28.2068 2.11597 28.1379C 1.93188 28.0059 1.81299 27.792 1.81299 27.5498C 1.81299 27.3979 1.85986 27.2568 1.93799 27.1428L 5.8479 21.5178C 5.97998 21.3298 6.19897 21.208 6.44702 21.208C 6.59888 21.208 6.74194 21.2549 6.85693 21.333L 6.85986 21.325C 7.04102 21.4458 7.15894 21.6519 7.15894 21.886C 7.15894 22.0388 7.10889 22.1799 7.02393 22.292L 6.9209 22.375L 12.3269 22.375L 12.2349 22.2939C 12.155 22.1838 12.1079 22.0488 12.1079 21.9028C 12.1079 21.668 12.23 21.4619 12.4141 21.344C 12.53 21.2649 12.6709 21.218 12.822 21.218ZM 6.57397 22.8728L 12.665 22.8728L 13.7061 24.533L 5.53491 24.533L 6.57397 22.8728ZM 5.18799 25.031L 4.16797 26.3589L 15.072 26.3589L 14.053 25.031L 5.18799 25.031Z"/>
</defs>
</svg>
