<svg width="32" height="32" viewBox="0 0 32 32" version="1.1" xmlns="http://www.w3.org/2000/svg" xmlns:xlink="http://www.w3.org/1999/xlink">
<title>mesicon-equip-ohp</title>
<desc>Created using Figma</desc>
<g id="Canvas" transform="translate(2254 3010)">
<clipPath id="clip-0" clip-rule="evenodd">
<path d="M -2254 -3010L -2222 -3010L -2222 -2978L -2254 -2978L -2254 -3010Z" fill="#FFFFFF"/>
</clipPath>
<g id="mesicon-equip-ohp" clip-path="url(#clip-0)">
<g id="mesicon-equip-ohp">
<use xlink:href="#path0_fill" transform="translate(-2252.22 -3006.45)"/>
</g>
</g>
</g>
<defs>
<path id="path0_fill" fill-rule="evenodd" d="M 16.489 4.6579L 21.6321 4.6579C 21.6321 4.35101 21.6333 4.04657 21.6348 3.74432L 21.6353 3.62225L 21.6353 3.6142L 21.6353 3.60638L 21.6353 3.59857L 21.6353 3.59076L 21.6353 3.58295C 21.6401 2.57098 21.645 1.58295 21.6052 0.595886C 21.5972 0.393982 21.2302 0.0480347 21.0181 0.0390015C 19.7161 -0.0130005 18.4102 -0.0130005 17.1082 0.0390015C 16.895 0.0480347 16.5251 0.393982 16.5171 0.597107C 16.4771 1.60468 16.4814 2.61395 16.4861 3.64789C 16.4875 3.98163 16.489 4.31805 16.489 4.6579ZM 2.89819 23.166L 0.0012207 23.166L 0 24.9101L 28.4751 24.9101L 28.4751 23.1301L 25.957 23.1301C 25.957 23.1301 25.958 11.6159 25.957 7.56805C 25.957 6.08905 25.4702 5.59491 24.0032 5.59491C 19.2842 5.59344 14.5657 5.59369 9.84741 5.59393L 5.12915 5.59393C 3.34814 5.59393 2.90015 6.03802 2.89917 7.81903C 2.89746 11.1826 2.89795 20.5121 2.89819 22.7109L 2.89819 23.166ZM 7.19116 10.6879L 7.19116 7.112L 6.14722 7.112C 6.14722 7.112 6.17505 9.80707 6.14722 10.6879C 6.11304 11.7509 6.06201 13.3439 4.26904 14.3139C 4.26904 14.3139 4.63013 15.0749 4.80103 15.257C 6.60718 14.142 7.19116 12.4531 7.19116 10.6879ZM 12.5242 10.6879L 12.5242 7.112L 11.4802 7.112C 11.4802 7.112 11.5081 9.80707 11.4802 10.6879C 11.446 11.7509 11.395 13.3439 9.60205 14.3139C 9.60205 14.3139 9.96313 15.0749 10.134 15.257C 11.9402 14.142 12.5242 12.4531 12.5242 10.6879ZM 17.8572 7.112L 17.8572 10.6879C 17.8572 12.4531 17.2732 14.142 15.467 15.257C 15.2961 15.0749 14.9351 14.3139 14.9351 14.3139C 16.728 13.3439 16.7791 11.7509 16.8132 10.6879C 16.8411 9.80707 16.8132 7.112 16.8132 7.112L 17.8572 7.112ZM 23.1912 10.6879L 23.1912 7.112L 22.1472 7.112C 22.1472 7.112 22.175 9.80707 22.1472 10.6879C 22.113 11.7509 22.062 13.3439 20.269 14.3139C 20.269 14.3139 20.6301 15.0749 20.801 15.257C 22.6072 14.142 23.1912 12.4531 23.1912 10.6879ZM 7.11304 21.3339L 7.11304 16.0009L 8.0022 16.0009L 8.0022 21.3339L 7.11304 21.3339ZM 10.6682 16.0009L 10.6682 21.3339L 11.5571 21.3339L 11.5571 16.0009L 10.6682 16.0009ZM 14.2241 21.3339L 14.2241 16.0009L 15.113 16.0009L 15.113 21.3339L 14.2241 21.3339ZM 17.78 16.0009L 17.78 21.3339L 18.6692 21.3339L 18.6692 16.0009L 17.78 16.0009ZM 21.3352 21.3339L 21.3352 16.0009L 22.2241 16.0009L 22.2241 21.3339L 21.3352 21.3339Z"/>
</defs>
</svg>
