<svg width="32" height="32" viewBox="0 0 32 32" version="1.1" xmlns="http://www.w3.org/2000/svg" xmlns:xlink="http://www.w3.org/1999/xlink">
<title>mesicon-stockpiles</title>
<desc>Created using Figma</desc>
<g id="Canvas" transform="translate(2506 2968)">
<clipPath id="clip-0" clip-rule="evenodd">
<path d="M -2506 -2968L -2474 -2968L -2474 -2936L -2506 -2936L -2506 -2968Z" fill="#FFFFFF"/>
</clipPath>
<g id="mesicon-stockpiles" clip-path="url(#clip-0)">
<g id="mesicon-stockpiles">
<use xlink:href="#path0_fill" transform="translate(-2505 -2959.02)"/>
<use xlink:href="#path1_stroke" transform="translate(-2505 -2959.02)"/>
</g>
</g>
</g>
<defs>
<path id="path0_fill" fill-rule="evenodd" d="M 10.0198 0L 9.66162 0L 9.66333 0.000976562C 8.88013 0.129883 8.46997 0.716553 8.03369 1.34033L 8.02637 1.35059L 8.01953 1.3606L 8.00366 1.38354L 7.99561 1.39502C 7.93506 1.48145 7.87378 1.56885 7.81055 1.65503C 7.53394 2.03369 7.27637 2.43286 7.03491 2.80737C 6.96216 2.92017 6.89087 3.03052 6.82104 3.1377C 6.64111 3.41309 6.44824 3.67261 6.25586 3.93115L 6.25024 3.93872L 6.24463 3.94629L 6.24316 3.94824L 6.23633 3.95752C 6.08447 4.16113 5.93335 4.36401 5.78955 4.57275C 5.55078 4.91895 5.32471 5.27148 5.10181 5.61938C 5.00806 5.76587 4.91455 5.91162 4.82104 6.05566C 3.81348 7.60815 2.79468 9.05493 1.80151 10.4651L 1.79248 10.4778L 1.78955 10.4819C 1.4563 10.9548 1.12598 11.4238 0.799805 11.8914C 0.360107 11.8438 0.0881348 11.9932 0 12.3528L 0 12.5955C 0.0656738 12.811 0.192139 12.9573 0.378906 13.033L 29.7461 13.033C 29.9329 12.9573 30.0593 12.812 30.125 12.5955L 30.125 12.3528C 30.05 12.0193 29.7986 11.887 29.4517 11.8665C 29.0901 11.3757 28.7563 10.8547 28.4202 10.3293C 28.1077 9.84131 27.793 9.34985 27.4514 8.87598C 27.2856 8.646 27.1177 8.41772 26.949 8.18896L 26.9219 8.1521L 26.9153 8.14307C 26.3896 7.42993 25.8608 6.71216 25.3884 5.93433C 25.0449 5.36914 24.6597 4.83374 24.2673 4.28882L 24.2637 4.28394C 23.9563 3.85742 23.6448 3.42505 23.3459 2.96777C 23.2065 2.75439 23.071 2.52783 22.9341 2.29858C 22.3369 1.2998 21.7083 0.248535 20.5881 0.000976562L 20.23 0.000976562C 19.8464 0.0778809 19.5042 0.282715 19.2407 0.536133C 18.9221 0.842041 18.6455 1.24731 18.3738 1.64551L 18.3716 1.64868C 18.3032 1.74902 18.2354 1.84863 18.167 1.94629C 17.9805 2.21289 17.8047 2.49365 17.6304 2.77222L 17.6223 2.78491L 17.6206 2.7876L 17.615 2.79663C 17.47 3.02856 17.3259 3.25854 17.1775 3.47778C 16.9329 3.83936 16.6829 4.1897 16.4351 4.53662L 16.4219 4.55518C 15.9688 5.1897 15.5239 5.81274 15.1353 6.46826C 14.7668 5.80298 14.3188 5.19067 13.8577 4.56079C 13.5674 4.16406 13.2717 3.76001 12.9878 3.33154C 12.814 3.06909 12.6472 2.78491 12.478 2.49609C 11.8547 1.43311 11.1968 0.310791 10.0198 0ZM 14.5876 7.4895C 14.8267 7.82007 15.0725 8.18384 15.2402 8.63232C 15.4026 9.06763 15.5769 9.61475 15.3875 10.1648C 15.052 10.0034 14.8726 9.65796 14.7097 9.34399L 14.709 9.34229L 14.7061 9.33667C 14.6523 9.23364 14.6006 9.13428 14.5454 9.04614C 14.4875 8.95288 14.4126 8.84595 14.332 8.7312L 14.3286 8.72632C 14.269 8.6416 14.2065 8.55273 14.146 8.46216C 14.1155 8.4165 14.0864 8.36743 14.0571 8.31787C 13.9529 8.14185 13.8481 7.96484 13.6826 7.95215C 13.5403 7.94116 13.3901 8.01489 13.3667 8.21973C 13.3406 8.4519 13.5293 8.69995 13.6765 8.89307L 13.6831 8.90186L 13.6868 8.90674L 13.6917 8.91309L 13.6975 8.9209C 13.7319 8.96631 13.7637 9.00854 13.7878 9.04614C 14.1179 9.55298 14.4292 10.0327 14.7349 10.5776C 14.7593 10.6208 14.7866 10.6658 14.8147 10.7119L 14.8257 10.7302C 14.9668 10.9614 15.1267 11.2236 15.093 11.4775C 15.0603 11.731 14.7563 11.991 14.4619 11.8425C 14.3418 11.7817 14.2544 11.5127 14.1682 11.2478C 14.1335 11.1409 14.0989 11.0344 14.0625 10.9426C 14.0469 10.9031 14.0312 10.8596 14.0149 10.814L 14.0117 10.8054L 14.0034 10.7822C 13.9067 10.5093 13.7888 10.1772 13.5571 10.1648C 13.0405 10.1365 13.3152 10.7424 13.4614 11.0649C 13.4832 11.1125 13.502 11.1541 13.5149 11.1863C 13.5417 11.2532 13.5669 11.3132 13.5903 11.3689C 13.6729 11.5654 13.7329 11.7085 13.7671 11.9153L 2.125 11.9153C 2.09717 11.8074 2.16846 11.7339 2.23242 11.6677C 2.25513 11.6443 2.27686 11.6216 2.29297 11.5989C 3.46875 9.93213 4.59692 8.2793 5.74561 6.49316C 6.02832 6.05322 6.33276 5.6311 6.64233 5.20215L 6.64648 5.19629L 6.65063 5.19043L 6.65283 5.1875C 6.97583 4.73975 7.3042 4.28442 7.61938 3.79395C 7.89111 3.37158 8.18652 2.91235 8.54565 2.43262C 8.6189 2.33496 8.69458 2.21387 8.7749 2.08521L 8.77612 2.0835C 9.10205 1.56226 9.50513 0.917236 10.125 1.19238C 10.6521 1.42554 11.0728 2.15942 11.4194 2.76416C 11.5122 2.92603 11.5999 3.07886 11.6826 3.21021C 12.1062 3.88306 12.5349 4.47827 12.9636 5.07324L 12.98 5.09595C 13.2849 5.51953 13.5898 5.94336 13.8928 6.39575C 13.9976 6.552 14.0955 6.71338 14.1929 6.87476L 14.1978 6.88281C 14.3235 7.09009 14.4487 7.29639 14.5876 7.4895ZM 23.8931 10.7961C 23.9099 10.6045 24.0505 10.4951 24.209 10.5049C 24.4619 10.5203 24.5605 10.8477 24.6611 11.1819C 24.78 11.5762 24.9016 11.9797 25.2827 11.8911C 25.5293 11.8337 25.6006 11.3162 25.4514 10.8948C 25.3447 10.5928 25.1445 10.2678 24.9568 9.96313L 24.9365 9.93042L 24.9231 9.90869L 24.9219 9.90649C 24.8794 9.8374 24.8379 9.76953 24.7988 9.70337C 24.7666 9.64941 24.7124 9.57227 24.6489 9.48193L 24.6411 9.4707L 24.6396 9.46875L 24.6348 9.46191C 24.4236 9.16333 24.1208 8.73486 24.1462 8.51196C 24.165 8.34619 24.2915 8.24878 24.4199 8.24438C 24.6829 8.23657 24.9155 8.66895 25.1072 9.02515C 25.1541 9.11255 25.1985 9.19531 25.2405 9.26587C 25.2842 9.33936 25.3369 9.43213 25.3914 9.52808L 25.3923 9.52979L 25.397 9.53784L 25.4084 9.55786C 25.4658 9.65869 25.5247 9.76172 25.5771 9.84961L 25.5908 9.87231C 25.675 10.0132 25.8643 10.3291 26.061 10.2871C 26.4023 10.2156 26.2964 9.24854 26.1877 8.97437C 26.1018 8.75757 25.9077 8.50952 25.7185 8.26782C 25.6477 8.17773 25.5779 8.08838 25.5144 8.00171C 25.2791 7.68115 25.0605 7.32812 24.8616 7.00537C 24.4456 6.32812 23.9753 5.67285 23.5073 5.02075L 23.5054 5.01807L 23.4985 5.00879L 23.4954 5.00439L 23.4873 4.99316L 23.4841 4.98877L 23.4761 4.97754C 23.0276 4.35156 22.5811 3.72852 22.1882 3.09106C 22.1255 2.98926 22.0618 2.88086 21.9968 2.77002L 21.9949 2.7666L 21.9873 2.75366L 21.9795 2.74023L 21.9563 2.70044C 21.6138 2.11255 21.2349 1.46289 20.7561 1.21826C 20.0979 0.88208 19.6047 1.6604 19.2407 2.23535L 19.2332 2.24756C 19.1602 2.36255 19.0925 2.46875 19.0298 2.55591C 18.7607 2.9292 18.5452 3.25977 18.3105 3.62036L 18.3044 3.62964C 18.1951 3.79785 18.0813 3.97266 17.9561 4.16113C 17.7385 4.48853 17.5696 4.70972 17.4055 4.92407C 17.229 5.15503 17.0586 5.37817 16.8401 5.71753C 16.7432 5.86816 16.6345 6.04346 16.5217 6.22559L 16.5156 6.23535L 16.5095 6.24536C 16.3608 6.48608 16.2053 6.73706 16.061 6.95776C 16.0383 6.99219 16.0037 7.04077 15.9666 7.09277L 15.9626 7.09814C 15.8794 7.21411 15.7859 7.34473 15.7871 7.37134C 15.7898 7.43066 15.9771 7.64233 16.1042 7.78613L 16.1055 7.7876C 16.1521 7.84009 16.1904 7.88354 16.2083 7.90649C 16.5879 8.39429 16.8945 8.90601 17.1929 9.40381L 17.1958 9.40869L 17.3447 9.65674C 17.5945 10.0703 17.8804 10.4656 18.1746 10.8721C 18.2903 11.032 18.407 11.1934 18.5234 11.3584C 18.5693 11.4236 18.6143 11.4963 18.6582 11.5676C 18.759 11.7314 18.8542 11.8862 18.9446 11.9172C 19.0488 11.9531 19.2017 11.9414 19.3589 11.9294C 19.4392 11.9233 19.5205 11.9172 19.5972 11.9172L 24.271 11.9172C 24.2793 11.7031 24.176 11.5232 24.075 11.3472C 23.9734 11.1707 23.8743 10.998 23.8921 10.7983L 23.8931 10.7961ZM 12.7585 6.52319C 12.5884 6.23682 12.4678 6.03394 12.2297 6.10327C 11.8074 6.22583 12.1299 6.70557 12.3091 6.97241L 12.3181 6.98584C 12.3413 7.02026 12.3616 7.05054 12.377 7.07593L 12.4309 7.16479C 12.5679 7.39136 12.6851 7.58521 12.8403 7.58618C 12.9753 7.58813 13.116 7.47778 13.1348 7.29468C 13.1553 7.10034 13.0469 6.94873 12.9275 6.78174L 12.925 6.77832L 12.9238 6.77661C 12.8813 6.71704 12.8376 6.65552 12.7981 6.5896L 12.7585 6.52319ZM 23.4077 6.71216C 23.6582 6.62427 23.9583 6.94604 23.8711 7.34448C 23.8262 7.54932 23.5664 7.62842 23.4077 7.51465C 23.2231 7.38135 23.1133 6.81592 23.4077 6.71216ZM 6.56616 7.53833C 6.55591 7.24927 6.34961 7.18652 6.16675 7.24707C 6.00732 7.2981 5.66406 7.73779 5.76636 8.04858C 5.80469 8.16553 5.93701 8.27271 6.10278 8.24365C 6.25488 8.21655 6.57446 7.75293 6.56616 7.53833ZM 5.43042 8.65723C 5.60205 8.61084 5.75586 8.70728 5.78882 8.85229C 5.83789 9.06909 5.71509 9.24536 5.61304 9.39209C 5.58447 9.43311 5.55762 9.47192 5.53638 9.50854C 5.27295 9.9646 5.17554 10.1499 4.92603 10.6514L 4.90552 10.6929C 4.81567 10.8765 4.70068 11.1118 4.52661 11.1138C 4.39331 11.115 4.25073 10.9763 4.23218 10.8462C 4.19507 10.6001 4.43774 10.1902 4.61646 9.88892C 4.66333 9.80981 4.70581 9.73804 4.73755 9.67871C 4.76953 9.61914 4.80469 9.54932 4.84229 9.47461C 5.00854 9.14307 5.22437 8.71387 5.43237 8.65723L 5.43042 8.65723ZM 11.7471 9.7522L 11.7668 9.7749C 12.3171 9.87891 12.2178 9.16187 11.9983 8.97241C 11.823 8.8208 11.5454 8.91919 11.5144 9.19116C 11.4851 9.45215 11.6238 9.61084 11.7471 9.7522Z"/>
<path id="path1_stroke" d="M 9.66162 0L 9.66162 -0.25L 8.72023 -0.25L 9.53759 0.217061L 9.66162 0ZM 10.0198 0L 10.0836 -0.241715L 10.0522 -0.25L 10.0198 -0.25L 10.0198 0ZM 9.66333 0.000976562L 9.70393 0.247658L 10.3988 0.133294L 9.78736 -0.216084L 9.66333 0.000976562ZM 8.03369 1.34033L 8.23713 1.48565L 8.23856 1.48362L 8.03369 1.34033ZM 8.02637 1.35059L 7.82289 1.20524L 7.81992 1.2096L 8.02637 1.35059ZM 8.01953 1.3606L 8.22516 1.50279L 8.22598 1.50159L 8.01953 1.3606ZM 8.00366 1.38354L 8.20827 1.52721L 8.20929 1.52573L 8.00366 1.38354ZM 7.99561 1.39502L 7.791 1.25136L 7.79085 1.25158L 7.99561 1.39502ZM 7.81055 1.65503L 7.60898 1.50714L 7.60867 1.50756L 7.81055 1.65503ZM 7.03491 2.80737L 7.245 2.94288L 7.24503 2.94284L 7.03491 2.80737ZM 6.82104 3.1377L 7.03033 3.27444L 7.03051 3.27416L 6.82104 3.1377ZM 6.25586 3.93115L 6.05529 3.78191L 6.05508 3.78219L 6.25586 3.93115ZM 6.24463 3.94629L 6.44463 4.09629L 6.4454 4.09525L 6.24463 3.94629ZM 6.24316 3.94824L 6.04316 3.79824L 6.0419 3.79994L 6.24316 3.94824ZM 6.23633 3.95752L 6.43673 4.10698L 6.43759 4.10582L 6.23633 3.95752ZM 5.78955 4.57275L 5.99535 4.71469L 5.99543 4.71458L 5.78955 4.57275ZM 5.10181 5.61938L 4.89131 5.48452L 4.89124 5.48462L 5.10181 5.61938ZM 4.82104 6.05566L 4.61135 5.91954L 4.61134 5.91956L 4.82104 6.05566ZM 1.80151 10.4651L 2.00521 10.61L 2.00591 10.609L 1.80151 10.4651ZM 1.79248 10.4778L 1.58878 10.3328L 1.58824 10.3336L 1.79248 10.4778ZM 1.78955 10.4819L 1.58531 10.3378L 1.58519 10.3379L 1.78955 10.4819ZM 0.799805 11.8914L 0.772894 12.1399L 0.920112 12.1558L 1.00484 12.0344L 0.799805 11.8914ZM 0 12.3528L -0.242814 12.2933L -0.25 12.3226L -0.25 12.3528L 0 12.3528ZM 0 12.5955L -0.25 12.5955L -0.25 12.6327L -0.239149 12.6683L 0 12.5955ZM 0.378906 13.033L 0.285015 13.2647L 0.330177 13.283L 0.378906 13.283L 0.378906 13.033ZM 29.7461 13.033L 29.7461 13.283L 29.7948 13.283L 29.84 13.2647L 29.7461 13.033ZM 30.125 12.5955L 30.3642 12.668L 30.375 12.6325L 30.375 12.5955L 30.125 12.5955ZM 30.125 12.3528L 30.375 12.3528L 30.375 12.325L 30.3689 12.298L 30.125 12.3528ZM 29.4517 11.8665L 29.2504 12.0148L 29.3199 12.1091L 29.4369 12.116L 29.4517 11.8665ZM 28.4202 10.3293L 28.6307 10.1946L 28.6307 10.1945L 28.4202 10.3293ZM 27.4514 8.87598L 27.6542 8.7298L 27.6542 8.72979L 27.4514 8.87598ZM 26.949 8.18896L 26.7475 8.33704L 26.7478 8.33735L 26.949 8.18896ZM 26.9219 8.1521L 26.7199 8.29947L 26.7204 8.30017L 26.9219 8.1521ZM 26.9153 8.14307L 27.1172 7.9957L 27.1165 7.99474L 26.9153 8.14307ZM 25.3884 5.93433L 25.6021 5.80455L 25.6021 5.80448L 25.3884 5.93433ZM 24.2673 4.28882L 24.4703 4.14272L 24.4673 4.13882L 24.2673 4.28882ZM 24.2637 4.28394L 24.0608 4.43013L 24.0637 4.43394L 24.2637 4.28394ZM 23.3459 2.96777L 23.1367 3.10451L 23.1367 3.10453L 23.3459 2.96777ZM 22.9341 2.29858L 23.1487 2.17036L 23.1487 2.17029L 22.9341 2.29858ZM 20.5881 0.000976562L 20.6421 -0.243133L 20.6154 -0.249023L 20.5881 -0.249023L 20.5881 0.000976562ZM 20.23 0.000976562L 20.23 -0.249023L 20.2052 -0.249023L 20.1808 -0.244145L 20.23 0.000976562ZM 19.2407 0.536133L 19.4139 0.716466L 19.414 0.716299L 19.2407 0.536133ZM 18.3738 1.64551L 18.5793 1.78781L 18.5803 1.78642L 18.3738 1.64551ZM 18.3716 1.64868L 18.166 1.50638L 18.165 1.50793L 18.3716 1.64868ZM 18.167 1.94629L 17.9622 1.80292L 17.9621 1.80297L 18.167 1.94629ZM 17.6304 2.77222L 17.8415 2.90618L 17.8423 2.90483L 17.6304 2.77222ZM 17.6223 2.78491L 17.8332 2.91913L 17.8334 2.91887L 17.6223 2.78491ZM 17.6206 2.7876L 17.4097 2.65337L 17.4083 2.65561L 17.6206 2.7876ZM 17.615 2.79663L 17.827 2.92917L 17.8273 2.92861L 17.615 2.79663ZM 17.1775 3.47778L 16.9705 3.33762L 16.9704 3.33769L 17.1775 3.47778ZM 16.4351 4.53662L 16.2316 4.39131L 16.2313 4.39182L 16.4351 4.53662ZM 16.4219 4.55518L 16.6253 4.70046L 16.6257 4.69998L 16.4219 4.55518ZM 15.1353 6.46826L 14.9165 6.58937L 15.1278 6.97094L 15.3503 6.59577L 15.1353 6.46826ZM 13.8577 4.56079L 13.6559 4.70842L 13.656 4.70848L 13.8577 4.56079ZM 12.9878 3.33154L 12.7794 3.46959L 12.7794 3.46964L 12.9878 3.33154ZM 12.478 2.49609L 12.6937 2.36973L 12.6937 2.36964L 12.478 2.49609ZM 15.2402 8.63232L 15.4745 8.54496L 15.4744 8.54475L 15.2402 8.63232ZM 14.5876 7.4895L 14.3847 7.63549L 14.3851 7.63598L 14.5876 7.4895ZM 15.3875 10.1648L 15.2791 10.3901L 15.5323 10.5119L 15.6238 10.2462L 15.3875 10.1648ZM 14.7097 9.34399L 14.4799 9.44247L 14.4836 9.45093L 14.4878 9.4591L 14.7097 9.34399ZM 14.709 9.34229L 14.9388 9.2438L 14.935 9.23507L 14.9306 9.22664L 14.709 9.34229ZM 14.7061 9.33667L 14.4844 9.45224L 14.4844 9.45231L 14.7061 9.33667ZM 14.5454 9.04614L 14.333 9.17794L 14.3335 9.1788L 14.5454 9.04614ZM 14.332 8.7312L 14.1272 8.87457L 14.1274 8.87486L 14.332 8.7312ZM 14.3286 8.72632L 14.5334 8.58295L 14.5331 8.58252L 14.3286 8.72632ZM 14.146 8.46216L 13.9382 8.60109L 13.9382 8.60109L 14.146 8.46216ZM 14.0571 8.31787L 14.2723 8.19065L 14.2722 8.19048L 14.0571 8.31787ZM 13.6826 7.95215L 13.6634 8.20141L 13.6635 8.20142L 13.6826 7.95215ZM 13.3667 8.21973L 13.1183 8.19131L 13.1183 8.19177L 13.3667 8.21973ZM 13.6765 8.89307L 13.8765 8.74306L 13.8753 8.7415L 13.6765 8.89307ZM 13.6868 8.90674L 13.4868 9.05675L 13.4886 9.05917L 13.6868 8.90674ZM 13.6917 8.91309L 13.8917 8.76307L 13.8898 8.76066L 13.6917 8.91309ZM 13.6975 8.9209L 13.4975 9.0709L 13.4983 9.07193L 13.6975 8.9209ZM 13.7878 9.04614L 13.5775 9.18133L 13.5784 9.18257L 13.7878 9.04614ZM 14.7349 10.5776L 14.5168 10.6999L 14.5172 10.7006L 14.7349 10.5776ZM 14.8147 10.7119L 15.0291 10.5833L 15.0283 10.582L 14.8147 10.7119ZM 14.8257 10.7302L 14.6113 10.8589L 14.6123 10.8605L 14.8257 10.7302ZM 15.093 11.4775L 14.8452 11.4447L 14.8451 11.4455L 15.093 11.4775ZM 14.4619 11.8425L 14.349 12.0656L 14.3494 12.0658L 14.4619 11.8425ZM 14.1682 11.2478L 13.9304 11.3249L 13.9305 11.3251L 14.1682 11.2478ZM 14.0625 10.9426L 13.83 11.0345L 13.8301 11.0347L 14.0625 10.9426ZM 14.0149 10.814L 14.2503 10.7296L 14.2492 10.7269L 14.0149 10.814ZM 14.0117 10.8054L 13.7763 10.8897L 13.7774 10.8925L 14.0117 10.8054ZM 14.0034 10.7822L 13.7678 10.8657L 13.768 10.8665L 14.0034 10.7822ZM 13.5571 10.1648L 13.5434 10.4144L 13.5437 10.4144L 13.5571 10.1648ZM 13.4614 11.0649L 13.2337 11.1682L 13.234 11.1687L 13.4614 11.0649ZM 13.5149 11.1863L 13.7469 11.0931L 13.7469 11.0931L 13.5149 11.1863ZM 13.5903 11.3689L 13.8208 11.2721L 13.8207 11.2719L 13.5903 11.3689ZM 13.7671 11.9153L 13.7671 12.1653L 14.0618 12.1653L 14.0137 11.8745L 13.7671 11.9153ZM 2.125 11.9153L 1.88292 11.9777L 1.9313 12.1653L 2.125 12.1653L 2.125 11.9153ZM 2.23242 11.6677L 2.05286 11.4938L 2.05269 11.494L 2.23242 11.6677ZM 2.29297 11.5989L 2.49685 11.7436L 2.49725 11.743L 2.29297 11.5989ZM 5.74561 6.49316L 5.95588 6.62839L 5.95592 6.62832L 5.74561 6.49316ZM 6.64233 5.20215L 6.84506 5.34845L 6.84634 5.34665L 6.64233 5.20215ZM 6.65063 5.19043L 6.45056 5.04037L 6.44663 5.04593L 6.65063 5.19043ZM 6.65283 5.1875L 6.85287 5.33753L 6.85558 5.33376L 6.65283 5.1875ZM 7.61938 3.79395L 7.40914 3.65868L 7.40907 3.65879L 7.61938 3.79395ZM 8.54565 2.43262L 8.34565 2.28262L 8.34552 2.2828L 8.54565 2.43262ZM 8.7749 2.08521L 8.57147 1.9399L 8.56695 1.94622L 8.56283 1.95281L 8.7749 2.08521ZM 8.77612 2.0835L 8.97956 2.22881L 8.98402 2.22255L 8.98809 2.21604L 8.77612 2.0835ZM 10.125 1.19238L 10.0236 1.42088L 10.0239 1.42101L 10.125 1.19238ZM 11.4194 2.76416L 11.6363 2.63984L 11.6363 2.63982L 11.4194 2.76416ZM 11.6826 3.21021L 11.8942 3.07702L 11.8941 3.07693L 11.6826 3.21021ZM 12.9636 5.07324L 13.1665 4.92711L 13.1665 4.92709L 12.9636 5.07324ZM 12.98 5.09595L 13.1829 4.94989L 13.1828 4.94981L 12.98 5.09595ZM 13.8928 6.39575L 13.6851 6.53487L 13.6852 6.53495L 13.8928 6.39575ZM 14.1929 6.87476L 13.9788 7.00395L 13.9791 7.00433L 14.1929 6.87476ZM 14.1978 6.88281L 13.984 7.01239L 13.984 7.01247L 14.1978 6.88281ZM 24.209 10.5049L 24.1936 10.7544L 24.1938 10.7544L 24.209 10.5049ZM 23.8931 10.7961L 24.1215 10.8977L 24.1385 10.8596L 24.1421 10.818L 23.8931 10.7961ZM 24.6611 11.1819L 24.4217 11.2539L 24.4218 11.2541L 24.6611 11.1819ZM 25.2827 11.8911L 25.3393 12.1346L 25.3394 12.1346L 25.2827 11.8911ZM 25.4514 10.8948L 25.2157 10.9781L 25.2157 10.9782L 25.4514 10.8948ZM 24.9568 9.96313L 25.1696 9.83199L 25.1693 9.83149L 24.9568 9.96313ZM 24.9365 9.93042L 24.7239 10.0618L 24.724 10.0621L 24.9365 9.93042ZM 24.9231 9.90869L 24.7043 10.0302L 24.7104 10.0401L 24.9231 9.90869ZM 24.9219 9.90649L 25.1406 9.78496L 25.1348 9.77555L 24.9219 9.90649ZM 24.7988 9.70337L 25.0141 9.57627L 25.0135 9.57517L 24.7988 9.70337ZM 24.6489 9.48193L 24.4437 9.6247L 24.4444 9.62567L 24.6489 9.48193ZM 24.6411 9.4707L 24.8465 9.32785L 24.8411 9.3207L 24.6411 9.4707ZM 24.6396 9.46875L 24.4362 9.6141L 24.4396 9.61875L 24.6396 9.46875ZM 24.6348 9.46191L 24.4307 9.60628L 24.4313 9.60722L 24.6348 9.46191ZM 24.1462 8.51196L 24.3946 8.54026L 24.3946 8.54013L 24.1462 8.51196ZM 24.4199 8.24438L 24.4125 7.99449L 24.4114 7.99453L 24.4199 8.24438ZM 25.1072 9.02515L 25.3275 8.90699L 25.3273 8.90669L 25.1072 9.02515ZM 25.2405 9.26587L 25.4554 9.13809L 25.4553 9.13801L 25.2405 9.26587ZM 25.3914 9.52808L 25.1739 9.65146L 25.1743 9.65211L 25.3914 9.52808ZM 25.3923 9.52979L 25.1753 9.65382L 25.1757 9.65453L 25.3923 9.52979ZM 25.397 9.53784L 25.6139 9.41352L 25.6136 9.4131L 25.397 9.53784ZM 25.4084 9.55786L 25.6257 9.43422L 25.6253 9.43354L 25.4084 9.55786ZM 25.5771 9.84961L 25.3625 9.9778L 25.363 9.97857L 25.5771 9.84961ZM 25.5908 9.87231L 25.8054 9.74402L 25.805 9.74335L 25.5908 9.87231ZM 26.061 10.2871L 26.0098 10.0424L 26.0089 10.0426L 26.061 10.2871ZM 26.1877 8.97437L 26.4202 8.88227L 26.4202 8.88224L 26.1877 8.97437ZM 25.7185 8.26782L 25.9154 8.11372L 25.9151 8.11334L 25.7185 8.26782ZM 25.5144 8.00171L 25.7161 7.85399L 25.7159 7.85375L 25.5144 8.00171ZM 24.8616 7.00537L 24.6486 7.13622L 24.6488 7.13657L 24.8616 7.00537ZM 23.5073 5.02075L 23.7104 4.87498L 23.7095 4.87371L 23.5073 5.02075ZM 23.5054 5.01807L 23.7076 4.87102L 23.7066 4.86977L 23.5054 5.01807ZM 23.4985 5.00879L 23.2959 5.15517L 23.2973 5.15709L 23.4985 5.00879ZM 23.4954 5.00439L 23.2922 5.15012L 23.2927 5.15077L 23.4954 5.00439ZM 23.4873 4.99316L 23.6904 4.84744L 23.69 4.84679L 23.4873 4.99316ZM 23.4841 4.98877L 23.281 5.1345L 23.2815 5.13514L 23.4841 4.98877ZM 23.4761 4.97754L 23.2729 5.12314L 23.2729 5.12327L 23.4761 4.97754ZM 22.1882 3.09106L 22.4011 2.95991L 22.4011 2.9599L 22.1882 3.09106ZM 21.9968 2.77002L 21.7798 2.89406L 21.7811 2.8964L 21.9968 2.77002ZM 21.9949 2.7666L 22.2119 2.64256L 22.2107 2.64038L 21.9949 2.7666ZM 21.9873 2.75366L 21.7712 2.87939L 21.7715 2.87988L 21.9873 2.75366ZM 21.9795 2.74023L 22.1956 2.61451L 22.1955 2.61435L 21.9795 2.74023ZM 21.9563 2.70044L 21.7403 2.8263L 21.7403 2.82632L 21.9563 2.70044ZM 20.7561 1.21826L 20.8699 0.99564L 20.8698 0.995621L 20.7561 1.21826ZM 19.2407 2.23535L 19.0295 2.10161L 19.0282 2.10362L 19.2407 2.23535ZM 19.2332 2.24756L 19.4442 2.38155L 19.4456 2.37929L 19.2332 2.24756ZM 19.0298 2.55591L 19.2326 2.70208L 19.2327 2.70197L 19.0298 2.55591ZM 18.3105 3.62036L 18.5194 3.75777L 18.5201 3.7567L 18.3105 3.62036ZM 18.3044 3.62964L 18.0956 3.49223L 18.0949 3.49336L 18.3044 3.62964ZM 17.9561 4.16113L 17.7478 4.02277L 17.7478 4.02278L 17.9561 4.16113ZM 17.4055 4.92407L 17.207 4.77213L 17.2069 4.77226L 17.4055 4.92407ZM 16.8401 5.71753L 16.6299 5.58219L 16.6298 5.58225L 16.8401 5.71753ZM 16.5217 6.22559L 16.7337 6.35809L 16.7343 6.35721L 16.5217 6.22559ZM 16.5156 6.23535L 16.3036 6.10284L 16.3022 6.1052L 16.5156 6.23535ZM 16.5095 6.24536L 16.7222 6.37674L 16.723 6.37551L 16.5095 6.24536ZM 16.061 6.95776L 16.2697 7.09541L 16.2703 7.09456L 16.061 6.95776ZM 15.9666 7.09277L 16.1687 7.23982L 16.1701 7.23799L 15.9666 7.09277ZM 15.9626 7.09814L 15.7605 6.9511L 15.7596 6.95235L 15.9626 7.09814ZM 15.7871 7.37134L 16.0369 7.36003L 16.0368 7.35988L 15.7871 7.37134ZM 16.1042 7.78613L 16.2964 7.62602L 16.2915 7.6205L 16.1042 7.78613ZM 16.1055 7.7876L 15.9133 7.94772L 15.9186 7.95363L 16.1055 7.7876ZM 16.2083 7.90649L 16.0108 8.05983L 16.011 8.06004L 16.2083 7.90649ZM 17.1929 9.40381L 16.9784 9.53232L 16.9785 9.53243L 17.1929 9.40381ZM 17.1958 9.40869L 16.9814 9.53732L 16.9815 9.53738L 17.1958 9.40869ZM 17.3447 9.65674L 17.1304 9.78542L 17.1307 9.78597L 17.3447 9.65674ZM 18.1746 10.8721L 18.3771 10.7255L 18.3771 10.7255L 18.1746 10.8721ZM 18.5234 11.3584L 18.7278 11.2145L 18.7277 11.2143L 18.5234 11.3584ZM 18.6582 11.5676L 18.8711 11.4366L 18.871 11.4364L 18.6582 11.5676ZM 18.9446 11.9172L 19.026 11.6809L 19.0257 11.6808L 18.9446 11.9172ZM 19.3589 11.9294L 19.3399 11.6802L 19.3399 11.6802L 19.3589 11.9294ZM 24.271 11.9172L 24.271 12.1672L 24.5115 12.1672L 24.5208 11.9269L 24.271 11.9172ZM 24.075 11.3472L 24.2918 11.2227L 24.2916 11.2225L 24.075 11.3472ZM 23.8921 10.7983L 23.6636 10.6968L 23.6468 10.7348L 23.6431 10.7761L 23.8921 10.7983ZM 12.2297 6.10327L 12.2994 6.34337L 12.2997 6.3433L 12.2297 6.10327ZM 12.7585 6.52319L 12.5436 6.6509L 12.5438 6.65112L 12.7585 6.52319ZM 12.3091 6.97241L 12.1015 7.11179L 12.1017 7.11196L 12.3091 6.97241ZM 12.3181 6.98584L 12.1107 7.12538L 12.1108 7.12553L 12.3181 6.98584ZM 12.377 7.07593L 12.1631 7.20546L 12.1633 7.20567L 12.377 7.07593ZM 12.4309 7.16479L 12.6449 7.03546L 12.6446 7.03505L 12.4309 7.16479ZM 12.8403 7.58618L 12.8439 7.3362L 12.8419 7.33619L 12.8403 7.58618ZM 13.1348 7.29468L 12.8861 7.26844L 12.8861 7.26915L 13.1348 7.29468ZM 12.9275 6.78174L 12.7241 6.92705L 12.7241 6.92713L 12.9275 6.78174ZM 12.9238 6.77661L 12.7203 6.92176L 12.7204 6.92192L 12.9238 6.77661ZM 12.7981 6.5896L 12.5833 6.71753L 12.5837 6.71822L 12.7981 6.5896ZM 23.8711 7.34448L 24.1153 7.39804L 24.1153 7.39791L 23.8711 7.34448ZM 23.4077 6.71216L 23.3249 6.47626L 23.3246 6.47637L 23.4077 6.71216ZM 23.4077 7.51465L 23.2613 7.71732L 23.2621 7.71783L 23.4077 7.51465ZM 6.16675 7.24707L 6.24296 7.48518L 6.24533 7.4844L 6.16675 7.24707ZM 6.56616 7.53833L 6.31632 7.54719L 6.31635 7.54799L 6.56616 7.53833ZM 5.76636 8.04858L 6.00392 7.97072L 6.00383 7.97042L 5.76636 8.04858ZM 6.10278 8.24365L 6.14594 8.4899L 6.14664 8.48978L 6.10278 8.24365ZM 5.78882 8.85229L 6.03265 8.7971L 6.0326 8.79689L 5.78882 8.85229ZM 5.43042 8.65723L 5.36519 8.41589L 5.43042 8.90723L 5.43042 8.65723ZM 5.61304 9.39209L 5.81819 9.53496L 5.81828 9.53484L 5.61304 9.39209ZM 5.53638 9.50854L 5.32012 9.38311L 5.3199 9.3835L 5.53638 9.50854ZM 4.92603 10.6514L 4.7022 10.54L 4.70189 10.5406L 4.92603 10.6514ZM 4.90552 10.6929L 4.68138 10.5821L 4.68096 10.583L 4.90552 10.6929ZM 4.52661 11.1138L 4.5289 11.3638L 4.52942 11.3638L 4.52661 11.1138ZM 4.23218 10.8462L 4.47968 10.8109L 4.47938 10.8089L 4.23218 10.8462ZM 4.61646 9.88892L 4.83147 10.0165L 4.83153 10.0164L 4.61646 9.88892ZM 4.73755 9.67871L 4.51729 9.56046L 4.51711 9.56078L 4.73755 9.67871ZM 4.84229 9.47461L 5.0656 9.587L 5.06576 9.58668L 4.84229 9.47461ZM 5.43237 8.65723L 5.49806 8.89844L 5.43237 8.40723L 5.43237 8.65723ZM 11.7668 9.7749L 11.5783 9.9391L 11.6353 10.0045L 11.7204 10.0206L 11.7668 9.7749ZM 11.7471 9.7522L 11.9356 9.588L 11.9355 9.58787L 11.7471 9.7522ZM 11.9983 8.97241L 11.8347 9.1615L 11.8349 9.16166L 11.9983 8.97241ZM 11.5144 9.19116L 11.266 9.16284L 11.266 9.16327L 11.5144 9.19116ZM 9.66162 0.25L 10.0198 0.25L 10.0198 -0.25L 9.66162 -0.25L 9.66162 0.25ZM 9.78736 -0.216084L 9.78566 -0.217061L 9.53759 0.217061L 9.5393 0.218037L 9.78736 -0.216084ZM 8.23856 1.48362C 8.68571 0.844284 9.04026 0.356891 9.70393 0.247658L 9.62273 -0.245705C 8.72 -0.0971254 8.25423 0.588821 7.82883 1.19705L 8.23856 1.48362ZM 8.2298 1.4959L 8.23712 1.48564L 7.83026 1.19502L 7.82293 1.20528L 8.2298 1.4959ZM 8.22598 1.50159L 8.23282 1.49158L 7.81992 1.2096L 7.81308 1.21961L 8.22598 1.50159ZM 8.20929 1.52573L 8.22516 1.50278L 7.8139 1.21841L 7.79804 1.24136L 8.20929 1.52573ZM 8.20021 1.53868L 8.20827 1.5272L 7.79906 1.23989L 7.791 1.25136L 8.20021 1.53868ZM 8.01211 1.80292C 8.07692 1.71456 8.13979 1.62493 8.20036 1.53846L 7.79085 1.25158C 7.73033 1.33796 7.67063 1.42313 7.60898 1.50714L 8.01211 1.80292ZM 7.24503 2.94284C 7.48646 2.56837 7.73999 2.17526 8.01242 1.8025L 7.60867 1.50756C 7.32788 1.89212 7.06628 2.29735 6.8248 2.67191L 7.24503 2.94284ZM 7.03051 3.27416C 7.1006 3.16658 7.1722 3.05575 7.245 2.94288L 6.82482 2.67186C 6.75212 2.78458 6.68114 2.89446 6.61158 3.00123L 7.03051 3.27416ZM 6.45643 4.08039C 6.64885 3.82179 6.84618 3.55608 7.03033 3.27444L 6.61176 3.00095C 6.43605 3.27009 6.24763 3.52343 6.05529 3.78191L 6.45643 4.08039ZM 6.45102 4.08768L 6.45663 4.08011L 6.05508 3.78219L 6.04947 3.78976L 6.45102 4.08768ZM 6.4454 4.09525L 6.45102 4.08768L 6.04947 3.78976L 6.04385 3.79733L 6.4454 4.09525ZM 6.44316 4.09824L 6.44463 4.09629L 6.04463 3.79629L 6.04316 3.79824L 6.44316 4.09824ZM 6.43759 4.10582L 6.44443 4.09654L 6.0419 3.79994L 6.03506 3.80922L 6.43759 4.10582ZM 5.99543 4.71458C 6.13657 4.50962 6.28492 4.31053 6.43673 4.10698L 6.03593 3.80806C 5.88403 4.01173 5.73013 4.2184 5.58367 4.43093L 5.99543 4.71458ZM 5.31231 5.75425C 5.53518 5.4064 5.75893 5.05741 5.99535 4.71469L 5.58375 4.43081C 5.34263 4.78048 5.11423 5.13657 4.89131 5.48452L 5.31231 5.75425ZM 5.03074 6.19179C 5.12461 6.04718 5.21855 5.90075 5.31237 5.75415L 4.89124 5.48462C 4.79756 5.63099 4.70449 5.77606 4.61135 5.91954L 5.03074 6.19179ZM 2.00591 10.609C 2.99908 9.19888 4.02057 7.7482 5.03075 6.19176L 4.61134 5.91956C 3.60638 7.46811 2.59028 8.91098 1.59712 10.3211L 2.00591 10.609ZM 1.99618 10.6227L 2.00521 10.61L 1.59782 10.3201L 1.58878 10.3328L 1.99618 10.6227ZM 1.99379 10.6261L 1.99672 10.622L 1.58824 10.3336L 1.58531 10.3378L 1.99379 10.6261ZM 1.00484 12.0344C 1.33069 11.5673 1.66067 11.0988 1.99391 10.6259L 1.58519 10.3379C 1.25192 10.8109 0.921263 11.2803 0.594771 11.7483L 1.00484 12.0344ZM 0.242814 12.4123C 0.273688 12.2863 0.328117 12.2229 0.391856 12.1866C 0.463503 12.1457 0.58237 12.1193 0.772894 12.1399L 0.826716 11.6428C 0.577542 11.6158 0.340574 11.6403 0.144277 11.7522C -0.0599284 11.8685 -0.185554 12.0596 -0.242814 12.2933L 0.242814 12.4123ZM 0.25 12.5955L 0.25 12.3528L -0.25 12.3528L -0.25 12.5955L 0.25 12.5955ZM 0.472797 12.8013C 0.364969 12.7576 0.285852 12.6759 0.239149 12.5226L -0.239149 12.6683C -0.154504 12.9462 0.0193079 13.157 0.285015 13.2647L 0.472797 12.8013ZM 29.7461 12.783L 0.378906 12.783L 0.378906 13.283L 29.7461 13.283L 29.7461 12.783ZM 29.8858 12.5229C 29.8392 12.6765 29.7604 12.7574 29.6522 12.8013L 29.84 13.2647C 30.1053 13.1571 30.2795 12.9475 30.3642 12.668L 29.8858 12.5229ZM 29.875 12.3528L 29.875 12.5955L 30.375 12.5955L 30.375 12.3528L 29.875 12.3528ZM 29.4369 12.116C 29.5858 12.1248 29.6863 12.1565 29.7513 12.2C 29.8091 12.2387 29.8564 12.2978 29.8811 12.4076L 30.3689 12.298C 30.3186 12.0742 30.2028 11.9005 30.0293 11.7845C 29.8632 11.6733 29.6645 11.6286 29.4664 11.6169L 29.4369 12.116ZM 28.2096 10.4641C 28.5458 10.9895 28.8841 11.5174 29.2504 12.0148L 29.6529 11.7182C 29.2961 11.2341 28.9669 10.7199 28.6307 10.1946L 28.2096 10.4641ZM 27.2486 9.02215C 27.5862 9.4904 27.8971 9.97612 28.2096 10.4642L 28.6307 10.1945C 28.3182 9.7065 27.9997 9.2093 27.6542 8.7298L 27.2486 9.02215ZM 26.7478 8.33735C 26.9164 8.566 27.0836 8.79317 27.2486 9.02216L 27.6542 8.72979C 27.4877 8.49882 27.319 8.26945 27.1502 8.04058L 26.7478 8.33735ZM 26.7204 8.30017L 26.7475 8.33704L 27.1504 8.04089L 27.1233 8.00403L 26.7204 8.30017ZM 26.7133 8.29043L 26.7199 8.29947L 27.1238 8.00473L 27.1172 7.9957L 26.7133 8.29043ZM 25.1747 6.0641C 25.6532 6.85133 26.1884 7.57824 26.714 8.2914L 27.1165 7.99474C 26.5909 7.28162 26.0685 6.57299 25.6021 5.80455L 25.1747 6.0641ZM 24.0644 4.43489C 24.4568 4.97979 24.8365 5.50717 25.1748 6.06417L 25.6021 5.80448C 25.2534 5.23111 24.8626 4.68769 24.4702 4.14274L 24.0644 4.43489ZM 24.0637 4.43394L 24.0673 4.43882L 24.4673 4.13882L 24.4637 4.13394L 24.0637 4.43394ZM 23.1367 3.10453C 23.4387 3.56654 23.7535 4.00358 24.0609 4.4301L 24.4665 4.13777C 24.1591 3.71127 23.8509 3.28356 23.5552 2.83101L 23.1367 3.10453ZM 22.7195 2.4268C 22.8565 2.6561 22.9946 2.88695 23.1367 3.10451L 23.5552 2.83104C 23.4185 2.62184 23.2856 2.39956 23.1487 2.17036L 22.7195 2.4268ZM 20.5342 0.245086C 21.0444 0.352188 21.4165 0.633799 21.7703 1.0341C 22.1274 1.43449 22.4209 1.92749 22.7195 2.42688L 23.1487 2.17029C 22.8501 1.6709 22.5307 1.13887 22.1441 0.702049C 21.7543 0.265127 21.252 -0.102676 20.6421 -0.243133L 20.5342 0.245086ZM 20.23 0.250977L 20.5881 0.250977L 20.5881 -0.249023L 20.23 -0.249023L 20.23 0.250977ZM 19.414 0.716299C 19.656 0.481334 19.9365 0.311091 20.2791 0.246098L 20.1808 -0.244145C 19.7564 -0.15533 19.3523 0.0840954 19.0674 0.355966L 19.414 0.716299ZM 18.5803 1.78642C 18.852 1.38824 19.113 1.00354 19.4139 0.716466L 19.0676 0.3558C 18.7313 0.680544 18.439 1.10639 18.1673 1.50459L 18.5803 1.78642ZM 18.5771 1.79098L 18.5793 1.78781L 18.1682 1.50321L 18.166 1.50638L 18.5771 1.79098ZM 18.3718 2.08965C 18.4411 1.9907 18.5098 1.88979 18.5782 1.78944L 18.165 1.50793C 18.0966 1.60826 18.0296 1.70656 17.9622 1.80292L 18.3718 2.08965ZM 17.8423 2.90483C 18.0166 2.62629 18.1889 2.35093 18.3718 2.0896L 17.9621 1.80297C 17.772 2.07486 17.5928 2.36101 17.4184 2.6396L 17.8423 2.90483ZM 17.8334 2.91887L 17.8415 2.90617L 17.4193 2.63826L 17.4112 2.65096L 17.8334 2.91887ZM 17.8315 2.92182L 17.8332 2.91913L 17.4114 2.65069L 17.4097 2.65338L 17.8315 2.92182ZM 17.8273 2.92861L 17.8329 2.91958L 17.4083 2.65561L 17.4027 2.66465L 17.8273 2.92861ZM 17.3845 3.61794C 17.5354 3.395 17.6819 3.16119 17.827 2.92917L 17.403 2.66409C 17.258 2.89594 17.1165 3.12209 16.9705 3.33762L 17.3845 3.61794ZM 16.6385 4.68193C 16.8863 4.33496 17.1382 3.98202 17.3846 3.61787L 16.9704 3.33769C 16.7276 3.69669 16.4794 4.04443 16.2316 4.39131L 16.6385 4.68193ZM 16.6257 4.69998L 16.6389 4.68142L 16.2313 4.39182L 16.2181 4.41037L 16.6257 4.69998ZM 15.3503 6.59577C 15.7334 5.94925 16.1722 5.33497 16.6253 4.70046L 16.2184 4.40989C 15.7653 5.04442 15.3145 5.67624 14.9202 6.34076L 15.3503 6.59577ZM 13.656 4.70848C 14.1171 5.33833 14.5562 5.93761 14.9165 6.58937L 15.354 6.34715C 14.9775 5.66835 14.5206 5.04302 14.0594 4.4131L 13.656 4.70848ZM 12.7794 3.46964C 13.0666 3.90291 13.3656 4.31169 13.6559 4.70842L 14.0594 4.41317C 13.7691 4.01644 13.4769 3.61711 13.1962 3.19344L 12.7794 3.46964ZM 12.2623 2.62246C 12.4316 2.91135 12.6019 3.20142 12.7794 3.46959L 13.1962 3.1935C 13.0261 2.93676 12.8629 2.65847 12.6937 2.36973L 12.2623 2.62246ZM 9.95595 0.241715C 11.0149 0.521339 11.6246 1.53488 12.2624 2.62255L 12.6937 2.36964C 12.0849 1.33133 11.3786 0.100243 10.0836 -0.241715L 9.95595 0.241715ZM 15.4744 8.54475C 15.2947 8.06926 15.0315 7.67682 14.7902 7.34302L 14.3851 7.63598C 14.6218 7.96332 14.8503 8.29842 15.0061 8.7199L 15.4744 8.54475ZM 15.6238 10.2462C 15.8452 9.60361 15.6363 8.97888 15.4745 8.54496L 15.006 8.71969C 15.1689 9.15638 15.3087 9.62588 15.1511 10.0834L 15.6238 10.2462ZM 14.4878 9.4591C 14.642 9.75643 14.8555 10.1863 15.2791 10.3901L 15.4958 9.93951C 15.2485 9.82054 15.1031 9.55948 14.9316 9.22889L 14.4878 9.4591ZM 14.4792 9.44077L 14.4799 9.44247L 14.9395 9.24551L 14.9388 9.2438L 14.4792 9.44077ZM 14.4844 9.45231L 14.4873 9.45793L 14.9306 9.22664L 14.9277 9.22103L 14.4844 9.45231ZM 14.3335 9.1788C 14.3836 9.25845 14.4306 9.34917 14.4844 9.45224L 14.9277 9.2211C 14.874 9.11811 14.8176 9.01011 14.7573 8.91348L 14.3335 9.1788ZM 14.1274 8.87486C 14.2079 8.98952 14.2789 9.09058 14.333 9.17794L 14.7578 8.91434C 14.6962 8.81518 14.6173 8.70237 14.5366 8.58754L 14.1274 8.87486ZM 14.1238 8.86968L 14.1272 8.87457L 14.5368 8.58784L 14.5334 8.58295L 14.1238 8.86968ZM 13.9382 8.60109C 14.0004 8.69412 14.0645 8.78541 14.1241 8.87012L 14.5331 8.58252C 14.4735 8.49779 14.4127 8.41135 14.3538 8.32323L 13.9382 8.60109ZM 13.8419 8.44509C 13.8713 8.49472 13.9039 8.5497 13.9382 8.60109L 14.3538 8.32323C 14.327 8.28331 14.3016 8.24014 14.2723 8.19065L 13.8419 8.44509ZM 13.6635 8.20142C 13.6542 8.20071 13.6664 8.19498 13.7055 8.23924C 13.7466 8.28587 13.7867 8.35187 13.842 8.44526L 14.2722 8.19048C 14.2201 8.10249 14.1549 7.99453 14.0802 7.90828C 13.9995 7.81686 13.8765 7.71629 13.7017 7.70288L 13.6635 8.20142ZM 13.6151 8.24815C 13.6177 8.22544 13.6228 8.21442 13.6249 8.21066C 13.626 8.20863 13.6268 8.20769 13.627 8.20739C 13.6273 8.20708 13.6275 8.2069 13.6278 8.2067C 13.6286 8.2061 13.6392 8.19954 13.6634 8.20141L 13.7019 7.70289C 13.5837 7.69377 13.4481 7.71858 13.3324 7.80331C 13.2114 7.89187 13.137 8.02795 13.1183 8.19131L 13.6151 8.24815ZM 13.8753 8.7415C 13.8018 8.645 13.7289 8.5506 13.6765 8.45208C 13.6238 8.3548 13.6105 8.28928 13.6151 8.24768L 13.1183 8.19177C 13.0968 8.38235 13.1647 8.55694 13.2367 8.69001C 13.3089 8.82184 13.404 8.94802 13.4777 9.04463L 13.8753 8.7415ZM 13.8831 8.75186L 13.8765 8.74307L 13.4765 9.04307L 13.4831 9.05186L 13.8831 8.75186ZM 13.8868 8.75674L 13.8831 8.75186L 13.4831 9.05186L 13.4868 9.05674L 13.8868 8.75674ZM 13.8898 8.76066L 13.8849 8.75431L 13.4886 9.05917L 13.4935 9.06551L 13.8898 8.76066ZM 13.8975 8.7709L 13.8917 8.76309L 13.4917 9.06309L 13.4975 9.0709L 13.8975 8.7709ZM 13.9981 8.91095C 13.9689 8.86576 13.9315 8.8157 13.8967 8.76987L 13.4983 9.07193C 13.5324 9.11691 13.5585 9.15133 13.5775 9.18133L 13.9981 8.91095ZM 14.9529 10.4553C 14.6432 9.90346 14.3275 9.41672 13.9973 8.90971L 13.5784 9.18257C 13.9083 9.68923 14.2152 10.162 14.5168 10.6999L 14.9529 10.4553ZM 15.0283 10.582C 15.0002 10.5358 14.9749 10.4944 14.9525 10.4547L 14.5172 10.7006C 14.5436 10.7473 14.5731 10.7957 14.6011 10.8419L 15.0283 10.582ZM 15.0401 10.6016L 15.0291 10.5833L 14.6003 10.8405L 14.6113 10.8588L 15.0401 10.6016ZM 15.3408 11.5104C 15.3595 11.3371 15.3156 11.1429 15.2551 10.9979C 15.1939 10.855 15.1096 10.7156 15.0391 10.6L 14.6123 10.8605C 14.6828 10.976 14.7491 11.0833 14.7947 11.1928C 14.841 11.3002 14.8602 11.3641 14.8452 11.4447L 15.3408 11.5104ZM 14.3494 12.0658C 14.5918 12.188 14.8375 12.1369 15.0145 12.0186C 15.184 11.9053 15.3143 11.7163 15.341 11.5095L 14.8451 11.4455C 14.839 11.4922 14.801 11.5599 14.7367 11.6029C 14.6799 11.6408 14.6265 11.6455 14.5745 11.6193L 14.3494 12.0658ZM 13.9305 11.3251C 13.9736 11.4576 14.0212 11.603 14.0736 11.7226C 14.1187 11.8249 14.2001 11.9902 14.349 12.0656L 14.5748 11.6195C 14.5972 11.6308 14.5978 11.6402 14.5825 11.6182C 14.5648 11.5936 14.5514 11.5673 14.5311 11.5208C 14.4882 11.4245 14.449 11.3029 14.4059 11.1705L 13.9305 11.3251ZM 13.8301 11.0347C 13.8637 11.1192 13.8958 11.2181 13.9304 11.3249L 14.406 11.1707C 14.3713 11.0636 14.3341 10.9496 14.2949 10.8505L 13.8301 11.0347ZM 13.7795 10.8983C 13.7959 10.9441 13.813 10.9913 13.83 11.0345L 14.295 10.8508C 14.2808 10.8148 14.2666 10.7752 14.2502 10.7296L 13.7795 10.8983ZM 13.7774 10.8925L 13.7805 10.901L 14.2492 10.7269L 14.2461 10.7184L 13.7774 10.8925ZM 13.768 10.8665L 13.7763 10.8897L 14.2471 10.7212L 14.2388 10.698L 13.768 10.8665ZM 13.5437 10.4144C 13.5293 10.4137 13.5566 10.4035 13.616 10.5035C 13.6751 10.6007 13.7194 10.7293 13.7678 10.8657L 14.2391 10.6988C 14.1907 10.5622 14.1278 10.3884 14.0458 10.2481C 13.9642 10.1107 13.8166 9.92838 13.5705 9.91516L 13.5437 10.4144ZM 13.6891 10.9617C 13.611 10.7893 13.5258 10.5956 13.509 10.4538C 13.5004 10.382 13.5172 10.3806 13.5017 10.4008C 13.4762 10.4338 13.4577 10.4097 13.5434 10.4144L 13.5708 9.91517C 13.3983 9.90571 13.2204 9.94672 13.1057 10.0955C 13.0009 10.2314 12.9986 10.3964 13.0125 10.5128C 13.0404 10.7476 13.1657 11.018 13.2337 11.1682L 13.6891 10.9617ZM 13.7469 11.0931C 13.7319 11.0559 13.7107 11.0091 13.6889 10.9611L 13.234 11.1687C 13.2556 11.216 13.272 11.2522 13.2829 11.2794L 13.7469 11.0931ZM 13.8207 11.2719C 13.7974 11.2164 13.7731 11.1583 13.7469 11.0931L 13.2829 11.2794C 13.3104 11.348 13.3364 11.41 13.3599 11.4659L 13.8207 11.2719ZM 14.0137 11.8745C 13.9731 11.6393 13.9034 11.4687 13.8208 11.2721L 13.3598 11.4657C 13.4423 11.6622 13.4927 11.7777 13.5204 11.9561L 14.0137 11.8745ZM 2.125 12.1653L 13.7671 12.1653L 13.7671 11.6653L 2.125 11.6653L 2.125 12.1653ZM 2.05269 11.494C 2.00866 11.5395 1.81507 11.7146 1.88292 11.9777L 2.36708 11.8528C 2.36861 11.8588 2.3697 11.8689 2.36778 11.8806C 2.36601 11.8915 2.36268 11.8975 2.36272 11.8974C 2.36314 11.8967 2.36609 11.8918 2.37498 11.8813C 2.38428 11.8704 2.39519 11.859 2.41216 11.8415L 2.05269 11.494ZM 2.08909 11.4542C 2.08409 11.4624 2.07504 11.4709 2.05286 11.4938L 2.41198 11.8417C 2.43522 11.8177 2.46962 11.7808 2.49685 11.7436L 2.08909 11.4542ZM 5.53534 6.35794C 4.38853 8.1412 3.26336 9.7896 2.08868 11.4548L 2.49725 11.743C 3.67414 10.0747 4.80532 8.41739 5.95588 6.62839L 5.53534 6.35794ZM 6.43961 5.05585C 6.13002 5.48483 5.8217 5.91248 5.53529 6.35801L 5.95592 6.62832C 6.23494 6.19397 6.53551 5.77737 6.84506 5.34845L 6.43961 5.05585ZM 6.44248 5.05178L 6.43833 5.05764L 6.84634 5.34665L 6.85049 5.34079L 6.44248 5.05178ZM 6.44663 5.04593L 6.44248 5.05178L 6.85049 5.34079L 6.85464 5.33493L 6.44663 5.04593ZM 6.45283 5.0375L 6.45063 5.04043L 6.85063 5.34043L 6.85283 5.3375L 6.45283 5.0375ZM 7.40907 3.65879C 7.09758 4.14368 6.77307 4.5935 6.45008 5.04124L 6.85558 5.33376C 7.17859 4.88599 7.51082 4.42517 7.8297 3.9291L 7.40907 3.65879ZM 8.34552 2.2828C 7.9812 2.76973 7.68086 3.23632 7.40914 3.65868L 7.82963 3.92921C 8.10136 3.50684 8.39185 3.05498 8.74579 2.58244L 8.34552 2.2828ZM 8.56283 1.95281C 8.48255 2.08142 8.41271 2.19358 8.34565 2.28262L 8.74565 2.58262C 8.82508 2.47634 8.90661 2.34631 8.98697 2.2176L 8.56283 1.95281ZM 8.57269 1.93819L 8.57147 1.9399L 8.97834 2.23051L 8.97956 2.22881L 8.57269 1.93819ZM 10.2264 0.963882C 10.0316 0.881285 9.81031 0.862991 9.64251 0.898608C 9.47508 0.940279 9.30257 1.04126 9.17551 1.15132C 8.9234 1.37238 8.72178 1.69887 8.56415 1.95095L 8.98809 2.21604C 9.1564 1.94688 9.31928 1.69025 9.50515 1.52727C 9.59709 1.44531 9.66194 1.40405 9.75462 1.38588C 9.84692 1.36165 9.90851 1.36591 10.0236 1.42088L 10.2264 0.963882ZM 11.6363 2.63982C 11.463 2.33746 11.2634 1.99012 11.0405 1.68972C 10.8185 1.3913 10.5498 1.10694 10.2261 0.963751L 10.0239 1.42101C 10.2273 1.51098 10.4325 1.71014 10.6393 1.98814C 10.8451 2.26415 11.0292 2.58612 11.2025 2.8885L 11.6363 2.63982ZM 11.8941 3.07693C 11.8141 2.95001 11.7291 2.80168 11.6363 2.63984L 11.2025 2.88848C 11.2953 3.05037 11.3856 3.20771 11.4711 3.34348L 11.8941 3.07693ZM 13.1665 4.92709C 12.7378 4.33214 12.3135 3.74334 11.8942 3.07702L 11.4711 3.34339C 11.8989 4.02277 12.3321 4.6244 12.7608 5.21939L 13.1665 4.92709ZM 13.1828 4.94981L 13.1665 4.92711L 12.7608 5.21938L 12.7771 5.24208L 13.1828 4.94981ZM 14.1005 6.25664C 13.7952 5.80078 13.4878 5.3735 13.1829 4.94989L 12.7771 5.24201C 13.082 5.66556 13.3845 6.08594 13.6851 6.53487L 14.1005 6.25664ZM 14.4069 6.74556C 14.3093 6.58395 14.2083 6.41753 14.1005 6.25655L 13.6852 6.53495C 13.7868 6.68647 13.8816 6.84281 13.9788 7.00395L 14.4069 6.74556ZM 14.4116 6.75324L 14.4067 6.74518L 13.9791 7.00433L 13.984 7.01239L 14.4116 6.75324ZM 14.7906 7.34351C 14.6572 7.15842 14.5372 6.96039 14.4115 6.75315L 13.984 7.01247C 14.1098 7.21979 14.2402 7.43435 14.3847 7.63549L 14.7906 7.34351ZM 24.2244 10.2554C 23.9263 10.237 23.6724 10.452 23.644 10.7743L 24.1421 10.818C 24.1454 10.7804 24.1584 10.7667 24.1628 10.7629C 24.168 10.7583 24.1772 10.7534 24.1936 10.7544L 24.2244 10.2554ZM 24.9005 11.1098C 24.8502 10.9427 24.7916 10.7527 24.7114 10.6036C 24.6261 10.448 24.4776 10.2708 24.2242 10.2553L 24.1938 10.7544C 24.2138 10.7518 24.1953 10.7453 24.2136 10.7634C 24.2375 10.7806 24.2473 10.7959 24.273 10.844C 24.3305 10.946 24.3715 11.0868 24.4217 11.2539L 24.9005 11.1098ZM 25.2261 11.6476C 25.1774 11.6589 25.1569 11.6511 25.1482 11.647C 25.1184 11.637 25.1132 11.6284 25.0815 11.5787C 25.0137 11.4773 24.9635 11.3188 24.9005 11.1097L 24.4218 11.2541C 24.4776 11.4393 24.5477 11.6797 24.6657 11.8564C 24.7269 11.9459 24.831 12.0462 24.9349 12.0992C 25.0598 12.1582 25.1975 12.1676 25.3393 12.1346L 25.2261 11.6476ZM 25.2157 10.9782C 25.2816 11.1579 25.2956 11.3309 25.2686 11.4903C 25.2575 11.5653 25.2464 11.6018 25.2214 11.6391C 25.2054 11.6708 25.2202 11.6417 25.2261 11.6476L 25.3394 12.1346C 25.4848 12.1008 25.5845 12.0027 25.6468 11.9019C 25.6998 11.8128 25.7435 11.6829 25.7624 11.5686C 25.7953 11.3495 25.7704 11.053 25.6871 10.8113L 25.2157 10.9782ZM 24.7439 10.0943C 24.9317 10.399 25.1192 10.7006 25.2157 10.9781L 25.6871 10.8115C 25.5703 10.485 25.3574 10.1367 25.1696 9.83199L 24.7439 10.0943ZM 24.724 10.0621L 24.7443 10.0948L 25.1693 9.83149L 25.1491 9.79878L 24.724 10.0621ZM 24.7104 10.0401L 24.7239 10.0618L 25.1492 9.799L 25.1358 9.77727L 24.7104 10.0401ZM 24.7033 10.0279L 24.7046 10.0301L 25.1416 9.78728L 25.1404 9.78508L 24.7033 10.0279ZM 24.5835 9.83047C 24.6236 9.8983 24.6663 9.96809 24.7089 10.0374L 25.1348 9.77555C 25.0925 9.70672 25.0522 9.64076 25.0141 9.57627L 24.5835 9.83047ZM 24.4444 9.62567C 24.5078 9.71599 24.5569 9.78546 24.5842 9.83156L 25.0135 9.57517C 24.9763 9.51337 24.917 9.42854 24.8535 9.3382L 24.4444 9.62567ZM 24.4359 9.61347L 24.4437 9.6247L 24.8542 9.33917L 24.8463 9.32794L 24.4359 9.61347ZM 24.4396 9.61875L 24.4411 9.6207L 24.8411 9.3207L 24.8396 9.31875L 24.4396 9.61875ZM 24.4313 9.60722L 24.4362 9.61406L 24.8431 9.32344L 24.8382 9.3166L 24.4313 9.60722ZM 23.8978 8.48367C 23.8849 8.59707 23.9146 8.70946 23.9476 8.79899C 23.9809 8.88813 24.0321 8.99076 24.085 9.08302C 24.19 9.26539 24.325 9.45695 24.4307 9.60627L 24.8389 9.31755C 24.7333 9.16829 24.6114 8.99633 24.5186 8.8341C 24.4725 8.75405 24.4396 8.68911 24.4167 8.62589C 24.3944 8.56752 24.3996 8.5241 24.3946 8.54026L 23.8978 8.48367ZM 24.4114 7.99453C 24.162 8.00306 23.9309 8.19204 23.8978 8.48379L 24.3946 8.54013C 24.3973 8.51655 24.4058 8.50664 24.4104 8.50236C 24.4168 8.49653 24.424 8.49439 24.4285 8.49424L 24.4114 7.99453ZM 25.3273 8.90669C 25.2315 8.72859 25.1156 8.51474 24.9895 8.3472C 24.8743 8.19536 24.6809 7.98652 24.4125 7.99449L 24.4273 8.49427C 24.4219 8.49444 24.4762 8.49788 24.5911 8.64932C 24.695 8.78507 24.7912 8.9655 24.887 9.1436L 25.3273 8.90669ZM 25.4553 9.13801C 25.4161 9.07223 25.3743 8.99434 25.3275 8.90699L 24.8869 9.1433C 24.9338 9.23075 24.9809 9.3184 25.0256 9.39373L 25.4553 9.13801ZM 25.6088 9.4047C 25.5543 9.30867 25.5003 9.21369 25.4554 9.13809L 25.0256 9.39365C 25.0681 9.46502 25.1195 9.55559 25.1739 9.65145L 25.6088 9.4047ZM 25.6094 9.40575L 25.6084 9.40404L 25.1743 9.65211L 25.1753 9.65382L 25.6094 9.40575ZM 25.6136 9.4131L 25.609 9.40504L 25.1757 9.65453L 25.1803 9.66258L 25.6136 9.4131ZM 25.6253 9.43354L 25.6139 9.41352L 25.1801 9.66216L 25.1915 9.68218L 25.6253 9.43354ZM 25.7918 9.72142C 25.7405 9.63563 25.683 9.53488 25.6257 9.43422L 25.1912 9.6815C 25.2486 9.7825 25.3088 9.88781 25.3625 9.97779L 25.7918 9.72142ZM 25.805 9.74335L 25.7913 9.72065L 25.363 9.97857L 25.3766 10.0013L 25.805 9.74335ZM 26.0089 10.0426C 26.0355 10.0369 26.0488 10.0474 26.0376 10.0412C 26.0145 10.0301 26.0013 10.0167 25.9693 9.98079C 25.9023 9.90829 25.8475 9.8144 25.8054 9.74402L 25.3763 10.0006C 25.4184 10.0711 25.5003 10.2056 25.5981 10.3158C 25.6486 10.3712 25.7249 10.4377 25.7951 10.4785C 25.8774 10.5241 25.9882 10.5583 26.1132 10.5316L 26.0089 10.0426ZM 25.9553 9.06646C 25.994 9.16405 26.0455 9.43973 26.0431 9.70445C 26.0423 9.83404 26.0326 9.93011 26.0039 10.0086C 25.978 10.0832 25.9659 10.0516 26.0098 10.0424L 26.1123 10.5318C 26.3268 10.4868 26.4294 10.3076 26.4763 10.1722C 26.5203 10.0406 26.5414 9.86438 26.5431 9.709C 26.5459 9.40378 26.4901 9.05885 26.4202 8.88227L 25.9553 9.06646ZM 25.5217 8.42193C 25.7194 8.67455 25.8857 8.89089 25.9553 9.06649L 26.4202 8.88224C 26.3179 8.62425 26.096 8.34449 25.9154 8.11372L 25.5217 8.42193ZM 25.3127 8.14943C 25.3785 8.23922 25.4509 8.33194 25.5219 8.4223L 25.9151 8.11334C 25.8445 8.02353 25.7772 7.93754 25.7161 7.85399L 25.3127 8.14943ZM 24.6488 7.13657C 24.8479 7.45951 25.0718 7.82103 25.3129 8.14966L 25.7159 7.85375C 25.4863 7.54128 25.2732 7.19674 25.0744 6.87418L 24.6488 7.13657ZM 23.3042 5.16652C 23.7722 5.81861 24.2374 6.46652 24.6486 7.13622L 25.0746 6.87452C 24.6538 6.18973 24.1785 5.52709 23.7104 4.87498L 23.3042 5.16652ZM 23.3032 5.16511L 23.3051 5.16779L 23.7095 4.87371L 23.7076 4.87102L 23.3032 5.16511ZM 23.2973 5.15709L 23.3041 5.16637L 23.7066 4.86977L 23.6998 4.86049L 23.2973 5.15709ZM 23.2927 5.15077L 23.2959 5.15516L 23.7012 4.86242L 23.698 4.85802L 23.2927 5.15077ZM 23.2842 5.13889L 23.2922 5.15012L 23.6985 4.85867L 23.6904 4.84744L 23.2842 5.13889ZM 23.2815 5.13514L 23.2846 5.13954L 23.69 4.84679L 23.6868 4.8424L 23.2815 5.13514ZM 23.2729 5.12327L 23.281 5.1345L 23.6873 4.84304L 23.6792 4.83181L 23.2729 5.12327ZM 21.9754 3.22222C 22.3729 3.86699 22.8244 4.49718 23.2729 5.12314L 23.6793 4.83194C 23.2308 4.20595 22.7892 3.59004 22.4011 2.95991L 21.9754 3.22222ZM 21.7811 2.8964C 21.8462 3.0074 21.9113 3.11819 21.9754 3.22223L 22.4011 2.9599C 22.3397 2.86032 22.2774 2.75432 22.2125 2.64364L 21.7811 2.8964ZM 21.7778 2.89064L 21.7798 2.89405L 22.2139 2.64598L 22.2119 2.64257L 21.7778 2.89064ZM 21.7715 2.87988L 21.7791 2.89282L 22.2107 2.64038L 22.2031 2.62744L 21.7715 2.87988ZM 21.7634 2.86596L 21.7712 2.87939L 22.2034 2.62794L 22.1956 2.61451L 21.7634 2.86596ZM 21.7403 2.82632L 21.7635 2.86612L 22.1955 2.61435L 22.1723 2.57455L 21.7403 2.82632ZM 20.6424 1.44088C 20.8303 1.53691 21.0169 1.72355 21.2064 1.97943C 21.3959 2.23467 21.569 2.53238 21.7403 2.8263L 22.1723 2.57458C 22.001 2.28061 21.8134 1.95954 21.6082 1.68182C 21.4029 1.40474 21.1607 1.14424 20.8699 0.99564L 20.6424 1.44088ZM 19.4519 2.36908C 19.6339 2.08163 19.8278 1.77118 20.0547 1.57152C 20.1635 1.47303 20.2447 1.41985 20.3512 1.3976C 20.4351 1.37745 20.5285 1.38274 20.6424 1.4409L 20.8698 0.995621C 20.6546 0.885697 20.4395 0.862201 20.2345 0.911406C 20.052 0.958509 19.8638 1.07281 19.7215 1.19874C 19.4463 1.44793 19.2115 1.81412 19.0295 2.10162L 19.4519 2.36908ZM 19.4456 2.37929L 19.4532 2.36709L 19.0282 2.10362L 19.0207 2.11582L 19.4456 2.37929ZM 19.2327 2.70197C 19.2995 2.60898 19.3711 2.49668 19.4442 2.38155L 19.0221 2.11357C 18.9492 2.22841 18.8856 2.32852 18.8269 2.40985L 19.2327 2.70197ZM 18.5201 3.7567C 18.7546 3.39622 18.9669 3.07061 19.2326 2.70208L 18.827 2.40973C 18.5546 2.78779 18.3357 3.12331 18.101 3.48402L 18.5201 3.7567ZM 18.5133 3.76704L 18.5194 3.75777L 18.1017 3.48296L 18.0956 3.49223L 18.5133 3.76704ZM 18.1643 4.2995C 18.2902 4.11002 18.4046 3.93418 18.514 3.76592L 18.0949 3.49336C 17.9855 3.66153 17.8724 3.83529 17.7478 4.02277L 18.1643 4.2995ZM 17.604 5.07602C 17.7682 4.86156 17.9421 4.63365 18.1643 4.29949L 17.7478 4.02278C 17.535 4.3434 17.371 4.55787 17.207 4.77213L 17.604 5.07602ZM 17.0503 5.85287C 17.2632 5.52183 17.4277 5.3068 17.6041 5.07588L 17.2069 4.77226C 17.0303 5.00326 16.854 5.23452 16.6299 5.58219L 17.0503 5.85287ZM 16.7343 6.35721C 16.847 6.17512 16.9545 6.00166 17.0503 5.8528L 16.6298 5.58225C 16.5318 5.73467 16.422 5.91179 16.3092 6.09396L 16.7343 6.35721ZM 16.7276 6.36785L 16.7337 6.35809L 16.3097 6.09309L 16.3036 6.10285L 16.7276 6.36785ZM 16.723 6.37551L 16.7291 6.3655L 16.3022 6.1052L 16.2961 6.11521L 16.723 6.37551ZM 16.2703 7.09456C 16.4162 6.87131 16.5734 6.61761 16.7222 6.37673L 16.2968 6.11399C 16.1482 6.35456 15.9944 6.60281 15.8518 6.82096L 16.2703 7.09456ZM 16.1701 7.23799C 16.2072 7.18599 16.2445 7.13364 16.2697 7.09541L 15.8523 6.82012C 15.8322 6.85073 15.8002 6.89556 15.7631 6.94755L 16.1701 7.23799ZM 16.1648 7.24519L 16.1687 7.23982L 15.7644 6.94573L 15.7605 6.9511L 16.1648 7.24519ZM 16.0368 7.35988C 16.0384 7.39343 16.0324 7.41863 16.0299 7.42825C 16.0268 7.43999 16.0236 7.44824 16.0222 7.45159C 16.0195 7.45814 16.0181 7.46003 16.0208 7.45521C 16.0272 7.44347 16.0361 7.42955 16.0513 7.40687C 16.0825 7.35993 16.1242 7.30185 16.1657 7.24394L 15.7596 6.95235C 15.7179 7.0104 15.6712 7.07562 15.6351 7.12963C 15.6167 7.15742 15.5972 7.1884 15.5838 7.21226C 15.5763 7.22587 15.5659 7.24686 15.5596 7.26184C 15.556 7.27058 15.5345 7.32006 15.5374 7.38279L 16.0368 7.35988ZM 16.2915 7.6205C 16.2279 7.54859 16.1531 7.46411 16.0937 7.39027C 16.0645 7.35406 16.0442 7.32742 16.0291 7.30404C 16.0224 7.29401 16.0209 7.2899 16.0218 7.29231C 16.0223 7.29352 16.025 7.29904 16.0278 7.308C 16.0304 7.31598 16.0357 7.33449 16.0369 7.36003L 15.5374 7.38264C 15.54 7.44184 15.5615 7.48887 15.5708 7.50828C 15.5812 7.52937 15.5975 7.55747 15.6107 7.57787C 15.6354 7.61536 15.6704 7.66175 15.7043 7.70384C 15.771 7.78662 15.8534 7.87987 15.917 7.95177L 16.2915 7.6205ZM 16.2975 7.62755L 16.2963 7.62609L 15.9122 7.94618L 15.9134 7.94764L 16.2975 7.62755ZM 16.4057 7.75315C 16.383 7.72411 16.3393 7.67438 16.2924 7.62156L 15.9186 7.95363C 15.9649 8.00579 15.9979 8.04298 16.0108 8.05983L 16.4057 7.75315ZM 17.4073 9.27529C 17.109 8.7775 16.7941 8.253 16.4055 7.75295L 16.011 8.06004C 16.3816 8.53557 16.6801 9.03452 16.9784 9.53232L 17.4073 9.27529ZM 17.4102 9.28007L 17.4072 9.27518L 16.9785 9.53243L 16.9814 9.53732L 17.4102 9.28007ZM 17.5591 9.52805L 17.4101 9.28001L 16.9815 9.53738L 17.1304 9.78542L 17.5591 9.52805ZM 18.3771 10.7255C 18.0829 10.319 17.8029 9.93232 17.5587 9.5275L 17.1307 9.78597C 17.386 10.2083 17.6778 10.6121 17.972 11.0186L 18.3771 10.7255ZM 18.7277 11.2143C 18.6104 11.048 18.4928 10.8855 18.3771 10.7255L 17.972 11.0186C 18.0877 11.1785 18.2036 11.3387 18.3192 11.5025L 18.7277 11.2143ZM 18.871 11.4364C 18.827 11.3651 18.778 11.2859 18.7278 11.2145L 18.319 11.5023C 18.3607 11.5613 18.4015 11.6276 18.4454 11.6988L 18.871 11.4364ZM 19.0257 11.6808C 19.0485 11.6886 19.0551 11.6978 19.0455 11.6889C 19.0326 11.6776 19.0238 11.6668 19.0047 11.6414C 18.964 11.5881 18.9215 11.5185 18.8711 11.4366L 18.4453 11.6987C 18.4957 11.7806 18.5512 11.8703 18.606 11.9431C 18.6539 12.0064 18.7398 12.1112 18.8634 12.1537L 19.0257 11.6808ZM 19.3399 11.6802C 19.1605 11.6938 19.0698 11.6959 19.026 11.6809L 18.8632 12.1536C 19.0279 12.2103 19.2428 12.189 19.3779 12.1787L 19.3399 11.6802ZM 19.5972 11.6672C 19.5111 11.6674 19.4204 11.6741 19.3399 11.6802L 19.3778 12.1787C 19.458 12.1726 19.5299 12.1671 19.5972 12.1672L 19.5972 11.6672ZM 24.271 11.6672L 19.5972 11.6672L 19.5972 12.1672L 24.271 12.1672L 24.271 11.6672ZM 23.8582 11.4717C 23.9654 11.6585 24.0263 11.7767 24.0212 11.9076L 24.5208 11.9269C 24.5323 11.6296 24.3866 11.3879 24.2918 11.2227L 23.8582 11.4717ZM 23.6431 10.7761C 23.6171 11.0676 23.7649 11.3096 23.8583 11.4718L 24.2916 11.2225C 24.1819 11.0317 24.1315 10.9284 24.1411 10.8206L 23.6431 10.7761ZM 23.6646 10.6946L 23.6636 10.6968L 24.1205 10.8999L 24.1215 10.8977L 23.6646 10.6946ZM 12.2997 6.3433C 12.3253 6.33332 12.3315 6.34573 12.3193 6.33949C 12.3064 6.33858 12.3236 6.33674 12.3466 6.36027C 12.3976 6.40925 12.4519 6.49652 12.5436 6.6509L 12.9735 6.39549C 12.895 6.26349 12.8039 6.10613 12.6926 5.99941C 12.6344 5.94509 12.5404 5.88582 12.4584 5.85924C 12.3758 5.83799 12.2532 5.83855 12.1598 5.86325L 12.2997 6.3433ZM 12.5166 6.83304C 12.4209 6.69055 12.3206 6.53719 12.2834 6.41235C 12.2645 6.35362 12.2826 6.33417 12.2711 6.34552C 12.272 6.3612 12.2455 6.35248 12.2994 6.34337L 12.1601 5.86318C 12.0013 5.90924 11.8685 6.00473 11.8064 6.16099C 11.75 6.30297 11.7722 6.44752 11.8042 6.55511C 11.8675 6.7675 12.018 6.98742 12.1015 7.11179L 12.5166 6.83304ZM 12.5255 6.8463L 12.5165 6.83287L 12.1017 7.11196L 12.1107 7.12538L 12.5255 6.8463ZM 12.5908 6.9464C 12.5724 6.91621 12.5489 6.88089 12.5254 6.84615L 12.1108 7.12553C 12.1338 7.15964 12.1507 7.18487 12.1631 7.20546L 12.5908 6.9464ZM 12.6446 7.03505L 12.5906 6.94618L 12.1633 7.20567L 12.2172 7.29454L 12.6446 7.03505ZM 12.8419 7.33619C 12.8759 7.3364 12.8708 7.35847 12.8187 7.29752C 12.7655 7.23673 12.7133 7.14874 12.6449 7.03546L 12.217 7.29413C 12.2854 7.40741 12.3603 7.52962 12.4388 7.62265C 12.5183 7.71551 12.6495 7.83499 12.8388 7.83618L 12.8419 7.33619ZM 12.8861 7.26915C 12.8796 7.33187 12.841 7.33617 12.8439 7.33621L 12.8367 7.83616C 13.1097 7.8401 13.3523 7.6237 13.3835 7.32021L 12.8861 7.26915ZM 12.7241 6.92713C 12.8556 7.11106 12.895 7.18434 12.8861 7.26844L 13.3834 7.32091C 13.4155 7.01635 13.2381 6.7864 13.1309 6.63634L 12.7241 6.92713ZM 12.7216 6.92363L 12.7241 6.92705L 13.1309 6.63643L 13.1285 6.63301L 12.7216 6.92363ZM 12.7204 6.92192L 12.7216 6.92363L 13.1285 6.63301L 13.1273 6.6313L 12.7204 6.92192ZM 12.5837 6.71822C 12.6284 6.79232 12.6777 6.862 12.7203 6.92176L 13.1274 6.63146C 13.085 6.57208 13.0469 6.51872 13.0125 6.46098L 12.5837 6.71822ZM 12.5438 6.65112L 12.5833 6.71753L 13.0129 6.46167L 12.9733 6.39527L 12.5438 6.65112ZM 24.1153 7.39791C 24.175 7.1252 24.1039 6.86808 23.9612 6.68976C 23.824 6.5183 23.583 6.38571 23.3249 6.47626L 23.4905 6.94806C 23.4984 6.94402 23.4843 6.94624 23.494 6.94759C 23.504 6.94697 23.4952 6.94528 23.5077 6.95095C 23.5228 6.9568 23.5465 6.97175 23.5708 7.00214C 23.619 7.06234 23.6544 7.16532 23.6269 7.29106L 24.1153 7.39791ZM 23.2621 7.71783C 23.4167 7.82868 23.6082 7.83894 23.7635 7.78539C 23.9218 7.73085 24.0711 7.5996 24.1153 7.39804L 23.6269 7.29093C 23.6261 7.29476 23.6247 7.2972 23.6219 7.30012C 23.6184 7.3038 23.6115 7.30894 23.6006 7.31269C 23.5752 7.32146 23.5574 7.31438 23.5534 7.31147L 23.2621 7.71783ZM 23.3246 6.47637C 23.0044 6.58921 22.9633 6.92784 22.9789 7.12234C 22.9883 7.22859 23.0201 7.35463 23.0589 7.44664C 23.0992 7.53998 23.1635 7.64662 23.2613 7.71732L 23.5541 7.31198C 23.5678 7.31734 23.5389 7.30009 23.518 7.24859C 23.4935 7.19385 23.4816 7.14705 23.4773 7.08231C 23.4724 7.02198 23.48 6.97919 23.4893 6.95642C 23.4948 6.94053 23.5023 6.93965 23.4953 6.94478C 23.4904 6.95198 23.4823 6.94894 23.4908 6.94795L 23.3246 6.47637ZM 6.24533 7.4844C 6.2662 7.47749 6.28319 7.4757 6.29445 7.47617C 6.30534 7.47662 6.30759 7.47893 6.30504 7.47744C 6.30115 7.47516 6.30083 7.47286 6.30321 7.47745C 6.30638 7.48357 6.31478 7.50379 6.31632 7.54719L 6.816 7.52947C 6.8087 7.32347 6.72573 7.14418 6.55733 7.04576C 6.40115 6.95448 6.2244 6.96463 6.08817 7.00974L 6.24533 7.4844ZM 6.00383 7.97042C 5.98741 7.92056 6.00136 7.81494 6.08286 7.6789C 6.12076 7.61467 6.15669 7.56914 6.19974 7.52649C 6.24478 7.48123 6.26147 7.47925 6.24296 7.48517L 6.09054 7.00897C 5.99232 7.04041 5.90631 7.11252 5.84535 7.17377C 5.7824 7.23762 5.70901 7.33101 5.65395 7.42193C 5.54955 7.59619 5.44301 7.86582 5.52889 8.12675L 6.00383 7.97042ZM 6.05963 7.99741C 6.04277 8.00036 6.03154 7.99675 6.02226 7.99076C 6.01687 7.98728 6.01218 7.9829 6.00863 7.97837C 6.00498 7.97371 6.00389 7.97064 6.00392 7.97072L 5.52879 8.12645C 5.6013 8.34766 5.84393 8.54283 6.14594 8.4899L 6.05963 7.99741ZM 6.31635 7.54799C 6.31293 7.53163 6.31324 7.58037 6.28822 7.63829C 6.26271 7.69989 6.2303 7.75778 6.18691 7.82218C 6.14417 7.88641 6.10609 7.93413 6.06477 7.97439C 6.01579 8.02281 6.01492 8.00537 6.05893 7.99753L 6.14664 8.48978C 6.2667 8.46839 6.36282 8.38283 6.41627 8.32999C 6.4774 8.26899 6.54721 8.18232 6.60233 8.10043C 6.65682 8.01871 6.71225 7.91877 6.74908 7.83223C 6.78491 7.74709 6.82018 7.63728 6.81598 7.52867L 6.31635 7.54799ZM 6.0326 8.79689C 5.9656 8.5021 5.66253 8.33552 5.36519 8.41589L 5.49565 8.89857C 5.5195 8.89212 5.53278 8.89731 5.53797 8.90026C 5.54408 8.90374 5.54487 8.90699 5.54504 8.9077L 6.0326 8.79689ZM 5.81828 9.53484C 5.90894 9.40448 6.10967 9.13736 6.03265 8.7971L 5.54499 8.90749C 5.56611 9.00083 5.52124 9.08624 5.4078 9.24934L 5.81828 9.53484ZM 5.75263 9.63397C 5.76871 9.60586 5.78985 9.57566 5.81819 9.53496L 5.40789 9.24922C 5.3791 9.29055 5.34652 9.33799 5.32012 9.38312L 5.75263 9.63397ZM 5.14985 10.7627C 5.39811 10.2638 5.49188 10.0853 5.75286 9.63359L 5.3199 9.3835C 5.05402 9.84389 4.95297 10.036 4.7022 10.54L 5.14985 10.7627ZM 5.12965 10.8036L 5.15016 10.7621L 4.70189 10.5406L 4.68139 10.5821L 5.12965 10.8036ZM 4.52942 11.3638C 4.73683 11.3614 4.87291 11.2207 4.9474 11.1218C 5.02252 11.0201 5.08517 10.8945 5.13007 10.8028L 4.68096 10.583C 4.63602 10.6748 4.59625 10.7587 4.5479 10.8211C 4.49892 10.8862 4.49046 10.8642 4.52381 10.8638L 4.52942 11.3638ZM 3.98468 10.8815C 4.004 11.017 4.08107 11.1332 4.16615 11.2123C 4.25062 11.2909 4.37837 11.3651 4.5289 11.3638L 4.52432 10.8638C 4.5345 10.8637 4.53694 10.8662 4.53121 10.8635C 4.52563 10.861 4.51662 10.8555 4.50658 10.8461C 4.49661 10.8369 4.48878 10.8268 4.48377 10.8181C 4.47854 10.809 4.479 10.8062 4.47967 10.8109L 3.98468 10.8815ZM 4.40144 9.76137C 4.31205 9.91206 4.20029 10.1014 4.11614 10.284C 4.03745 10.4556 3.95434 10.6804 3.98497 10.8835L 4.47938 10.8089C 4.4729 10.7659 4.49258 10.6627 4.57063 10.4925C 4.64322 10.3333 4.74215 10.167 4.83147 10.0165L 4.40144 9.76137ZM 4.51711 9.56078C 4.48797 9.61538 4.44822 9.68242 4.40138 9.76147L 4.83153 10.0164C 4.87844 9.93721 4.92365 9.8607 4.95799 9.79664L 4.51711 9.56078ZM 4.61897 9.36222C 4.58138 9.43691 4.54773 9.50379 4.51729 9.56046L 4.95781 9.79697C 4.99133 9.73449 5.02799 9.66172 5.0656 9.587L 4.61897 9.36222ZM 5.36669 8.41601C 5.25228 8.44716 5.16215 8.5207 5.09686 8.58763C 5.03361 8.65324 4.96674 8.74227 4.91173 8.8271C 4.80394 8.9945 4.70197 9.1967 4.61881 9.36254L 5.06576 9.58668C 5.14886 9.42097 5.23793 9.2428 5.33162 9.09856C 5.37735 9.02757 5.41382 8.97795 5.45474 8.9368C 5.49059 8.89864 5.50864 8.89961 5.49806 8.89844L 5.36669 8.41601ZM 5.43042 8.90723L 5.43237 8.90723L 5.43237 8.40723L 5.43042 8.40723L 5.43042 8.90723ZM 11.9554 9.61071L 11.9356 9.588L 11.5585 9.91639L 11.5783 9.9391L 11.9554 9.61071ZM 11.8349 9.16166C 11.8441 9.16957 11.8721 9.20465 11.8956 9.27333C 11.9209 9.34407 11.9296 9.39672 11.9222 9.46206C 11.9172 9.5193 11.9007 9.53252 11.9031 9.53044C 11.9123 9.5225 11.9001 9.54566 11.8133 9.52925L 11.7204 10.0206C 11.9088 10.0561 12.0905 10.0287 12.229 9.90963C 12.3607 9.79643 12.4088 9.63805 12.4203 9.50535C 12.4294 9.38075 12.4065 9.22511 12.3686 9.11137C 12.329 8.99557 12.2622 8.86998 12.1616 8.78316L 11.8349 9.16166ZM 11.7628 9.21948C 11.7659 9.19225 11.7741 9.17689 11.7799 9.16891C 11.7861 9.16057 11.7927 9.1561 11.7984 9.15373C 11.8086 9.14945 11.8208 9.14946 11.8347 9.1615L 12.1618 8.78333C 11.8224 8.48977 11.318 8.70726 11.266 9.16284L 11.7628 9.21948ZM 11.9355 9.58787C 11.8087 9.44256 11.747 9.36024 11.7628 9.21905L 11.266 9.16327C 11.2232 9.54406 11.4388 9.77912 11.5587 9.91652L 11.9355 9.58787Z"/>
</defs>
</svg>
