<svg width="32" height="32" viewBox="0 0 32 32" version="1.1" xmlns="http://www.w3.org/2000/svg" xmlns:xlink="http://www.w3.org/1999/xlink">
<title>rake</title>
<desc>Created using Figma</desc>
<g id="Canvas" transform="translate(2590 2968)">
<clipPath id="clip-0" clip-rule="evenodd">
<path d="M -2590 -2968L -2558 -2968L -2558 -2936L -2590 -2936L -2590 -2968Z" fill="#FFFFFF"/>
</clipPath>
<g id="rake" clip-path="url(#clip-0)">
<g id="rake">
<use xlink:href="#path0_fill" transform="translate(-2587 -2968)"/>
</g>
</g>
</g>
<defs>
<path id="path0_fill" fill-rule="evenodd" fill="white" d="M 2.83228 21.9546C 2.85938 20.6775 3.96631 20.2158 4.93945 20.238C 5.91284 20.2603 7.02393 20.7522 6.99707 22.0291L 6.99707 22.8411L 19.019 22.928L 19.019 22.0291C 19.2334 20.9851 19.6335 20.3398 21.1816 20.3621C 22.7322 20.3845 23.0408 21.2761 23.2498 22.0291L 23.2776 22.8474L 24.4993 22.8474C 25.3313 22.8474 26 22.2937 26 21.6111L 26 1.23657C 26 0.553467 25.3279 0 24.499 0L 23.6904 0L 23.6562 15.9585C 23.6562 17.3625 23.2776 17.8096 21.4106 17.8096L 4.57446 17.8096C 2.83081 17.8096 2.36304 17.3882 2.32886 15.9585C 2.32886 15.9585 2.2915 15.2249 2.2915 14.8542C 2.2915 10.1682 2.36304 0 2.36304 0L 1.50098 0.000244141C 0.669189 0 0.000244141 0.553467 0.000244141 1.23657L 0 21.6108C 0 22.2939 0.672119 22.8474 1.50098 22.8474L 2.83081 22.8474L 2.83228 21.9546ZM 22.7319 26.6191L 23.7773 28.1267L 25.4844 30.5881C 25.813 30.9553 25.7117 31.47 25.2605 31.7358L 25.0796 31.8425C 24.627 32.1094 23.9951 32.0293 23.665 31.6606L 22.9399 30.8508L 3.24146 30.7192L 2.51636 31.5291C 2.1875 31.8962 1.55298 31.9768 1.10181 31.7109L 0.920898 31.6042C 0.468506 31.3376 0.366943 30.825 0.697021 30.4563L 3.40405 26.6191C 3.73291 26.252 4.36768 26.1714 4.8186 26.4373L 4.99951 26.5437C 5.35352 26.7524 5.47021 27.2095 5.24414 27.6453L 20.856 27.6453C 20.7424 27.3225 20.7837 26.7517 21.1365 26.5437L 21.3171 26.4373C 21.7698 26.1704 22.4019 26.2505 22.7319 26.6191ZM 4.62036 28.7263L 3.90308 29.6243L 22.2168 29.6243L 21.4167 28.7263L 4.62036 28.7263ZM 19.7485 24.6467L 19.8093 21.9795C 19.8215 21.4426 20.3999 21.0146 21.0979 21.0239C 21.7974 21.0332 22.3545 21.4749 22.3423 22.0134L 22.2815 24.6807C 22.2693 25.2178 21.6909 25.6455 20.9932 25.6362C 20.2932 25.6267 19.7361 25.1851 19.7485 24.6467ZM 22.8572 16.1724L 22.8501 0L 3.17065 0.00439453L 3.17065 16.1724C 3.16162 16.7178 3.70532 17.1619 4.38452 17.1621L 21.6272 17.1624C 22.3083 17.1628 22.8572 16.7195 22.8572 16.1724ZM 3.61133 24.6582L 3.67334 21.9685C 3.68555 21.4377 4.26416 21.0146 4.96216 21.0239C 5.66162 21.0332 6.21875 21.4707 6.2063 22.0022L 6.14453 24.6917C 6.13232 25.2224 5.55371 25.6453 4.85596 25.6362C 4.15625 25.627 3.59912 25.1895 3.61133 24.6582Z"/>
</defs>
</svg>
