<svg width="32" height="32" viewBox="0 0 32 32" version="1.1" xmlns="http://www.w3.org/2000/svg" xmlns:xlink="http://www.w3.org/1999/xlink">
<title>mesicon-inflow</title>
<desc>Created using Figma</desc>
<g id="Canvas" transform="translate(2296 2968)">
<clipPath id="clip-0" clip-rule="evenodd">
<path d="M -2296 -2968L -2264 -2968L -2264 -2936L -2296 -2936L -2296 -2968Z" fill="#FFFFFF"/>
</clipPath>
<g id="mesicon-inflow" clip-path="url(#clip-0)">
<g id="Group">
<g id="Path">
<use xlink:href="#path0_fill" transform="translate(-2295.52 -2958.91)"/>
</g>
<g id="Subtract">
<use xlink:href="#path1_fill" transform="translate(-2292.76 -2964.5)"/>
</g>
</g>
</g>
</g>
<defs>
<path id="path0_fill" fill-rule="evenodd" d="M 14.2994 6.57574L 9.41718 11.4689C 9.2284 11.6581 8.99589 11.7529 8.71964 11.7533C 8.44338 11.7537 8.21087 11.6589 8.02209 11.4689C 7.83331 11.2788 7.73872 11.0458 7.73831 10.7698L 7.73831 7.6247L 0.501648 7.6247C 0.355995 7.6247 0.235974 7.5774 0.141584 7.4828C 0.0471947 7.3882 -6.04882e-09 7.26791 0 7.12193L 3.26637e-07 4.63134C 3.32685e-07 4.48536 0.0471948 4.36507 0.141584 4.27047C 0.235974 4.17587 0.355995 4.12857 0.501648 4.12857L 7.73831 4.12857L 7.73831 0.983517C 7.73831 0.707056 7.8329 0.474021 8.02209 0.284412C 8.21128 0.0948041 8.44379 1.21247e-08 8.71964 0C 8.99548 -1.21247e-08 9.228 0.0948041 9.41718 0.284412L 14.2994 5.17753C 14.4882 5.36673 14.5828 5.59977 14.5832 5.87664C 14.5836 6.1535 14.489 6.38654 14.2994 6.57574Z"/>
<path id="path1_fill" fill-rule="evenodd" d="M 15.6333 0.863525C 15.3254 0.329346 14.7558 0 14.1394 0C 13.5227 0 12.9531 0.329346 12.6452 0.863525L 9.81564 5.77539L 12.3386 8.3042L 14.1394 5.17822L 20.0954 15.5173L 11.4436 15.5173L 8.28976 18.678C 7.65476 19.3147 6.83127 19.6362 5.96848 19.6377C 5.10031 19.6389 4.27268 19.3149 3.63669 18.6746C 3.34274 18.3787 3.11618 18.0422 2.95798 17.6802L 0.230195 22.4153C -0.0771785 22.9487 -0.0766902 23.6057 0.231415 24.1387C 0.539521 24.6716 1.10837 25 1.72409 25L 26.5544 25C 27.1701 25 27.739 24.6716 28.0471 24.1387C 28.3552 23.6057 28.3557 22.9487 28.0483 22.4153L 15.6333 0.863525Z"/>
</defs>
</svg>
