<?xml version="1.0" encoding="UTF-8"?>
<svg width="74px" height="28px" viewBox="0 0 74 28" version="1.1" xmlns="http://www.w3.org/2000/svg" xmlns:xlink="http://www.w3.org/1999/xlink">
    <!-- Generator: Sketch 47.1 (45422) - http://www.bohemiancoding.com/sketch -->
    <title>BHP-orange1 Copy 3</title>
    <desc>Created with Sketch.</desc>
    <defs></defs>
    <g id="Pages" stroke="none" stroke-width="1" fill="none" fill-rule="evenodd">
        <g id="BHP-DPL-/-UI-components-/-logo" transform="translate(-701.000000, -1104.000000)" fill="#FFFFFF">
            <g id="section-2" transform="translate(319.000000, 964.000000)">
                <g id="BHP-orange1-Copy-3" transform="translate(382.000000, 140.000000)">
                    <path d="M11.1127994,6 L7,6 L7,12 L11.1127994,12 C13.0188107,12 14,10.5859919 14,8.99977353 C14,7.41355518 13.0188107,6 11.1127994,6 L11.1127994,6 Z M11.3750517,17 L7,17 L7,22 L11.3750517,22 C13.0667053,22 14,20.8810399 14,19.4997581 C14,18.1193633 12.8247093,17 11.3750517,17 L11.3750517,17 Z M22,20.38601 C22,25.008245 17.7751463,28 13.1846821,28 L0,28 L0,0 L12.7504357,0 C17.4290183,0 21.3132848,3.35447124 21.3132848,7.49163209 C21.3132848,10.76549 19.7419903,12.5239926 17.5698646,13.847532 C20.0804325,14.9031738 22,16.4800568 22,20.38601 L22,20.38601 Z M40.9260799,0 L40.9260799,11.2984092 L31.0733823,11.2984092 L31.0733823,0 L24,0 L24,28 L31.0733823,28 L31.0733823,17.6840271 L40.9260799,17.6840271 L40.9260799,28 L48,28 L48,0 L40.9260799,0 Z M64.1042026,6 L59,6 L59,12 L64.1042026,12 C65.7034902,12 67,10.5859919 67,8.99977353 C67,7.41355518 65.7034902,6 64.1042026,6 L64.1042026,6 Z M74,8.84218783 C74,13.7253484 69.9873758,17.6840271 65.0377601,17.6840271 L58.9705918,17.6840271 L58.9705918,28 L52,28 L52,0 L65.0377601,0 C69.9873758,0 74,3.95867869 74,8.84218783 L74,8.84218783 Z" id="Fill-1"></path>
                </g>
            </g>
        </g>
    </g>
</svg>