<?xml version="1.0" encoding="UTF-8"?>
<svg width="96px" height="96px" viewBox="0 0 96 96" version="1.1" xmlns="http://www.w3.org/2000/svg" xmlns:xlink="http://www.w3.org/1999/xlink">
    <!-- Generator: Sketch 47.1 (45422) - http://www.bohemiancoding.com/sketch -->
    <title>icn_browser_chrome</title>
    <desc>Created with Sketch.</desc>
    <defs>
        <path d="M39.5700525,90.6132301 C17.2430454,87.7081874 0,68.616732 0,45.4979475 C0,36.3744284 2.68539857,27.8781177 7.30889909,20.7563121 L26.43284,53.8799423 C29.6579411,61.2049395 36.980713,66.3190422 45.4979475,66.3190422 C48.8747594,66.3190422 52.0638173,65.5151719 54.8841945,64.0883582 L39.5700525,90.6132301 Z M42.9513703,90.9258291 L61.4603762,58.8672905 C64.4930134,55.2502816 66.3190422,50.5873605 66.3190422,45.4979475 C66.3190422,37.9997688 62.3554971,31.4273257 56.4092484,27.7614595 L87.4091716,27.7614595 C89.7186052,33.2118678 90.9958951,39.2057442 90.9958951,45.4979475 C90.9958951,70.6257701 70.6257701,90.9958951 45.4979475,90.9958951 C44.643381,90.9958951 43.7943173,90.972335 42.9513703,90.9258291 Z M9.26526037,17.975612 C17.5757048,7.05189993 30.7132964,0 45.4979475,0 C63.1226545,0 78.4067414,10.021386 85.962903,24.6768529 L44.7267959,24.6768529 L44.7267959,24.6908689 C33.8512005,25.0868413 25.1039693,33.8240478 24.6920294,44.6955566 L9.26526228,17.9756121 Z M45.4979475,61.6921322 C36.5541463,61.6921322 29.3037628,54.4417488 29.3037628,45.4979475 C29.3037628,36.5541463 36.5541463,29.3037628 45.4979475,29.3037628 C54.4417488,29.3037628 61.6921322,36.5541463 61.6921322,45.4979475 C61.6921322,54.4417488 54.4417488,61.6921322 45.4979475,61.6921322 Z" id="path-1"></path>
    </defs>
    <g id="Page-1" stroke="none" stroke-width="1" fill="none" fill-rule="evenodd">
        <g id="icn_browser_chrome">
            <g id="chrome" transform="translate(2.000000, 2.000000)">
                <g id="img" transform="translate(0.000000, 0.000000)">
                    <mask id="mask-2" fill="white">
                        <use xlink:href="#path-1"></use>
                    </mask>
                    <use id="Oval-1" fill="#4B8BF5" xlink:href="#path-1"></use>
                    <polygon id="Path-14" fill="#DC4B40" mask="url(#mask-2)" points="6.85451401 13.7210773 25.0729718 48.8461314 27.4632407 38.6133104 34.1490653 30.109556 45.7148339 27.0475418 57.4673659 26.3757964 100.623241 25.7808649 55.8482486 -5.53361557 25.0082071 0.0828385565"></polygon>
                    <polygon id="Path-15" fill="#FFCE42" mask="url(#mask-2)" points="52.3283631 26.246267 59.3124064 33.4170737 63.8052685 40.5878804 63.8052685 46.6125027 60.4465416 55.8768656 40.7851867 92.9192557 51.204771 93.4915949 73.8287339 85.8583984 89.7789214 66.0976373 95.1212552 46.2389761 92.8288864 30.6743644 89.9551416 26.5550289"></polygon>
                    <polygon id="Path-16" fill="#19A15E" mask="url(#mask-2)" points="7.07441272 18.10399 14.9064217 31.2783328 26.2733778 48.5720111 32.0012874 58.1210374 36.9685885 61.8547971 43.3787866 63.6727268 52.0813535 63.4739143 57.071247 61.4586781 39.3046358 93.9298861 8.07751234 81.8023215 -4.90856101 53.450449 -3.47620706 32.1488907"></polygon>
                </g>
            </g>
        </g>
    </g>
</svg>