<svg width="32" height="32" viewBox="0 0 32 32" version="1.1" xmlns="http://www.w3.org/2000/svg" xmlns:xlink="http://www.w3.org/1999/xlink">
<title>mesicon-stockpile</title>
<desc>Created using Figma</desc>
<g id="Canvas" transform="translate(2338 2968)">
<clipPath id="clip-0" clip-rule="evenodd">
<path d="M -2338 -2968L -2306 -2968L -2306 -2936L -2338 -2936L -2338 -2968Z" fill="#FFFFFF"/>
</clipPath>
<g id="mesicon-stockpile" clip-path="url(#clip-0)">
<g id="mesicon-stockpile">
<use xlink:href="#path0_fill" transform="translate(-2337.22 -2964.23)"/>
</g>
</g>
</g>
<defs>
<path id="path0_fill" fill-rule="evenodd" d="M 16.9229 0.943146C 16.1402 -0.314178 14.3101 -0.314423 13.5274 0.942657L 0.305476 22.1746C -0.524114 23.5066 0.433649 25.2317 2.00323 25.2317L 28.4419 25.2317C 30.0113 25.2317 30.969 23.5069 30.1397 22.1748L 16.9229 0.943146ZM 16.0889 3.27151C 15.7039 2.60526 14.742 2.60526 14.357 3.27151L 11.7935 7.70901C 11.4083 8.37552 11.8895 9.20926 12.6592 9.20926L 17.7862 9.20926C 18.5562 9.20926 19.0372 8.37552 18.6522 7.70901L 16.0889 3.27151Z"/>
</defs>
</svg>
