<svg width="32" height="32" viewBox="0 0 32 32" version="1.1" xmlns="http://www.w3.org/2000/svg" xmlns:xlink="http://www.w3.org/1999/xlink">
<title>mesicon-automation</title>
<desc>Created using Figma</desc>
<g id="Canvas" transform="translate(2548 2968)">
<clipPath id="clip-0" clip-rule="evenodd">
<path d="M -2548 -2968L -2516 -2968L -2516 -2936L -2548 -2936L -2548 -2968Z" fill="#FFFFFF"/>
</clipPath>
<g id="mesicon-automation" clip-path="url(#clip-0)">
<g id="mesicon-automation">
<use xlink:href="#path0_fill" transform="translate(-2544 -2967)"/>
</g>
</g>
</g>
<defs>
<path id="path0_fill" fill-rule="evenodd" d="M 2.67798 0L 5.948 0C 7.42407 0 8.625 1.21899 8.625 2.71704L 8.625 6.03491C 8.625 7.53296 7.42407 8.75195 5.948 8.75195L 2.67798 8.75195C 1.20093 8.75195 0 7.53296 0 6.03491L 0 2.71704C 0 1.21899 1.20093 0 2.67798 0ZM 12.165 5.36206L 16.7061 5.36206C 17.376 5.36206 17.9209 5.91504 17.9209 6.59399L 17.9209 7.90991C 17.9209 8.56201 18.4419 9.09106 19.084 9.09106C 19.7261 9.09106 20.248 8.56201 20.248 7.90991L 20.248 6.59399C 20.248 4.61206 18.658 3 16.7051 3L 12.1641 3C 11.521 3 11 3.52905 11 4.18091C 11 4.83301 11.521 5.36206 12.165 5.36206ZM 18.6174 20.002C 17.9756 20.002 17.4546 20.531 17.4546 21.1831L 17.4546 22.718C 17.4546 23.3979 16.9094 23.95 16.2395 23.95L 13.9734 23.95L 15.6565 22.2419C 16.1116 21.78 16.1116 21.033 15.6565 20.572C 15.2014 20.1111 14.4646 20.1101 14.0105 20.572L 10.3406 24.2949C 9.88647 24.7561 9.88647 25.5039 10.3406 25.9651L 14.0105 29.689C 14.2375 29.9199 14.5366 30.0349 14.8335 30.0349C 15.1306 30.0349 15.4294 29.9199 15.6565 29.689C 16.1116 29.228 16.1116 28.48 15.6565 28.019L 13.9734 26.311L 16.2395 26.311C 18.1924 26.311 19.7825 24.698 19.7825 22.717L 19.7825 21.1809C 19.7825 20.5291 19.2615 20 18.6184 20L 18.6174 20.002ZM 6.29712 6.03394C 6.29712 6.22998 6.13989 6.38892 5.948 6.38892L 2.67798 6.38892C 2.48511 6.38892 2.3291 6.22998 2.3291 6.03394L 2.3291 2.71606C 2.3291 2.52002 2.48608 2.36108 2.67798 2.36108L 5.948 2.36108C 6.14111 2.36108 6.29712 2.52002 6.29712 2.71606L 6.29712 6.03394ZM 2.67798 10L 5.948 10C 7.42407 10 8.625 11.219 8.625 12.717L 8.625 16.0339C 8.625 17.532 7.42407 18.751 5.948 18.751L 2.67798 18.751C 1.20093 18.751 0 17.532 0 16.0339L 0 12.717C 0 11.219 1.20093 10 2.67798 10ZM 6.29712 16.0339C 6.29712 16.23 6.13989 16.3889 5.948 16.3889L 2.67798 16.3889C 2.48511 16.3889 2.3291 16.229 2.3291 16.0339L 2.3291 12.717C 2.3291 12.521 2.48608 12.3621 2.67798 12.3621L 5.948 12.3621C 6.14111 12.3621 6.29712 12.521 6.29712 12.717L 6.29712 16.0339ZM 2.67798 21L 5.948 21C 7.42407 21 8.625 22.219 8.625 23.717L 8.625 27.0349C 8.625 28.533 7.42407 29.751 5.948 29.751L 2.67798 29.751C 1.20093 29.751 0 28.533 0 27.0349L 0 23.717C 0 22.219 1.20093 21 2.67798 21ZM 23.0342 15.4441C 22.9731 15.2339 22.8401 15.0601 22.6592 14.9561L 22.2751 14.728C 22.2002 14.6851 22.1592 14.5969 22.1711 14.501L 22.1714 14.4988C 22.1814 14.3896 22.1912 14.2812 22.1912 14.1721C 22.1912 14.062 22.1812 13.9519 22.1711 13.8491C 22.1602 13.7571 22.2012 13.6689 22.2771 13.626L 22.6611 13.397C 23.0471 13.1641 23.176 12.676 22.9541 12.2839L 22.5991 11.6689C 22.457 11.418 22.1912 11.261 21.9031 11.261C 21.7581 11.261 21.6191 11.2991 21.5012 11.3701L 21.1191 11.5969C 21.0452 11.6399 20.9421 11.6321 20.8711 11.5801L 20.7642 11.499C 20.644 11.3989 20.53 11.3181 20.3782 11.251C 20.3311 11.2271 20.3201 11.1289 20.3201 11.051L 20.3201 10.595C 20.3201 10 19.635 10 19.3772 10L 18.676 10C 18.4521 10 17.9302 10 17.9302 10.595L 17.9302 11.041C 17.9302 11.1079 17.874 11.2019 17.7651 11.248C 17.5342 11.355 17.3411 11.467 17.1912 11.5811C 17.1252 11.6321 17.0151 11.6389 16.9451 11.5979L 16.5632 11.3711C 16.4451 11.3 16.3062 11.262 16.1592 11.262C 15.8711 11.262 15.6052 11.418 15.4641 11.668L 15.1072 12.2871C 15.0051 12.47 14.9771 12.6819 15.0271 12.908C 15.0852 13.1221 15.2161 13.292 15.4031 13.3979L 15.7871 13.627C 15.8621 13.6699 15.9031 13.7571 15.8901 13.8679C 15.8811 13.9729 15.873 14.0779 15.873 14.1819C 15.873 14.283 15.8816 14.3879 15.8914 14.5059L 15.8916 14.5093L 15.8921 14.5161C 15.9031 14.6079 15.8611 14.696 15.7891 14.738L 15.4011 14.958C 15.0161 15.1909 14.8872 15.679 15.1072 16.0691L 15.4541 16.687C 15.5962 16.938 15.8621 17.094 16.1501 17.094C 16.2971 17.094 16.437 17.0559 16.552 16.9861L 16.9341 16.759C 17.009 16.7161 17.1121 16.7241 17.1841 16.7771C 17.333 16.8879 17.5332 17 17.7781 17.1089C 17.8782 17.1541 17.9402 17.25 17.9402 17.3149L 17.9402 17.76C 17.9402 18.2129 18.239 18.698 18.686 18.698L 19.3872 18.698C 19.8362 18.698 20.3301 18.208 20.3301 17.76L 20.3301 17.3149C 20.3301 17.261 20.3362 17.1331 20.4011 17.1079C 20.5964 17.0188 20.7397 16.9138 20.9243 16.7783L 20.9265 16.7769L 20.9292 16.7749C 20.9951 16.7241 21.0881 16.72 21.1541 16.7571L 21.5281 16.9839C 21.645 17.0559 21.7852 17.094 21.9321 17.094C 22.2131 17.094 22.4712 16.9441 22.6282 16.687L 22.9832 16.053C 23.0701 15.8469 23.0901 15.6321 23.0361 15.446L 23.0342 15.4441ZM 17.6082 14.3469C 17.6082 15.1431 18.2471 15.791 19.0322 15.791C 19.8181 15.791 20.457 15.1431 20.457 14.3469C 20.457 13.551 19.8181 12.9031 19.0322 12.9031C 18.2471 12.9031 17.6082 13.551 17.6082 14.3469Z"/>
</defs>
</svg>
