<?xml version="1.0" encoding="UTF-8"?>
<svg width="96px" height="96px" viewBox="0 0 96 96" version="1.1" xmlns="http://www.w3.org/2000/svg" xmlns:xlink="http://www.w3.org/1999/xlink">
    <!-- Generator: Sketch 47.1 (45422) - http://www.bohemiancoding.com/sketch -->
    <title>icn_browser_edge</title>
    <desc>Created with Sketch.</desc>
    <defs></defs>
    <g id="Page-1" stroke="none" stroke-width="1" fill="none" fill-rule="evenodd">
        <g id="icn_browser_edge" fill="#0378D7">
            <path d="M81.4597701,19.875 C74.2219281,9.72616161 62.122015,3 48.4712644,3 C26.4398486,3 8.39879617,20.5926596 7,42.375 C10.3594815,36.58663 25.7008012,20.1033707 45.6436782,19.875 C66.4500317,20.1033707 65.5517836,39.4425657 65,40 L32,40 C33.2229487,31.8261822 38.6797974,25.3140643 39.045977,25.5 C16.1251166,34.5444952 17.1375278,57.82016 17.3678161,57.375 C17.6876095,68.6968815 21.227649,76.2164433 25.8505747,81.75 C37.0802281,93.7190353 54.7652183,92.991879 55.0689655,93 C70.6903422,92.991879 82.4251817,86.5324509 82,86 L82,71 L82,68 C82.4251817,67.6774563 72.2005055,74.2150171 56.954023,74.25 C31.7751767,73.9601723 32.8792125,54.8901183 33.2749023,55.1201172 L89,55.1201172 C88.9929051,54.8884067 88.9929051,55.2666241 89,55.5 L89,45.1875 C88.9929051,45.2546817 89.492357,31.0378243 82.4022989,20.8125 C82.0106858,20.3989703 81.9094722,20.2579707 81.4597701,19.875 Z" id="edge"></path>
        </g>
    </g>
</svg>