<svg width="32" height="32" viewBox="0 0 32 32" version="1.1" xmlns="http://www.w3.org/2000/svg" xmlns:xlink="http://www.w3.org/1999/xlink">
<title>mesicon-equip-sl</title>
<desc>Created using Figma</desc>
<g id="Canvas" transform="translate(2548 3010)">
<clipPath id="clip-0" clip-rule="evenodd">
<path d="M -2548 -3010L -2516 -3010L -2516 -2978L -2548 -2978L -2548 -3010Z" fill="#FFFFFF"/>
</clipPath>
<g id="mesicon-equip-sl" clip-path="url(#clip-0)">
<g id="mesicon-equip-sl">
<use xlink:href="#path0_fill" transform="translate(-2548 -3010)"/>
</g>
</g>
</g>
<defs>
<path id="path0_fill" fill-rule="evenodd" fill="white" d="M 9.87793 17.2151L 12.939 17.2151L 13.022 18.9021L 15.7261 18.9021L 15.7261 28.356L 13.8259 28.356L 13.8259 20.9541L 4.00806 20.9541L 4.00806 28.353L 2.07788 28.353L 2.07788 18.9819L 4.625 18.9819L 4.65869 18.5713L 4.66675 18.4734L 4.76904 17.2251L 7.69189 17.2251L 7.69189 11.6609L 0.653076 13.0081L 0.618652 12.8374C 0.395996 11.7366 0.192871 10.7317 0 9.77393C 0.0446777 9.73071 0.0788574 9.69238 0.106445 9.66138L 0.108154 9.65942C 0.152344 9.61011 0.179443 9.57959 0.207031 9.5791C 1.88989 9.56006 2.87305 8.54004 3.73511 7.21411C 4.55713 5.94971 5.48462 4.75269 6.40918 3.55957L 6.58398 3.33398C 7.33911 2.35889 8.06396 1.396 7.75195 0L 9.87988 0C 9.49536 1.35498 10.311 1.48584 11.1228 1.61597C 11.2542 1.63696 11.385 1.65796 11.511 1.68408C 12.6426 1.9187 13.7732 2.15894 14.9038 2.39917C 18.1628 3.0918 21.4224 3.78442 24.7041 4.34204C 25.8604 4.53833 27.1318 4.24805 28.3364 3.9729L 28.4133 3.95532L 28.7329 3.88306C 31.2661 3.31592 31.6289 3.9231 31.948 6.23193C 31.9624 6.33447 31.97 6.43799 31.98 6.57495L 31.9829 6.61426L 31.999 6.82007L 30.2646 7.1687C 29.0637 7.41064 27.8706 7.65088 26.677 7.88599L 25.8367 8.05176C 20.8088 9.0437 15.7817 10.0354 10.752 11.012C 10.1389 11.1311 9.8291 11.3301 9.85693 12.062C 9.9021 13.2419 9.89355 14.4238 9.88452 15.6523L 9.88403 15.7078C 9.88062 16.2014 9.87695 16.7026 9.87793 17.2151ZM 11.4373 5.7959C 11.3906 5.66089 11.3428 5.52295 11.2881 5.38403L 9.95605 5.55103L 9.95605 2.02197L 23.407 4.79102L 23.3987 4.88135L 23.3911 4.96289L 21.3738 5.3667L 21.3604 5.36938C 18.4326 5.95581 15.5049 6.54224 12.571 7.0979C 12.3469 7.14111 11.9661 6.88306 11.8159 6.65698C 11.6484 6.4043 11.5457 6.10815 11.4373 5.7959ZM 7.68311 8.06396C 6.29712 8.34204 4.90894 8.62012 3.24902 8.9519C 4.77588 6.87988 6.14697 5.02002 7.68311 2.93701L 7.68311 8.06396ZM 11.1218 6.66772C 11.2009 6.88403 11.2886 7.12378 11.478 7.29395L 10.0591 7.58789L 9.78198 7.42212C 9.83887 7.29224 9.88574 7.13818 9.93262 6.98413C 10.0352 6.64771 10.1379 6.31128 10.343 6.22607C 10.8787 6.00293 10.9878 6.30127 11.1218 6.66772ZM 30.4189 5.61499C 29.8049 5.24194 3.05298 10.3889 2.03711 11.0039C 2.57007 11.3091 28.2251 6.45703 30.4189 5.61499ZM 9.04004 29.7971L 0.852051 29.7971L 0.851074 30.9231L 1.93091 30.9231C 2.98047 30.9231 4.03003 30.9224 5.07983 30.9216C 8.52051 30.9192 11.9617 30.917 15.4021 30.9399C 15.9434 30.9441 16.4966 31.1355 17.0188 31.3162L 17.021 31.3169C 17.3049 31.4153 17.5706 31.5667 17.8752 31.7405C 18.02 31.823 18.1736 31.9106 18.342 32C 18.2371 30.448 17.584 29.811 16.301 29.802C 14.5857 29.7905 12.8696 29.793 11.1538 29.7952C 10.4492 29.7961 9.74463 29.7971 9.04004 29.7971Z"/>
</defs>
</svg>
