<svg width="32" height="32" viewBox="0 0 32 32" version="1.1" xmlns="http://www.w3.org/2000/svg" xmlns:xlink="http://www.w3.org/1999/xlink">
<title>mesicon-equip-stk</title>
<desc>Created using Figma</desc>
<g id="Canvas" transform="translate(2506 3010)">
<clipPath id="clip-0" clip-rule="evenodd">
<path d="M -2506 -3010L -2474 -3010L -2474 -2978L -2506 -2978L -2506 -3010Z" fill="#FFFFFF"/>
</clipPath>
<g id="mesicon-equip-stk" clip-path="url(#clip-0)">
<g id="mesicon-equip-stk">
<use xlink:href="#path0_fill" transform="translate(-2506 -3005.44)"/>
</g>
</g>
</g>
<defs>
<path id="path0_fill" fill-rule="evenodd" fill="white" d="M 4.39697 16.5497C 3.8999 16.5517 3.49097 16.5216 3.47998 15.7968C 3.46899 15.0626 3.84912 14.9288 4.40405 14.9328C 4.86401 14.9357 5.32397 14.9335 5.78418 14.9313C 6.48169 14.9281 7.1792 14.9249 7.87695 14.9389C 8.45508 14.9508 8.68311 14.7196 8.7041 14.0807L 8.70581 14.0282C 8.74561 12.8117 8.76514 12.2128 8.48389 11.9852C 8.21143 11.7645 7.65674 11.8927 6.56421 12.1449L 6.552 12.1478L 5.41846 12.4103C 4.29736 12.6705 3.17651 12.9306 2.05396 13.1788C 1.55005 13.2897 1.02393 13.3737 0.638916 12.8568C 0.11792 12.1557 0.437012 11.2147 1.30103 10.9757C 2.08203 10.7597 2.87207 10.5748 3.66699 10.4267C 4.11206 10.3436 4.3811 10.1068 4.58911 9.69374C 5.85498 7.17763 7.12988 4.66664 8.41211 2.16078C 8.64209 1.71181 8.69995 1.24086 8.70288 0.741838C 8.70508 0.425675 8.70703 0.0658121 9.11011 0.0147867C 9.40991 -0.0232992 9.73608 -0.014266 9.84595 0.372697C 9.95532 0.758195 10.2397 0.842423 10.5281 0.927873L 10.5879 0.945695C 12.0369 1.38075 13.4863 1.81532 14.9358 2.24965C 18.2805 3.25234 21.6255 4.25527 24.968 5.26479C 25.4329 5.40541 25.8633 5.29457 26.2937 5.18373C 26.4326 5.14784 26.5718 5.1122 26.7119 5.08486C 27.6799 4.89662 28.1479 5.11171 28.314 5.87074C 28.488 6.66274 28.1211 7.13783 27.1489 7.36366C 26.3054 7.55995 25.4622 7.75673 24.6191 7.95351L 23.8367 8.13612C 20.0518 9.01991 16.2673 9.90346 12.4761 10.7567C 11.739 10.9227 11.4719 11.2987 11.489 12.0458C 11.5049 12.7387 11.5149 13.4337 11.4839 14.1256C 11.457 14.7318 11.699 14.9476 12.2461 14.9389C 12.9294 14.9276 13.613 14.9303 14.2966 14.933L 14.3533 14.9332C 14.8621 14.9352 15.3711 14.9369 15.8799 14.9328C 16.448 14.9276 16.812 15.0927 16.7971 15.8097C 16.782 16.5307 16.3579 16.5526 15.864 16.5507C 14.5164 16.5458 13.1682 16.5465 11.8206 16.5473L 11.6589 16.5473L 10.1299 16.5477L 8.53735 16.547C 7.15698 16.546 5.77612 16.5451 4.39697 16.5497ZM 11.3279 2.1747C 13.5139 3.68984 15.7 5.20473 17.8879 6.71767C 18.095 6.86073 18.324 6.97475 18.572 6.92079C 19.8455 6.64638 21.1182 6.36611 22.3909 6.08559L 23.499 5.84169C 23.499 5.76674 23.5 5.69179 23.501 5.61684L 18.2397 4.03896L 11.384 1.9828L 11.3279 2.1747ZM 5.24512 10.0458L 6.60327 9.73085C 7.19287 9.59389 7.7373 9.46742 8.28198 9.34169C 8.52393 9.28578 8.67212 9.12563 8.6731 8.86586C 8.67749 7.55702 8.677 6.24819 8.67627 4.93959L 8.67603 3.63173L 8.50806 3.58681L 6.53149 7.49843L 5.24512 10.0458ZM 17.0552 7.1996L 17.03 7.31972L 15.3069 7.71913C 14.0737 8.006 12.8408 8.29262 11.6079 8.57778C 11.2791 8.6537 11.1899 8.43666 11.1431 8.14565C 10.9402 6.88759 10.7344 5.62978 10.5173 4.30458L 10.1931 2.32265L 13.1899 4.39272L 13.9521 4.91933L 17.0801 7.07973L 17.0552 7.1996ZM 4.52905 20.3717C 5.15601 20.3756 5.42505 19.9747 5.4939 19.3678C 5.44702 18.7186 5.13306 18.3478 4.53809 18.3117C 3.97412 18.2777 3.47803 18.7997 3.52905 19.3847C 3.58398 20.0119 3.92407 20.3678 4.52905 20.3717ZM 15.9409 18.3107C 16.5239 18.3607 16.8999 18.6957 16.937 19.3207C 16.9741 19.9547 16.647 20.3427 16.04 20.3947C 15.448 20.4447 14.9619 19.9896 14.99 19.3856C 15.019 18.7577 15.354 18.3998 15.9409 18.3107ZM 10.3511 18.3217C 9.76099 18.2438 9.39404 18.5897 9.30103 19.1928C 9.28101 19.8707 9.51392 20.3017 10.144 20.3607C 10.7451 20.4166 11.1479 20.1059 11.209 19.4638C 11.27 18.8297 10.929 18.3988 10.3511 18.3217ZM 29.259 21.3327L 25.2361 13.9127C 24.9651 13.4127 24.502 13.3966 24.2219 13.9127L 20.199 21.3327L 0.888916 21.3327C 0.404053 21.3327 0 21.7309 0 22.2218C 0 22.6986 0.397949 23.1107 0.888916 23.1107L 31.1101 23.1107C 31.595 23.1107 31.999 22.7128 31.999 22.2218C 31.999 21.7448 31.6011 21.3327 31.1101 21.3327L 29.259 21.3327ZM 25.0481 14.8978C 24.854 14.5316 24.5591 14.5468 24.3721 14.8978L 23.708 16.1456C 23.5129 16.5119 23.6851 16.7816 24.074 16.7816L 25.3459 16.7816C 25.7219 16.7816 25.8989 16.4967 25.7119 16.1456L 25.0481 14.8978Z"/>
</defs>
</svg>
