<svg width="32" height="32" viewBox="0 0 32 32" version="1.1" xmlns="http://www.w3.org/2000/svg" xmlns:xlink="http://www.w3.org/1999/xlink">
<title>mesicon-vessel</title>
<desc>Created using Figma</desc>
<g id="Canvas" transform="translate(2380 2968)">
<clipPath id="clip-0" clip-rule="evenodd">
<path d="M -2380 -2968L -2348 -2968L -2348 -2936L -2380 -2936L -2380 -2968Z" fill="#FFFFFF"/>
</clipPath>
<g id="mesicon-vessel" clip-path="url(#clip-0)">
<g id="noun_871492_cc">
<g id="Union">
<use xlink:href="#path0_fill" transform="translate(-2372.4 -2966)"/>
</g>
<g id="Subtract">
<use xlink:href="#path1_fill" transform="translate(-2377.19 -2957.01)"/>
</g>
<g id="path">
<use xlink:href="#path2_fill" transform="translate(-2378 -2941.25)"/>
</g>
<g id="Vector">
<use xlink:href="#path3_fill" transform="translate(-2373.72 -2961.37)"/>
</g>
</g>
</g>
</g>
<defs>
<path id="path0_fill" fill-rule="evenodd" fill="white" d="M 5.84888 0C 5.48657 0 5.18604 0.293213 5.18604 0.661621L 5.18604 1.61279L 0.662842 1.61279C 0.300537 1.61279 0 1.90601 0 2.27466L 0 3.46094C 0 3.83032 0.301758 4.12256 0.662842 4.12256L 15.4653 4.12256C 15.8286 4.12256 16.1282 3.82861 16.1282 3.46094L 16.1282 2.27466C 16.1282 1.90601 15.8274 1.61279 15.4653 1.61279L 11.1509 1.61279L 11.1509 0.661621C 11.1509 0.293213 10.8503 0 10.488 0L 5.84888 0Z"/>
<path id="path1_fill" fill-rule="evenodd" fill="white" d="M 2.53397 15.5814C 3.51541 16.0298 4.75174 16.428 6.25662 16.4112C 7.22952 16.4202 8.20316 16.1194 9.28616 15.785L 9.38187 15.7554C 10.5037 15.4095 11.7447 15.036 12.9908 15.0269C 14.2449 15.0362 15.4827 15.4097 16.6004 15.7557L 16.6953 15.7852C 17.7749 16.1197 18.7447 16.4202 19.7251 16.4112C 21.3377 16.4112 22.239 16.2442 22.8951 16.0106C 22.9424 15.9942 22.9888 15.9774 23.0345 15.9598L 25.6387 4.37506C 25.698 4.1109 25.5711 3.8404 25.3562 3.77497L 13.1404 0.0488919C 12.9253 -0.016782 12.5735 -0.0162937 12.3589 0.0503567L 0.297394 3.7735C 0.0823059 3.83991 -0.0448913 4.1109 0.014679 4.37506L 2.53397 15.5814Z"/>
<path id="path2_fill" fill-rule="evenodd" fill="white" d="M 20.5395 1.86125C 18.2764 1.86125 16.0684 0.476887 13.8052 0.476887C 11.5578 0.476887 9.31848 1.86125 7.07099 1.86125C 4.54102 1.86125 2.66453 0.81932 1.57075 0.209549C 0.170816 -0.512389 -0.577629 0.811034 0.542144 1.46095C 0.542144 1.46095 2.7062 3.23379 7.18988 3.23379C 9.64526 3.23379 11.3499 1.86125 13.8052 1.86125C 16.3399 1.86125 18.0048 3.23379 20.5395 3.23379C 24.7511 3.23379 27.2337 1.46095 27.2337 1.46095C 28.3666 0.72802 27.1623 -0.432553 26.0602 0.339743C 24.5524 1.17281 23.8735 1.86125 20.5395 1.86125Z"/>
<path id="path3_fill" d="M 18.3714 3.70077e-08L 0.407195 3.70077e-08C 0.183645 3.70077e-08 -2.36106e-07 0.186347 -2.36106e-07 0.413521L -2.36106e-07 5.5132C -2.36106e-07 5.74078 0.176316 5.87538 0.391315 5.81233L 8.95911 3.29442C 9.17411 3.23136 9.52634 3.23055 9.74174 3.2928L 18.3869 5.80343C 18.6023 5.86568 18.7786 5.73067 18.7786 5.5035L 18.7786 0.413925C 18.7786 0.186347 18.5954 3.70077e-08 18.3714 3.70077e-08ZM 5.99554 2.09711C 5.99554 2.31943 5.81271 2.50133 5.58835 2.50133L 3.00958 2.50133C 2.78562 2.50133 2.60239 2.31943 2.60239 2.09711L 2.60239 1.55828C 2.60239 1.33596 2.78562 1.15406 3.00958 1.15406L 5.58835 1.15406C 5.81271 1.15406 5.99554 1.33596 5.99554 1.55828L 5.99554 2.09711ZM 11.0855 2.09711C 11.0855 2.31943 10.9022 2.50133 10.6783 2.50133L 8.09912 2.50133C 7.87557 2.50133 7.69192 2.31943 7.69192 2.09711L 7.69192 1.55828C 7.69192 1.33596 7.87557 1.15406 8.09912 1.15406L 10.6783 1.15406C 10.9022 1.15406 11.0855 1.33596 11.0855 1.55828L 11.0855 2.09711ZM 16.1758 2.09711C 16.1758 2.31943 15.9926 2.50133 15.7686 2.50133L 13.1895 2.50133C 12.9655 2.50133 12.7823 2.31943 12.7823 2.09711L 12.7823 1.55828C 12.7823 1.33596 12.9655 1.15406 13.1895 1.15406L 15.7686 1.15406C 15.9926 1.15406 16.1758 1.33596 16.1758 1.55828L 16.1758 2.09711Z"/>
</defs>
</svg>
