<svg width="32" height="32" viewBox="0 0 32 32" version="1.1" xmlns="http://www.w3.org/2000/svg" xmlns:xlink="http://www.w3.org/1999/xlink">
<title>mesicon-equip-tlo-2</title>
<desc>Created using Figma</desc>
<g id="Canvas" transform="translate(2422 3010)">
<clipPath id="clip-0" clip-rule="evenodd">
<path d="M -2422 -3010L -2390 -3010L -2390 -2978L -2422 -2978L -2422 -3010Z" fill="#FFFFFF"/>
</clipPath>
<g id="mesicon-equip-tlo-2" clip-path="url(#clip-0)">
<g id="mesicon-equip-tlo-2">
<use xlink:href="#path0_fill" transform="translate(-2422 -3002.6)"/>
</g>
</g>
</g>
<defs>
<path id="path0_fill" fill-rule="evenodd" fill="white" d="M 0 15.9342C 0.109375 15.9342 0.181641 15.9354 0.25293 15.9366L 0.255371 15.9366L 0.257324 15.9366C 0.324707 15.9379 0.391602 15.9391 0.488037 15.9391L 0.584961 15.9391C 0.525879 15.8722 0.488037 15.7843 0.488037 15.6881C 0.488037 15.6561 0.491943 15.6251 0.5 15.5963L 0.14502 15.5992L 0.14502 15.2911L 0.221924 15.2792L 0.19751 15.1818C 0.154785 15.0116 0.112305 14.8424 0.0668945 14.6761C 0.0339355 14.5602 0.013916 14.4291 0.013916 14.2911L 0.013916 14.2792C 0.0161133 13.9845 0.0153809 13.6898 0.0146484 13.3951L 0.013916 12.9532C 0.013916 12.8031 0.0500488 12.7591 0.196045 12.7372L 0.36792 12.7108L 0.413574 12.7037L 0.460938 12.6964L 0.510742 12.6886C 0.728271 12.6542 0.94458 12.6202 1.16211 12.5951C 1.23706 12.5902 1.32593 12.5863 1.41309 12.5863C 1.5 12.5863 1.58911 12.5902 1.67603 12.5951L 3.82202 12.6222L 3.81812 10.3802L 5.03809 10.3802L 5.04541 10.381C 5.04883 10.3817 5.05225 10.3822 5.05591 10.3822C 5.125 10.3822 5.18604 10.3463 5.21997 10.2921C 5.89502 9.35607 6.57202 8.42223 7.25195 7.4923C 8.04907 6.40515 8.81494 5.29821 9.57397 4.18713C 9.70435 3.99572 9.8479 3.81408 9.9917 3.63244L 9.99902 3.62316C 10.1138 3.4779 10.2285 3.33239 10.3369 3.18127C 10.5029 2.94836 10.6633 2.71081 10.8237 2.47326L 10.8325 2.46032L 10.8413 2.44738L 10.8501 2.43444L 10.8589 2.4215L 10.8674 2.40856L 10.8884 2.37756L 10.8933 2.37048C 11.0293 2.16955 11.1658 1.96789 11.3069 1.77014C 11.592 1.37121 11.8889 0.978143 12.1909 0.593133C 12.1689 0.565301 12.415 0.320184 12.7151 0.164178C 13.155 -0.0658021 13.583 -0.0487123 14.0049 0.181268C 14.093 0.159296 14.5681 0.528192 14.895 1.00622C 15.0957 1.28698 15.2805 1.57238 15.4644 1.85632L 15.6221 2.09924C 16.1479 2.90612 16.7209 3.67614 17.303 4.44225C 17.4651 4.70934 17.8557 5.3009 18.3455 5.94177C 18.218 5.74694 19.1914 6.86657 19.9609 8.12512C 20.2278 8.5841 20.5254 8.98571 20.8176 9.38049L 20.8191 9.38244L 20.8206 9.38464L 20.8242 9.38976L 20.8257 9.39172L 20.8271 9.39391L 20.8308 9.39904L 20.8323 9.40099L 20.8337 9.40319L 20.8352 9.40539L 20.8389 9.41052L 20.8403 9.41247L 20.8418 9.41467L 20.8455 9.41979L 20.8469 9.42175L 20.8484 9.42394L 20.8521 9.42907L 20.8535 9.43102L 20.855 9.43322L 20.8586 9.43835L 20.8601 9.4403L 20.8616 9.4425L 20.8652 9.44763L 20.8667 9.44958L 20.8682 9.45178L 20.8718 9.4569L 20.8733 9.45886L 20.8748 9.46105L 20.8784 9.46618L 20.8799 9.46813L 20.8835 9.47326L 20.885 9.47521L 20.8887 9.48034L 20.8901 9.48229L 20.8938 9.48742L 20.8975 9.4923L 20.9153 9.51623L 20.9373 9.54577C 21.0439 9.68957 21.1501 9.83312 21.2539 9.97814C 21.2725 10.0043 21.2922 10.0299 21.3123 10.0555L 21.3174 10.0619C 21.3899 10.1544 21.4631 10.2482 21.4839 10.3751L 22.3999 10.3751L 22.3999 15.2801L 22.842 15.2892L 22.842 11.8851C 22.842 11.8321 22.8689 11.7853 22.9109 11.7591C 23.032 11.6722 23.1499 11.5841 23.2661 11.4943C 23.311 11.4542 23.3721 11.4281 23.437 11.4281C 23.4451 11.4281 23.4561 11.4281 23.4641 11.4303C 23.4861 11.4313 23.5139 11.4313 23.541 11.4313C 23.5681 11.4313 23.5959 11.4313 23.623 11.4303L 23.6189 10.6932L 26.2429 10.6932L 26.2429 11.4261L 31.29 11.4261L 31.2908 11.548L 31.2913 11.5865L 31.2913 11.5885L 31.2913 11.5904L 31.2913 11.5924L 31.2913 11.5944L 31.2913 11.5963L 31.2913 11.5983L 31.2913 11.6002C 31.2927 11.7198 31.2942 11.8361 31.2871 11.9532C 31.29 11.9723 31.2581 12.0612 31.2051 12.1383C 31.166 12.2189 31.126 12.2989 31.0857 12.3793C 30.9988 12.5524 30.9119 12.7259 30.8359 12.9042C 30.8074 12.9703 30.8057 13.0489 30.8037 13.1315C 30.803 13.1671 30.802 13.2035 30.7991 13.2401L 31.457 13.2401L 31.457 14.2653L 31.99 14.2653L 31.99 15.2921L 31.989 15.6161L 30.01 15.6161C 29.9871 15.7362 29.877 15.8741 29.7319 15.9491L 32 15.9513L 32 17.3761L 0.0100098 17.3761L 0.0100098 15.9513L 0 15.9342ZM 17.8911 5.29626C 17.2373 4.26306 17.1128 4.12927 17.303 4.44225C 17.511 4.71813 17.7029 5.00524 17.8911 5.29626ZM 17.666 10.1351C 17.5989 10.0997 17.6121 10.1107 17.6624 10.1363L 17.6191 10.1691C 17.553 10.2184 17.4819 10.2716 17.417 10.3292C 17.3789 10.3632 17.332 10.3841 17.2791 10.3841L 6.86108 10.3841L 6.09204 10.3802C 6.12598 10.3053 6.17407 10.2391 6.12402 10.3192L 6.78784 9.40319C 7.38525 8.57946 7.98291 7.75524 8.57397 6.92712C 8.84766 6.54308 9.1145 6.15539 9.38062 5.76843L 9.396 5.74621C 9.62427 5.41418 9.85205 5.08288 10.084 4.75524C 10.209 4.57873 10.3423 4.40783 10.4761 4.23718L 10.4836 4.22741C 10.6116 4.06359 10.7395 3.89977 10.8601 3.7301C 11.0376 3.4801 11.2102 3.22619 11.3828 2.97228L 11.3975 2.9508C 11.5439 2.73547 11.6904 2.52014 11.8401 2.30724C 12.092 1.95226 12.3511 1.60412 12.613 1.25524C 12.7749 1.0382 13.001 0.874139 13.02 0.896112C 13.3049 0.738153 13.563 0.808221 13.8081 0.982294C 14.1101 1.19714 14.3359 1.48229 14.5391 1.78723C 14.6594 1.96887 14.7778 2.15148 14.896 2.3341L 14.9048 2.34753C 15.1257 2.68859 15.3467 3.02941 15.5811 3.36315C 15.8364 3.72302 16.1001 4.07629 16.3638 4.42956L 16.3777 4.44811L 16.3987 4.47643C 16.575 4.71203 16.7507 4.94763 16.9241 5.18517C 17.0046 5.29626 17.0786 5.41174 17.1523 5.52746C 17.2341 5.65539 17.3159 5.78332 17.407 5.90515C 17.6597 6.2489 17.9199 6.58679 18.1794 6.92346L 18.23 6.98889L 18.4761 7.3092C 18.655 7.5072 18.7891 7.74523 18.645 7.52819C 18.7 7.62927 18.7339 7.74328 18.7319 7.79113C 18.761 8.01428 18.78 8.24108 18.7971 8.46618L 18.7971 8.47521C 18.7971 8.53112 18.7849 8.5863 18.7661 8.6322C 18.719 8.7611 18.5969 8.81115 18.4871 8.72619C 18.3181 8.58923 18.188 8.40807 18.241 8.45422C 17.9695 8.05749 17.7063 7.6571 17.4434 7.25695L 17.438 7.24865L 17.4221 7.22424L 17.26 6.97717L 17.2461 6.95812C 17.1589 6.8402 17.074 6.81115 16.9871 6.87609C 16.936 6.91711 16.9031 6.9801 16.9031 7.05212C 16.9031 7.10314 16.9199 7.14929 16.948 7.18713C 16.9873 7.24401 17.0276 7.30016 17.0681 7.35656C 17.145 7.46374 17.2219 7.57116 17.292 7.68322C 17.6631 8.27209 18.033 8.86218 18.3911 9.45715C 18.4419 9.5343 18.4709 9.62829 18.4709 9.72717C 18.4709 9.84509 18.4299 9.95031 18.364 10.0362C 18.27 10.1522 18.127 10.2252 17.9641 10.2252C 17.917 10.2252 17.8689 10.2181 17.821 10.2052C 17.7595 10.1832 17.7004 10.1556 17.6624 10.1363L 17.6641 10.1351L 17.666 10.1351ZM 30.8 11.7792L 30.9399 11.7792L 30.937 11.7902C 30.8821 11.9591 30.802 12.1161 30.8811 11.9381C 30.8308 12.0428 30.7798 12.1471 30.7288 12.2513L 30.7092 12.2914C 30.6355 12.442 30.562 12.5926 30.49 12.7433C 30.457 12.8131 30.439 12.8932 30.439 12.9601C 30.4358 13.0795 30.4368 13.1984 30.438 13.3175L 30.439 13.4962L 30.439 13.5863L 31.0779 13.5863L 31.0779 15.1061L 30.2771 15.1061L 30.2771 14.4442L 28.4241 14.4442L 28.4241 13.5472L 23.1951 13.5472L 23.1951 12.0563C 23.1951 12.0101 23.2151 11.9701 23.249 11.9432C 23.3889 11.8102 23.5459 11.7762 23.741 11.7762C 26.094 11.7782 28.447 11.7792 30.8 11.7792ZM 3.83105 12.9452L 1.28101 12.9042L 1.28101 14.3392L 3.8689 14.3392L 3.83105 12.9452ZM 27.9546 15.5543L 27.9543 15.5619C 27.9536 15.5758 27.9529 15.5907 27.9529 15.6061L 25.6819 15.6041L 25.6819 14.6222C 25.708 14.6183 25.7351 14.6183 25.762 14.6183L 27.864 14.6183C 27.936 14.6173 27.9561 14.6371 27.9561 14.7091L 27.9561 15.5162C 27.9561 15.5267 27.9556 15.5382 27.9548 15.5507L 27.9546 15.5543ZM 23.2151 15.3282L 25.489 15.3282L 25.4883 15.1224L 25.488 15.0878L 25.488 15.0504C 25.4878 14.9396 25.4875 14.8292 25.489 14.7191C 25.489 14.6422 25.4741 14.6183 25.3921 14.6183C 24.9871 14.6205 24.5828 14.62 24.1785 14.6195L 24.085 14.6195L 23.9978 14.6193L 23.3 14.6183L 23.2151 14.6183L 23.2151 15.3282ZM 0.330078 13.0697C 0.331543 13.0587 0.333008 13.0463 0.333008 13.0301L 1.08691 12.9193C 1.09204 12.9532 1.09204 12.9801 1.09204 13.0082L 1.09302 13.3954C 1.09448 13.7467 1.09595 14.0973 1.08691 14.4491C 1.0835 14.5602 1.05396 14.6705 1.02441 14.7809L 1.02368 14.7838L 1.0188 14.8019L 1.0144 14.8187L 1.01318 14.8234L 1.01074 14.8329C 1.00342 14.8605 0.996338 14.8876 0.98999 14.9152C 0.966064 15.0211 0.939941 15.1271 0.909912 15.2311C 0.900879 15.2562 0.881104 15.2772 0.85791 15.2821L 0.542969 15.2821C 0.4729 14.9991 0.403076 14.7191 0.333008 14.4432C 0.329102 14.4291 0.327881 14.4142 0.327881 14.3971L 0.327881 13.0951C 0.327881 13.0868 0.328857 13.0787 0.330078 13.0697ZM 28.144 14.6222L 28.144 15.3282L 30.0959 15.3282C 30.0959 15.3131 30.0967 15.2989 30.0977 15.2853C 30.0984 15.2726 30.0991 15.2604 30.0991 15.2482L 30.0984 15.0673C 30.0977 14.9466 30.0969 14.8258 30.0991 14.7052C 30.0991 14.6322 30.075 14.6151 30.0071 14.6151L 28.2241 14.6151C 28.199 14.6183 28.1709 14.6202 28.1421 14.6222L 28.144 14.6222ZM 2.53662 15.2794C 2.53052 15.2782 2.52686 15.2772 2.52905 15.2772C 2.55688 15.1573 2.58252 15.0372 2.60815 14.9169L 2.61108 14.9032C 2.63501 14.7911 2.65894 14.6791 2.68408 14.5673C 2.69409 14.5472 2.71289 14.5311 2.72803 14.5282C 2.73706 14.5262 2.74609 14.5243 2.7561 14.5243C 2.76514 14.5243 2.77246 14.5258 2.78027 14.5277L 2.78296 14.5282L 3.8689 14.5282L 3.81396 14.7223L 3.76807 14.889C 3.73706 15.0016 3.70605 15.1141 3.67603 15.2272C 3.67407 15.2601 3.64893 15.2843 3.61597 15.2843L 3.61108 15.2843L 2.55591 15.2843L 2.53662 15.2794ZM 24.4641 14.4291L 25.658 14.4291L 25.658 13.6412L 24.4641 13.6412L 24.4641 14.4291ZM 23.1709 13.6393L 24.3669 13.6393L 24.3669 14.4313L 23.1709 14.4313L 23.1709 13.6393ZM 28.3279 14.4313L 28.3279 13.6371L 27.134 13.6371L 27.134 14.4313L 28.3279 14.4313ZM 25.759 13.6412L 26.9509 13.6412L 26.9509 14.4291L 25.759 14.4291L 25.759 13.6412ZM 25.8779 11.0472L 23.978 11.0472L 23.978 11.4723L 25.8779 11.4723L 25.8779 11.0472ZM 28.3501 15.9303L 25.042 15.9303L 25.0459 15.9291C 25.187 15.8722 25.2981 15.7533 25.3311 15.6451C 25.353 15.5914 25.3899 15.5968 25.4309 15.6027C 25.4534 15.6058 25.4771 15.6092 25.5 15.6031L 25.5 15.7733L 28.1509 15.7733L 28.3501 15.9303ZM 1.91309 14.5301L 1.32397 14.5301C 1.302 14.5331 1.28003 14.5521 1.27002 14.5763C 1.23926 14.6742 1.21558 14.7723 1.19165 14.8715L 1.19092 14.8741C 1.1748 14.9376 1.15918 15.0011 1.14355 15.0653L 1.1333 15.1068C 1.11938 15.1637 1.10522 15.2213 1.09009 15.2801L 1.72998 15.2801L 1.91309 14.5301ZM 2.50098 14.5301L 2.33789 15.2821L 2.33911 15.2843L 1.9209 15.2843L 1.97852 15.0443L 2.04712 14.7582C 2.07788 14.6681 2.09497 14.5721 2.08496 14.6083C 2.09204 14.5382 2.12793 14.5301 2.18896 14.5301L 2.50098 14.5301ZM 3.53906 15.9352C 3.47705 15.8693 3.43994 15.7782 3.43994 15.6803C 3.43994 15.6522 3.44312 15.6271 3.448 15.6012L 2.802 15.6041C 2.80811 15.6302 2.81201 15.6593 2.81201 15.6903C 2.81201 15.7853 2.77393 15.8712 2.71289 15.9352L 3.53906 15.9352ZM 1.6311 15.9322L 1.72998 15.7003L 2.1499 15.7003L 2.24707 15.9322L 1.6311 15.9322ZM 28.6919 15.9303L 29.3589 15.9303C 29.2649 15.8983 29.1489 15.7843 29.093 15.6403C 29.0791 15.6183 29.0569 15.6041 29.033 15.6041C 29.011 15.6061 28.99 15.6202 28.978 15.6393C 28.948 15.7482 28.8369 15.8712 28.6919 15.9303ZM 24.4419 15.6332C 24.4951 15.7794 24.6079 15.8959 24.7009 15.9322L 24.0371 15.9303C 24.186 15.8673 24.302 15.7391 24.333 15.6212C 24.345 15.6083 24.363 15.5983 24.384 15.5983C 24.408 15.5983 24.4299 15.6112 24.4419 15.6332ZM 31.616 15.1932L 31.616 14.6232L 31.4541 14.6232L 31.4541 15.1932L 31.616 15.1932ZM 10.52 7.65222C 10.522 7.64807 10.5232 7.64636 10.5239 7.64684L 10.5239 7.65124L 10.52 7.65222ZM 10.5239 7.65124C 10.5244 7.64855 10.5244 7.64684 10.5239 7.64684L 10.5239 7.64416C 10.5239 7.55724 10.4709 7.48229 10.394 7.44811C 10.3169 7.42224 10.2539 7.44811 10.1909 7.53015C 10.053 7.70519 9.9519 7.91223 10.0779 7.69323L 9.91504 7.97814L 9.90503 7.99548L 9.89502 8.01281L 9.88501 8.03014L 9.875 8.04748L 9.86499 8.06481L 9.85498 8.08215L 9.84497 8.09948L 9.83496 8.11681L 9.82495 8.13439C 9.70288 8.3485 9.58228 8.56017 9.46606 8.76818C 9.25806 9.12829 9.11597 9.53112 9.28296 9.13708C 9.2749 9.1571 9.271 9.17907 9.271 9.20324C 9.271 9.28527 9.323 9.35729 9.39404 9.38708C 9.48096 9.42028 9.55591 9.3822 9.61108 9.27819C 9.63965 9.2257 9.66699 9.17297 9.69409 9.12023C 9.7334 9.04406 9.77271 8.96789 9.81689 8.89123C 9.94019 8.67883 10.0659 8.46789 10.1914 8.25744L 10.2332 8.18762C 10.3147 8.05065 10.396 7.91393 10.4761 7.77722C 10.5007 7.72473 10.5205 7.6676 10.5239 7.65124ZM 16.4741 5.24328C 16.551 5.23522 16.5959 5.2882 16.6331 5.34216C 16.7039 5.44323 16.7698 5.54431 16.8364 5.64684L 16.894 5.73522C 16.957 5.82922 17.02 5.92321 17.085 6.01623C 17.116 6.05627 17.1331 6.10314 17.1331 6.15807C 17.1331 6.18517 17.1279 6.21227 17.1189 6.23815C 17.0701 6.37609 16.9109 6.41027 16.822 6.29308C 16.761 6.21154 16.7053 6.12634 16.6497 6.04113L 16.575 5.92809L 16.5454 5.88415C 16.4751 5.77966 16.4102 5.68322 16.3401 5.58312C 16.311 5.54528 16.2939 5.49621 16.2939 5.44518C 16.2939 5.4071 16.302 5.37121 16.3169 5.34118C 16.3401 5.2843 16.394 5.24328 16.459 5.24328C 16.4641 5.24328 16.469 5.24328 16.4741 5.24523L 16.4741 5.24328ZM 10.6699 6.6322C 10.658 6.65612 10.6521 6.68517 10.6521 6.70226L 10.6499 6.70031C 10.6479 6.82311 10.7041 6.90222 10.781 6.92712C 10.8579 6.95324 10.926 6.91125 10.9839 6.82311L 11.0405 6.73913L 11.0466 6.73034C 11.085 6.67419 11.123 6.61804 11.158 6.56115C 11.187 6.5133 11.2061 6.45812 11.2041 6.4381C 11.2061 6.43127 11.2061 6.42419 11.2061 6.41711C 11.2061 6.33727 11.1599 6.26916 11.093 6.23522C 11.073 6.22424 11.0491 6.21813 11.0229 6.21813C 10.969 6.21813 10.9209 6.24719 10.894 6.29113C 10.822 6.39123 10.7563 6.49523 10.6914 6.59802L 10.6699 6.6322ZM 15.981 7.68127C 16.0586 7.66686 16.1318 7.70666 16.1755 7.79894C 16.0981 7.62585 16.1924 7.80847 16.2561 8.0072C 16.2649 8.03625 16.2661 8.05309 16.2661 8.07214C 16.2661 8.13415 16.239 8.18615 16.1951 8.22228C 16.167 8.25012 16.1311 8.26721 16.0911 8.26721C 16.0649 8.26721 16.043 8.26013 16.022 8.25012C 16.01 8.24816 15.9851 8.23229 15.968 8.21008C 15.9285 8.13708 15.8936 8.06042 15.8652 7.99816L 15.863 7.99328L 15.835 7.93224L 15.8359 7.93029C 15.8359 7.78918 15.9009 7.69714 15.981 7.68127ZM 29.821 12.1022L 29.304 12.1022L 29.3059 12.1041L 28.7681 12.1041C 28.76 12.1022 28.7529 12.1022 28.7461 12.1022C 28.6709 12.1022 28.6101 12.1632 28.6101 12.2382C 28.6101 12.2472 28.6101 12.2543 28.6111 12.2611L 28.6111 12.7643C 28.6111 12.8822 28.656 12.9291 28.7749 12.9291L 29.823 12.9291C 29.9409 12.9291 29.988 12.8802 29.988 12.7643L 29.988 12.2672C 29.9871 12.1503 29.939 12.1022 29.821 12.1022ZM 24.1211 13.0563L 24.2461 12.7667C 24.3171 12.6014 24.3884 12.4357 24.4609 12.2711C 24.4619 12.2643 24.488 12.2433 24.5171 12.2323L 24.5371 12.2491L 24.49 12.3583C 24.396 12.5741 24.302 12.7931 24.21 13.0111C 24.189 13.0502 24.1721 13.0812 24.1211 13.0563ZM 25.1926 12.5153L 25.3069 12.2521L 25.2859 12.2301C 25.2571 12.2423 25.2319 12.2621 25.23 12.2692C 25.1729 12.3998 25.116 12.5316 25.0593 12.6632L 25.01 12.7777L 24.8911 13.0541L 24.906 13.0712C 24.938 13.0592 24.9661 13.0372 24.969 13.0282C 25.033 12.8832 25.0959 12.7382 25.1587 12.5934L 25.1926 12.5153ZM 24.7029 13.0492L 24.7412 12.9596C 24.8391 12.7301 24.9363 12.5026 25.0371 12.2762C 25.0359 12.2711 25.063 12.2472 25.095 12.2301L 25.116 12.2472L 25.0637 12.369C 25.0422 12.4198 25.0208 12.4703 24.998 12.5221L 24.9714 12.5841L 24.9568 12.618L 24.9495 12.6349L 24.9426 12.651L 24.9353 12.6683L 24.928 12.6857L 24.9207 12.703L 24.9131 12.7203C 24.8713 12.8173 24.8291 12.9144 24.7859 13.0111C 24.7971 13.0043 24.7661 13.0443 24.7271 13.0731L 24.7029 13.0492ZM 24.6655 12.8436L 24.9209 12.2501L 24.9009 12.2301C 24.865 12.2491 24.834 12.2782 24.8379 12.2792C 24.8181 12.3168 24.8022 12.3551 24.7861 12.3942L 24.7837 12.4L 24.7822 12.4034L 24.7808 12.4071L 24.7571 12.4642L 24.5029 13.0563L 24.5239 13.0731C 24.563 13.0492 24.5969 13.0153 24.583 13.0272C 24.6233 12.9513 24.6558 12.8707 24.6655 12.8436ZM 24.314 13.0521L 24.4475 12.7413L 24.4673 12.6952C 24.5276 12.5543 24.5881 12.413 24.6499 12.2721C 24.6499 12.2672 24.6741 12.2433 24.7051 12.2301L 24.7219 12.2433C 24.728 12.2201 24.72 12.2572 24.708 12.2953C 24.6069 12.5321 24.5039 12.7711 24.4009 13.0091C 24.384 13.0472 24.3679 13.0831 24.314 13.0521ZM 24.2351 12.4962L 24.3391 12.2491L 24.322 12.2301C 24.2849 12.2501 24.2539 12.2811 24.259 12.2811C 24.2375 12.3202 24.22 12.3632 24.2026 12.4054L 24.1841 12.4503L 23.925 13.0521L 23.947 13.0712C 23.9861 13.0472 24.019 13.0091 24.01 13.0133C 24.0579 12.9069 24.1042 12.7994 24.1504 12.692L 24.2351 12.4962ZM 24.145 12.2501L 23.834 13.0033L 23.812 12.9991C 23.812 12.9481 23.8191 12.8932 23.833 12.8441C 23.9041 12.6612 23.981 12.4752 24.061 12.2911C 24.053 12.2963 24.082 12.2591 24.1189 12.2323L 24.145 12.2501ZM 25.2612 12.8048C 25.3308 12.6581 25.4001 12.5113 25.425 12.3483L 25.394 12.3363L 25.0869 13.0502C 25.095 13.0541 25.105 13.0563 25.114 13.0563C 25.1289 13.0563 25.145 13.0502 25.157 13.0421C 25.186 12.9647 25.2212 12.8898 25.2566 12.8148L 25.2612 12.8048ZM 23.9519 12.2491L 23.8291 12.5331C 23.802 12.3712 23.863 12.2333 23.9519 12.2491ZM 25.281 13.0592L 25.406 12.8102C 25.4331 12.9552 25.375 13.0663 25.281 13.0592Z"/>
</defs>
</svg>
